#N canvas 718 103 701 486 10;
#X obj 138 111 hsl 128 15 0 100 0 0 empty empty empty -2 -8 0 10 -262144
-1 -1 12700 1;
#X floatatom 135 131 5 0 0 0 - - -, f 5;
#X obj 135 150 mtof;
#X floatatom 135 170 5 0 0 0 - - -, f 5;
#X obj 138 189 hsl 128 15 0 3000 0 0 empty empty empty -2 -8 0 10 -262144
-1 -1 11163 1;
#X obj 411 336 dac~ 15 16 17 18;
#X connect 0 0 1 0;
#X connect 1 0 2 0;
#X connect 2 0 3 0;
#X connect 3 0 4 0;
