#N canvas 2720 29 640 491 10;
#X obj 261 -182 inlet~;
#X obj 274 -128 env~;
#X floatatom 274 -103 5 0 0 0 - - -, f 5;
#X floatatom 200 -55 5 0 0 0 - - -, f 5;
#X obj 178 -105 i;
#X obj 166 -57 - 1;
#X obj 167 -29 spigot;
#X floatatom 167 -3 5 0 0 0 - - -, f 5;
#X floatatom 158 -80 5 0 0 0 - - -, f 5;
#X obj 213 -104 >;
#X obj 168 20 max 0;
#X obj 93 -142 r m1300;
#X obj 92 -164 r gThresh;
#X obj 86 -37 / 100;
#X obj 119 56 *~;
#X floatatom 86 -13 5 0 0 0 - - -, f 5;
#X text 264 -209 signal path;
#X text 175 -136 threshold;
#X text 72 -68 amplitude;
#X text 69 55 output;
#X obj 274 -153 bp~ \$1 100;
#X obj 119 81 outlet~;
#X text 1 -244 erodes signal at \$1 hertz;
#X text 1 -219 v. 1 \, 0 - 2020-01-29;
#X text 1 -269 BANDPASS EROSION SUBPATCH;
#X text 101 -187 init;
#X obj 284 -40 i;
#X obj 283 -65 r gQ;
#X floatatom 263 -17 5 0 0 0 - - -, f 5;
#X obj 306 -14 + 1;
#X obj 279 16 spigot;
#X floatatom 279 41 5 0 0 0 - - -, f 5;
#X obj 279 65 max 20;
#X obj 385 -102 r m1300;
#X obj 373 -4 spigot;
#X floatatom 373 21 5 0 0 0 - - -, f 5;
#X obj 385 -77 t b b;
#X msg 421 -32 1;
#X msg 386 -31 0;
#X obj 385 -55 delay 10;
#X obj 371 78 r isBiggest;
#X obj 371 103 tgl 15 0 empty empty empty 17 7 0 10 -262144 -1 -1 0
1;
#X obj 376 48 outlet;
#X connect 0 0 20 0;
#X connect 1 0 2 0;
#X connect 2 0 9 0;
#X connect 2 0 34 0;
#X connect 3 0 6 1;
#X connect 3 0 30 1;
#X connect 4 0 5 0;
#X connect 4 0 8 0;
#X connect 4 0 9 1;
#X connect 4 0 13 0;
#X connect 5 0 6 0;
#X connect 6 0 7 0;
#X connect 7 0 10 0;
#X connect 9 0 3 0;
#X connect 10 0 4 1;
#X connect 11 0 4 0;
#X connect 11 0 9 0;
#X connect 11 0 26 0;
#X connect 12 0 4 0;
#X connect 13 0 14 1;
#X connect 13 0 15 0;
#X connect 14 0 21 0;
#X connect 20 0 1 0;
#X connect 20 0 14 0;
#X connect 26 0 28 0;
#X connect 26 0 29 0;
#X connect 26 0 20 2;
#X connect 27 0 26 0;
#X connect 29 0 30 0;
#X connect 30 0 31 0;
#X connect 31 0 32 0;
#X connect 32 0 26 1;
#X connect 33 0 36 0;
#X connect 34 0 35 0;
#X connect 35 0 42 0;
#X connect 36 0 39 0;
#X connect 36 1 37 0;
#X connect 37 0 34 1;
#X connect 38 0 34 1;
#X connect 39 0 38 0;
#X connect 40 0 41 0;
