#N canvas 1444 29 1268 998 10;
#X obj 7 284 cnv 15 315 373 empty empty empty 20 12 0 14 -233017 -66577
0;
#X text 3 8 BANDPASS EROSION ALGORITHM;
#X text 3 57 tracks 16 bands and stores threshold values;
#X text 3 82 if amplitude > threshold:;
#X text 3 107 1 multiply by threshold;
#X text 3 132 2 decrease threshold;
#X text 3 33 v. 1 \, 0 - 2020-01-29;
#X obj 423 287 inlet~;
#X obj 231 402 env~;
#X floatatom 231 427 5 0 0 0 - - -, f 5;
#X obj 231 377 bp~ 50 100;
#X obj 370 22 bng 15 250 50 0 empty empty empty 17 7 0 10 -262144 -1
-1;
#X obj 969 1421 dac~ 1 2;
#X obj 740 92 tgl 15 0 empty empty empty 17 7 0 10 -262144 -1 -1 1
1;
#X obj 194 212 s Q;
#X obj 274 351 r Q;
#X obj 231 352 r~ in;
#X obj 426 320 s~ in;
#X floatatom 225 210 5 0 0 0 - - -, f 5;
#X obj 199 180 max 30;
#X floatatom 157 475 5 0 0 0 - - -, f 5;
#X obj 135 425 i;
#X obj 114 188 loadbang;
#X obj 123 473 - 1;
#X obj 124 501 spigot;
#X floatatom 124 527 5 0 0 0 - - -, f 5;
#X floatatom 115 450 5 0 0 0 - - -, f 5;
#X obj 170 426 >;
#X obj 125 550 max 0;
#X obj 742 178 s m1300;
#X obj 76 364 r m1300;
#X obj 115 239 s gThresh;
#X obj 64 343 r gThresh;
#X obj 43 493 / 100;
#X obj 76 586 *~;
#X floatatom 43 517 5 0 0 0 - - -, f 5;
#X obj 715 173 bng 15 250 50 0 empty empty empty 17 7 0 10 -262144
-1 -1;
#X text 104 287 50 Hz;
#X text 230 329 signal path;
#X text 132 394 threshold;
#X text 29 462 amplitude;
#X text 26 585 output;
#X obj 867 637 r~ in;
#X obj 867 662 bpErode 50;
#X obj 593 628 r~ in;
#X obj 593 653 bpErode 150;
#X obj 430 613 r~ in;
#X obj 430 638 bpErode 200;
#X obj 713 632 r~ in;
#X obj 715 659 bpErode 100;
#X obj 669 957 r~ in;
#X obj 280 949 r~ in;
#X obj 93 930 r~ in;
#X obj 488 951 r~ in;
#X obj 669 982 bpErode 400;
#X obj 488 976 bpErode 600;
#X obj 280 974 bpErode 800;
#X obj 90 955 bpErode 1000;
#X obj 690 1294 r~ in;
#X obj 298 1285 r~ in;
#X obj 97 1284 r~ in;
#X obj 486 1286 r~ in;
#X obj 690 1318 bpErode 2000;
#X obj 486 1311 bpErode 3000;
#X obj 298 1310 bpErode 4000;
#X obj 97 1309 bpErode 5000;
#X obj 719 1611 r~ in;
#X obj 281 1608 r~ in;
#X obj 76 1603 r~ in;
#X obj 467 1610 r~ in;
#X obj 720 1633 bpErode 8750;
#X obj 467 1635 bpErode 12500;
#X obj 281 1633 bpErode 16250;
#X obj 76 1628 bpErode 20000;
#X msg 115 214 70;
#X obj 280 193 i;
#X obj 313 193 + 1;
#X floatatom 280 218 5 0 0 0 - - -, f 5;
#X obj 330 117 tgl 15 0 empty empty empty 17 7 0 10 -262144 -1 -1 1
1;
#X obj 269 124 loadbang;
#X msg 269 149 0;
#X text 7 287 EXAMPLE bpErode;
#X obj 367 54 playsf ../../vertikal_Audio/2019-01/01.wav;
#X obj 166 116 r start;
#X text 421 260 SIGNAL INPUT;
#X obj 322 165 metro 1500;
#X msg 66 216 0;
#X obj 66 241 s gQ;
#X obj 715 148 metro 1300;
#X text 795 150 GENERAL FREQUENCY OF OPERATION;
#X obj 843 1123 sel 1 2 3 4 5 6 7 8 9 10 11 12 13 14 15 16;
#X obj 1115 1215 print noBiggest;
#X obj 803 1153 bng 15 250 50 0 empty empty empty 17 7 0 10 -262144
-1 -1;
#X obj 823 1153 bng 15 250 50 0 empty empty empty 17 7 0 10 -262144
-1 -1;
#X obj 843 1153 bng 15 250 50 0 empty empty empty 17 7 0 10 -262144
-1 -1;
#X obj 862 1154 bng 15 250 50 0 empty empty empty 17 7 0 10 -262144
-1 -1;
#X obj 881 1154 bng 15 250 50 0 empty empty empty 17 7 0 10 -262144
-1 -1;
#X obj 902 1155 bng 15 250 50 0 empty empty empty 17 7 0 10 -262144
-1 -1;
#X obj 923 1155 bng 15 250 50 0 empty empty empty 17 7 0 10 -262144
-1 -1;
#X obj 946 1155 bng 15 250 50 0 empty empty empty 17 7 0 10 -262144
-1 -1;
#X obj 971 1155 bng 15 250 50 0 empty empty empty 17 7 0 10 -262144
-1 -1;
#X obj 983 798 >;
#X obj 937 825 spigot;
#X obj 1105 647 bng 15 250 50 0 empty empty empty 17 7 0 10 -262144
-1 -1;
#X msg 1102 671 0;
#X floatatom 1122 787 5 0 0 0 - - -, f 5;
#X floatatom 949 852 5 0 0 0 - - -, f 5;
#X floatatom 986 822 5 0 0 0 - - -, f 5;
#X obj 939 793 t f f;
#X obj 1109 588 r m1300;
#X obj 1109 613 t b b;
#X floatatom 912 716 5 0 0 0 - - -, f 5;
#X obj 1122 762 f;
#X obj 914 742 spigot;
#X msg 948 694 1;
#X floatatom 914 767 5 0 0 0 - - -, f 5;
#X obj 762 814 spigot;
#X floatatom 762 839 5 0 0 0 - - -, f 5;
#X obj 760 787 t f f;
#X floatatom 760 710 5 0 0 0 - - -, f 5;
#X obj 762 736 spigot;
#X msg 796 688 1;
#X floatatom 762 761 5 0 0 0 - - -, f 5;
#X obj 810 788 >;
#X floatatom 810 813 5 0 0 0 - - -, f 5;
#X obj 1137 962 i;
#X text 1149 761 highestVal;
#X text 1164 963 highestIdx;
#X obj 910 826 bng 15 250 50 0 empty empty empty 17 7 0 10 -262144
-1 -1;
#X msg 910 849 1;
#X floatatom 1137 987 5 0 0 0 - - -, f 5;
#X obj 727 815 bng 15 250 50 0 empty empty empty 17 7 0 10 -262144
-1 -1;
#X msg 727 838 2;
#X text 1136 672 reset all variables and spigots;
#X text 934 483 EVALUATE HIGHEST VALUE;
#X obj 1005 1009 bng 15 250 50 0 empty empty empty 17 7 0 10 -262144
-1 -1;
#X obj 1096 1035 tgl 15 0 empty empty empty 17 7 0 10 -262144 -1 -1
0 1;
#X obj 1095 1013 loadbang;
#X obj 1051 1052 spigot;
#X obj 1051 1077 print;
#X obj 989 1156 bng 15 250 50 0 empty empty empty 17 7 0 10 -262144
-1 -1;
#X obj 1006 1155 bng 15 250 50 0 empty empty empty 17 7 0 10 -262144
-1 -1;
#X obj 1024 1155 bng 15 250 50 0 empty empty empty 17 7 0 10 -262144
-1 -1;
#X obj 1064 1157 bng 15 250 50 0 empty empty empty 17 7 0 10 -262144
-1 -1;
#X obj 1045 1157 bng 15 250 50 0 empty empty empty 17 7 0 10 -262144
-1 -1;
#X obj 1082 1157 bng 15 250 50 0 empty empty empty 17 7 0 10 -262144
-1 -1;
#X obj 1102 1158 bng 15 250 50 0 empty empty empty 17 7 0 10 -262144
-1 -1;
#X obj 610 817 spigot;
#X floatatom 610 842 5 0 0 0 - - -, f 5;
#X obj 608 790 t f f;
#X floatatom 608 713 5 0 0 0 - - -, f 5;
#X obj 610 739 spigot;
#X msg 644 691 1;
#X floatatom 610 764 5 0 0 0 - - -, f 5;
#X obj 658 791 >;
#X floatatom 658 816 5 0 0 0 - - -, f 5;
#X obj 575 818 bng 15 250 50 0 empty empty empty 17 7 0 10 -262144
-1 -1;
#X obj 435 815 spigot;
#X floatatom 435 840 5 0 0 0 - - -, f 5;
#X obj 433 788 t f f;
#X floatatom 433 711 5 0 0 0 - - -, f 5;
#X obj 435 737 spigot;
#X msg 469 689 1;
#X floatatom 435 762 5 0 0 0 - - -, f 5;
#X obj 483 789 >;
#X floatatom 483 814 5 0 0 0 - - -, f 5;
#X obj 400 806 bng 15 250 50 0 empty empty empty 17 7 0 10 -262144
-1 -1;
#X msg 575 841 3;
#X msg 400 839 4;
#X obj 489 764 r highestVal;
#X obj 654 765 r highestVal;
#X obj 433 867 s toHighestVal;
#X obj 611 865 s toHighestVal;
#X obj 754 866 s toHighestVal;
#X obj 913 874 s toHighestVal;
#X obj 436 893 s toHighestIdx;
#X obj 609 887 s toHighestIdx;
#X obj 751 886 s toHighestIdx;
#X obj 912 894 s toHighestIdx;
#X obj 978 768 r fromHighestVal;
#X obj 805 760 r fromHighestVal;
#X obj 1162 787 s fromHighestVal;
#X obj 470 714 r resetSpigots;
#X obj 1123 701 s resetSpigots;
#X obj 652 716 r resetSpigots;
#X obj 800 710 r resetSpigots;
#X obj 956 720 r resetSpigots;
#X obj 660 1145 spigot;
#X floatatom 660 1170 5 0 0 0 - - -, f 5;
#X obj 658 1118 t f f;
#X floatatom 658 1041 5 0 0 0 - - -, f 5;
#X obj 660 1067 spigot;
#X msg 694 1019 1;
#X floatatom 660 1092 5 0 0 0 - - -, f 5;
#X obj 708 1119 >;
#X floatatom 708 1144 5 0 0 0 - - -, f 5;
#X obj 625 1136 bng 15 250 50 0 empty empty empty 17 7 0 10 -262144
-1 -1;
#X obj 714 1094 r highestVal;
#X obj 658 1197 s toHighestVal;
#X obj 661 1223 s toHighestIdx;
#X obj 695 1044 r resetSpigots;
#X obj 463 1135 spigot;
#X floatatom 463 1160 5 0 0 0 - - -, f 5;
#X obj 461 1108 t f f;
#X floatatom 461 1031 5 0 0 0 - - -, f 5;
#X obj 463 1057 spigot;
#X msg 497 1009 1;
#X floatatom 463 1082 5 0 0 0 - - -, f 5;
#X obj 511 1109 >;
#X floatatom 511 1134 5 0 0 0 - - -, f 5;
#X obj 428 1126 bng 15 250 50 0 empty empty empty 17 7 0 10 -262144
-1 -1;
#X obj 517 1084 r highestVal;
#X obj 461 1187 s toHighestVal;
#X obj 464 1213 s toHighestIdx;
#X obj 498 1034 r resetSpigots;
#X obj 275 1135 spigot;
#X floatatom 275 1160 5 0 0 0 - - -, f 5;
#X obj 273 1108 t f f;
#X floatatom 273 1031 5 0 0 0 - - -, f 5;
#X obj 275 1057 spigot;
#X msg 309 1009 1;
#X floatatom 275 1082 5 0 0 0 - - -, f 5;
#X obj 323 1109 >;
#X floatatom 323 1134 5 0 0 0 - - -, f 5;
#X obj 240 1126 bng 15 250 50 0 empty empty empty 17 7 0 10 -262144
-1 -1;
#X obj 329 1084 r highestVal;
#X obj 273 1187 s toHighestVal;
#X obj 276 1213 s toHighestIdx;
#X obj 310 1034 r resetSpigots;
#X obj 83 1126 spigot;
#X floatatom 83 1151 5 0 0 0 - - -, f 5;
#X obj 81 1099 t f f;
#X floatatom 81 1022 5 0 0 0 - - -, f 5;
#X obj 83 1048 spigot;
#X msg 117 1000 1;
#X floatatom 83 1073 5 0 0 0 - - -, f 5;
#X obj 131 1100 >;
#X floatatom 131 1125 5 0 0 0 - - -, f 5;
#X obj 48 1117 bng 15 250 50 0 empty empty empty 17 7 0 10 -262144
-1 -1;
#X obj 137 1075 r highestVal;
#X obj 81 1178 s toHighestVal;
#X obj 84 1204 s toHighestIdx;
#X obj 118 1025 r resetSpigots;
#X text 1019 1855 end;
#X msg 625 1170 5;
#X msg 428 1159 6;
#X msg 240 1159 7;
#X msg 48 1150 8;
#X obj 681 1474 spigot;
#X floatatom 681 1499 5 0 0 0 - - -, f 5;
#X obj 679 1447 t f f;
#X floatatom 679 1370 5 0 0 0 - - -, f 5;
#X obj 681 1396 spigot;
#X msg 715 1348 1;
#X floatatom 681 1421 5 0 0 0 - - -, f 5;
#X obj 729 1448 >;
#X floatatom 729 1473 5 0 0 0 - - -, f 5;
#X obj 646 1465 bng 15 250 50 0 empty empty empty 17 7 0 10 -262144
-1 -1;
#X obj 735 1423 r highestVal;
#X obj 679 1526 s toHighestVal;
#X obj 682 1552 s toHighestIdx;
#X obj 716 1373 r resetSpigots;
#X obj 468 1467 spigot;
#X floatatom 468 1492 5 0 0 0 - - -, f 5;
#X obj 466 1440 t f f;
#X floatatom 466 1363 5 0 0 0 - - -, f 5;
#X obj 468 1389 spigot;
#X msg 502 1341 1;
#X floatatom 468 1414 5 0 0 0 - - -, f 5;
#X obj 516 1441 >;
#X floatatom 516 1466 5 0 0 0 - - -, f 5;
#X obj 433 1458 bng 15 250 50 0 empty empty empty 17 7 0 10 -262144
-1 -1;
#X obj 522 1416 r highestVal;
#X obj 466 1519 s toHighestVal;
#X obj 469 1545 s toHighestIdx;
#X obj 503 1366 r resetSpigots;
#X obj 275 1469 spigot;
#X floatatom 275 1494 5 0 0 0 - - -, f 5;
#X obj 273 1442 t f f;
#X floatatom 273 1365 5 0 0 0 - - -, f 5;
#X obj 275 1391 spigot;
#X msg 309 1343 1;
#X floatatom 275 1416 5 0 0 0 - - -, f 5;
#X obj 323 1443 >;
#X floatatom 323 1468 5 0 0 0 - - -, f 5;
#X obj 240 1460 bng 15 250 50 0 empty empty empty 17 7 0 10 -262144
-1 -1;
#X obj 329 1418 r highestVal;
#X obj 273 1521 s toHighestVal;
#X obj 276 1547 s toHighestIdx;
#X obj 310 1368 r resetSpigots;
#X obj 76 1464 spigot;
#X floatatom 76 1489 5 0 0 0 - - -, f 5;
#X obj 74 1437 t f f;
#X floatatom 74 1360 5 0 0 0 - - -, f 5;
#X obj 76 1386 spigot;
#X msg 110 1338 1;
#X floatatom 76 1411 5 0 0 0 - - -, f 5;
#X obj 124 1438 >;
#X floatatom 124 1463 5 0 0 0 - - -, f 5;
#X obj 41 1455 bng 15 250 50 0 empty empty empty 17 7 0 10 -262144
-1 -1;
#X obj 130 1413 r highestVal;
#X obj 74 1516 s toHighestVal;
#X obj 77 1542 s toHighestIdx;
#X obj 111 1363 r resetSpigots;
#X obj 687 1789 spigot;
#X floatatom 687 1814 5 0 0 0 - - -, f 5;
#X obj 685 1762 t f f;
#X floatatom 685 1685 5 0 0 0 - - -, f 5;
#X obj 687 1711 spigot;
#X msg 721 1663 1;
#X floatatom 687 1736 5 0 0 0 - - -, f 5;
#X obj 735 1763 >;
#X floatatom 735 1788 5 0 0 0 - - -, f 5;
#X obj 652 1780 bng 15 250 50 0 empty empty empty 17 7 0 10 -262144
-1 -1;
#X obj 741 1738 r highestVal;
#X obj 685 1841 s toHighestVal;
#X obj 688 1867 s toHighestIdx;
#X obj 722 1688 r resetSpigots;
#X obj 450 1790 spigot;
#X floatatom 450 1815 5 0 0 0 - - -, f 5;
#X obj 448 1763 t f f;
#X floatatom 448 1686 5 0 0 0 - - -, f 5;
#X obj 450 1712 spigot;
#X msg 484 1664 1;
#X floatatom 450 1737 5 0 0 0 - - -, f 5;
#X obj 498 1764 >;
#X floatatom 498 1789 5 0 0 0 - - -, f 5;
#X obj 415 1781 bng 15 250 50 0 empty empty empty 17 7 0 10 -262144
-1 -1;
#X obj 504 1739 r highestVal;
#X obj 448 1842 s toHighestVal;
#X obj 451 1868 s toHighestIdx;
#X obj 485 1689 r resetSpigots;
#X obj 260 1785 spigot;
#X floatatom 260 1810 5 0 0 0 - - -, f 5;
#X obj 258 1758 t f f;
#X floatatom 258 1681 5 0 0 0 - - -, f 5;
#X obj 260 1707 spigot;
#X msg 294 1659 1;
#X floatatom 260 1732 5 0 0 0 - - -, f 5;
#X obj 308 1759 >;
#X floatatom 308 1784 5 0 0 0 - - -, f 5;
#X obj 225 1776 bng 15 250 50 0 empty empty empty 17 7 0 10 -262144
-1 -1;
#X obj 314 1734 r highestVal;
#X obj 258 1837 s toHighestVal;
#X obj 261 1863 s toHighestIdx;
#X obj 295 1684 r resetSpigots;
#X obj 65 1781 spigot;
#X floatatom 65 1806 5 0 0 0 - - -, f 5;
#X obj 63 1754 t f f;
#X floatatom 63 1677 5 0 0 0 - - -, f 5;
#X obj 65 1703 spigot;
#X msg 99 1655 1;
#X floatatom 65 1728 5 0 0 0 - - -, f 5;
#X obj 113 1755 >;
#X floatatom 113 1780 5 0 0 0 - - -, f 5;
#X obj 30 1772 bng 15 250 50 0 empty empty empty 17 7 0 10 -262144
-1 -1;
#X obj 119 1730 r highestVal;
#X obj 63 1833 s toHighestVal;
#X obj 66 1859 s toHighestIdx;
#X obj 100 1680 r resetSpigots;
#X msg 646 1498 9;
#X msg 433 1491 10;
#X msg 240 1493 11;
#X msg 39 1489 12;
#X msg 651 1814 13;
#X msg 415 1814 14;
#X msg 225 1809 15;
#X msg 31 1805 16;
#X obj 824 516 t b b b b b b b b b b b b b b b b b;
#X text 651 410 ACHTUNG: FUNKTIONIERT BISLANG NUR MIT EINEM SONG!!
ANSONSTEN SIND UNQIE VARIABLE NAMES BENÖTIGT;
#X obj 1159 929 r toHighestIdx;
#X obj 1153 735 r toHighestVal;
#X obj 1005 984 delay 600;
#X connect 8 0 9 0;
#X connect 9 0 27 0;
#X connect 10 0 8 0;
#X connect 10 0 34 0;
#X connect 11 0 82 0;
#X connect 11 0 86 0;
#X connect 11 0 74 0;
#X connect 11 0 88 0;
#X connect 13 0 88 0;
#X connect 15 0 10 2;
#X connect 16 0 10 0;
#X connect 19 0 18 0;
#X connect 19 0 14 0;
#X connect 20 0 24 1;
#X connect 21 0 23 0;
#X connect 21 0 26 0;
#X connect 21 0 27 1;
#X connect 21 0 33 0;
#X connect 22 0 74 0;
#X connect 22 0 86 0;
#X connect 23 0 24 0;
#X connect 24 0 25 0;
#X connect 25 0 28 0;
#X connect 27 0 20 0;
#X connect 28 0 21 1;
#X connect 30 0 21 0;
#X connect 30 0 27 0;
#X connect 32 0 21 0;
#X connect 33 0 34 1;
#X connect 33 0 35 0;
#X connect 42 0 43 0;
#X connect 43 0 12 0;
#X connect 43 1 111 0;
#X connect 44 0 45 0;
#X connect 45 0 12 0;
#X connect 45 1 150 0;
#X connect 46 0 47 0;
#X connect 47 0 12 0;
#X connect 47 1 160 0;
#X connect 48 0 49 0;
#X connect 49 0 12 0;
#X connect 49 1 119 0;
#X connect 50 0 54 0;
#X connect 51 0 56 0;
#X connect 52 0 57 0;
#X connect 53 0 55 0;
#X connect 54 0 12 0;
#X connect 54 1 190 0;
#X connect 55 0 12 0;
#X connect 55 1 204 0;
#X connect 56 0 12 0;
#X connect 56 1 218 0;
#X connect 57 0 12 0;
#X connect 57 1 232 0;
#X connect 58 0 62 0;
#X connect 59 0 64 0;
#X connect 60 0 65 0;
#X connect 61 0 63 0;
#X connect 62 0 12 0;
#X connect 62 1 251 0;
#X connect 63 0 12 0;
#X connect 63 1 265 0;
#X connect 64 0 12 0;
#X connect 64 1 279 0;
#X connect 65 0 12 0;
#X connect 65 1 293 0;
#X connect 66 0 70 0;
#X connect 67 0 72 0;
#X connect 68 0 73 0;
#X connect 69 0 71 0;
#X connect 70 0 12 0;
#X connect 70 1 307 0;
#X connect 71 0 12 0;
#X connect 71 1 321 0;
#X connect 72 0 12 0;
#X connect 72 1 335 0;
#X connect 73 0 12 0;
#X connect 73 1 349 0;
#X connect 74 0 31 0;
#X connect 75 0 76 0;
#X connect 75 0 77 0;
#X connect 76 0 75 1;
#X connect 77 0 19 0;
#X connect 78 0 85 0;
#X connect 79 0 80 0;
#X connect 79 0 78 0;
#X connect 80 0 75 0;
#X connect 82 0 17 0;
#X connect 82 1 17 0;
#X connect 83 0 74 0;
#X connect 83 0 80 0;
#X connect 85 0 75 0;
#X connect 86 0 87 0;
#X connect 88 0 29 0;
#X connect 88 0 36 0;
#X connect 90 0 92 0;
#X connect 90 1 93 0;
#X connect 90 2 94 0;
#X connect 90 3 95 0;
#X connect 90 4 96 0;
#X connect 90 5 97 0;
#X connect 90 6 98 0;
#X connect 90 7 99 0;
#X connect 90 8 100 0;
#X connect 90 9 140 0;
#X connect 90 10 141 0;
#X connect 90 11 142 0;
#X connect 90 12 144 0;
#X connect 90 13 143 0;
#X connect 90 14 145 0;
#X connect 90 15 146 0;
#X connect 90 16 91 0;
#X connect 101 0 102 1;
#X connect 101 0 107 0;
#X connect 102 0 106 0;
#X connect 102 0 128 0;
#X connect 102 0 174 0;
#X connect 103 0 104 0;
#X connect 103 0 125 0;
#X connect 103 0 136 0;
#X connect 103 0 372 0;
#X connect 104 0 112 0;
#X connect 104 0 183 0;
#X connect 108 0 102 0;
#X connect 108 1 101 0;
#X connect 109 0 110 0;
#X connect 110 0 368 0;
#X connect 110 1 103 0;
#X connect 111 0 113 0;
#X connect 112 0 105 0;
#X connect 112 0 181 0;
#X connect 113 0 115 0;
#X connect 114 0 113 1;
#X connect 115 0 108 0;
#X connect 116 0 117 0;
#X connect 116 0 131 0;
#X connect 116 0 173 0;
#X connect 118 0 116 0;
#X connect 118 1 123 0;
#X connect 119 0 120 0;
#X connect 120 0 122 0;
#X connect 121 0 120 1;
#X connect 122 0 118 0;
#X connect 123 0 124 0;
#X connect 123 0 116 1;
#X connect 125 0 130 0;
#X connect 128 0 129 0;
#X connect 129 0 178 0;
#X connect 130 0 138 0;
#X connect 131 0 132 0;
#X connect 132 0 177 0;
#X connect 135 0 125 0;
#X connect 135 0 136 0;
#X connect 136 0 138 1;
#X connect 137 0 136 0;
#X connect 138 0 139 0;
#X connect 138 0 90 0;
#X connect 147 0 148 0;
#X connect 147 0 156 0;
#X connect 147 0 172 0;
#X connect 149 0 147 0;
#X connect 149 1 154 0;
#X connect 150 0 151 0;
#X connect 151 0 153 0;
#X connect 152 0 151 1;
#X connect 153 0 149 0;
#X connect 154 0 155 0;
#X connect 154 0 147 1;
#X connect 156 0 167 0;
#X connect 157 0 158 0;
#X connect 157 0 166 0;
#X connect 157 0 171 0;
#X connect 159 0 157 0;
#X connect 159 1 164 0;
#X connect 160 0 161 0;
#X connect 161 0 163 0;
#X connect 162 0 161 1;
#X connect 163 0 159 0;
#X connect 164 0 165 0;
#X connect 164 0 157 1;
#X connect 166 0 168 0;
#X connect 167 0 176 0;
#X connect 168 0 175 0;
#X connect 169 0 164 1;
#X connect 170 0 154 1;
#X connect 179 0 101 1;
#X connect 180 0 123 1;
#X connect 182 0 161 1;
#X connect 184 0 151 1;
#X connect 185 0 120 1;
#X connect 186 0 113 1;
#X connect 187 0 188 0;
#X connect 187 0 196 0;
#X connect 187 0 198 0;
#X connect 189 0 187 0;
#X connect 189 1 194 0;
#X connect 190 0 191 0;
#X connect 191 0 193 0;
#X connect 192 0 191 1;
#X connect 193 0 189 0;
#X connect 194 0 195 0;
#X connect 194 0 187 1;
#X connect 196 0 244 0;
#X connect 197 0 194 1;
#X connect 200 0 191 1;
#X connect 201 0 202 0;
#X connect 201 0 210 0;
#X connect 201 0 212 0;
#X connect 203 0 201 0;
#X connect 203 1 208 0;
#X connect 204 0 205 0;
#X connect 205 0 207 0;
#X connect 206 0 205 1;
#X connect 207 0 203 0;
#X connect 208 0 209 0;
#X connect 208 0 201 1;
#X connect 210 0 245 0;
#X connect 211 0 208 1;
#X connect 214 0 205 1;
#X connect 215 0 216 0;
#X connect 215 0 224 0;
#X connect 215 0 226 0;
#X connect 217 0 215 0;
#X connect 217 1 222 0;
#X connect 218 0 219 0;
#X connect 219 0 221 0;
#X connect 220 0 219 1;
#X connect 221 0 217 0;
#X connect 222 0 223 0;
#X connect 222 0 215 1;
#X connect 224 0 246 0;
#X connect 225 0 222 1;
#X connect 228 0 219 1;
#X connect 229 0 230 0;
#X connect 229 0 238 0;
#X connect 229 0 240 0;
#X connect 231 0 229 0;
#X connect 231 1 236 0;
#X connect 232 0 233 0;
#X connect 233 0 235 0;
#X connect 234 0 233 1;
#X connect 235 0 231 0;
#X connect 236 0 237 0;
#X connect 236 0 229 1;
#X connect 238 0 247 0;
#X connect 239 0 236 1;
#X connect 242 0 233 1;
#X connect 244 0 199 0;
#X connect 245 0 213 0;
#X connect 246 0 227 0;
#X connect 247 0 241 0;
#X connect 248 0 249 0;
#X connect 248 0 257 0;
#X connect 248 0 259 0;
#X connect 250 0 248 0;
#X connect 250 1 255 0;
#X connect 251 0 252 0;
#X connect 252 0 254 0;
#X connect 253 0 252 1;
#X connect 254 0 250 0;
#X connect 255 0 256 0;
#X connect 255 0 248 1;
#X connect 257 0 360 0;
#X connect 258 0 255 1;
#X connect 261 0 252 1;
#X connect 262 0 263 0;
#X connect 262 0 271 0;
#X connect 262 0 273 0;
#X connect 264 0 262 0;
#X connect 264 1 269 0;
#X connect 265 0 266 0;
#X connect 266 0 268 0;
#X connect 267 0 266 1;
#X connect 268 0 264 0;
#X connect 269 0 270 0;
#X connect 269 0 262 1;
#X connect 271 0 361 0;
#X connect 272 0 269 1;
#X connect 275 0 266 1;
#X connect 276 0 277 0;
#X connect 276 0 285 0;
#X connect 276 0 287 0;
#X connect 278 0 276 0;
#X connect 278 1 283 0;
#X connect 279 0 280 0;
#X connect 280 0 282 0;
#X connect 281 0 280 1;
#X connect 282 0 278 0;
#X connect 283 0 284 0;
#X connect 283 0 276 1;
#X connect 285 0 362 0;
#X connect 286 0 283 1;
#X connect 289 0 280 1;
#X connect 290 0 291 0;
#X connect 290 0 299 0;
#X connect 290 0 301 0;
#X connect 292 0 290 0;
#X connect 292 1 297 0;
#X connect 293 0 294 0;
#X connect 294 0 296 0;
#X connect 295 0 294 1;
#X connect 296 0 292 0;
#X connect 297 0 298 0;
#X connect 297 0 290 1;
#X connect 299 0 363 0;
#X connect 300 0 297 1;
#X connect 303 0 294 1;
#X connect 304 0 305 0;
#X connect 304 0 313 0;
#X connect 304 0 315 0;
#X connect 306 0 304 0;
#X connect 306 1 311 0;
#X connect 307 0 308 0;
#X connect 308 0 310 0;
#X connect 309 0 308 1;
#X connect 310 0 306 0;
#X connect 311 0 312 0;
#X connect 311 0 304 1;
#X connect 313 0 364 0;
#X connect 314 0 311 1;
#X connect 317 0 308 1;
#X connect 318 0 319 0;
#X connect 318 0 327 0;
#X connect 318 0 329 0;
#X connect 320 0 318 0;
#X connect 320 1 325 0;
#X connect 321 0 322 0;
#X connect 322 0 324 0;
#X connect 323 0 322 1;
#X connect 324 0 320 0;
#X connect 325 0 326 0;
#X connect 325 0 318 1;
#X connect 327 0 365 0;
#X connect 328 0 325 1;
#X connect 331 0 322 1;
#X connect 332 0 333 0;
#X connect 332 0 341 0;
#X connect 332 0 343 0;
#X connect 334 0 332 0;
#X connect 334 1 339 0;
#X connect 335 0 336 0;
#X connect 336 0 338 0;
#X connect 337 0 336 1;
#X connect 338 0 334 0;
#X connect 339 0 340 0;
#X connect 339 0 332 1;
#X connect 341 0 366 0;
#X connect 342 0 339 1;
#X connect 345 0 336 1;
#X connect 346 0 347 0;
#X connect 346 0 355 0;
#X connect 346 0 357 0;
#X connect 348 0 346 0;
#X connect 348 1 353 0;
#X connect 349 0 350 0;
#X connect 350 0 352 0;
#X connect 351 0 350 1;
#X connect 352 0 348 0;
#X connect 353 0 354 0;
#X connect 353 0 346 1;
#X connect 355 0 367 0;
#X connect 356 0 353 1;
#X connect 359 0 350 1;
#X connect 360 0 260 0;
#X connect 361 0 274 0;
#X connect 362 0 288 0;
#X connect 363 0 302 0;
#X connect 364 0 316 0;
#X connect 365 0 330 0;
#X connect 366 0 344 0;
#X connect 367 0 358 0;
#X connect 368 0 121 0;
#X connect 368 1 114 0;
#X connect 368 2 152 0;
#X connect 368 3 162 0;
#X connect 368 4 192 0;
#X connect 368 5 206 0;
#X connect 368 6 220 0;
#X connect 368 7 234 0;
#X connect 368 8 253 0;
#X connect 368 9 267 0;
#X connect 368 10 281 0;
#X connect 368 11 295 0;
#X connect 368 12 309 0;
#X connect 368 13 323 0;
#X connect 368 14 337 0;
#X connect 368 15 351 0;
#X connect 370 0 125 1;
#X connect 371 0 112 0;
#X connect 372 0 135 0;
