#N canvas 403 29 1033 848 10;
#X obj 440 190 snapshot~;
#X floatatom 440 210 5 0 0 0 - - -, f 5;
#X text 479 169 amp number;
#X obj 384 794 outlet~;
#X obj 443 794 outlet~;
#X obj 267 383 inlet~;
#X obj 309 383 inlet~;
#X text 439 146 GATE;
#X text 267 356 SIGNAL PATH;
#X obj 273 453 *~;
#X obj 321 450 *~;
#X text 504 352 NOISE CREATION;
#X obj 706 588 *~;
#X obj 495 211 outlet;
#X text 539 212 to slider;
#X obj 617 281 r stop;
#X msg 617 306 \$1 1000;
#X obj 617 331 line;
#X obj 714 507 osc~;
#X obj 504 380 expr 1 - $f1;
#X floatatom 504 405 5 0 0 0 - - -, f 5;
#X obj 601 587 *~;
#X obj 601 484 noise~;
#X floatatom 635 514 5 0 0 0 - - -, f 5;
#X obj 712 452 f \$3;
#X obj 712 477 * 4;
#X obj 712 424 loadbang;
#X obj 504 454 line;
#X floatatom 504 479 5 0 0 0 - - -, f 5;
#X msg 504 429 \$1 1000;
#X obj 779 461 bng 15 250 50 0 empty empty empty 17 7 0 10 -262144
-1 -1;
#X obj 722 544 / 3;
#X text 730 607 magnitude sine;
#X text 600 457 NOISE;
#X text 711 398 SINE;
#X obj 440 170 r~ \$1;
#X text 20 9 \$1 = amp number \$2 = phasor frequency;
#X obj 618 546 bp~ \$2 2;
#X connect 0 0 1 0;
#X connect 1 0 19 0;
#X connect 1 0 13 0;
#X connect 1 0 10 1;
#X connect 1 0 9 1;
#X connect 5 0 9 0;
#X connect 6 0 10 0;
#X connect 9 0 3 0;
#X connect 10 0 4 0;
#X connect 12 0 3 0;
#X connect 12 0 4 0;
#X connect 15 0 16 0;
#X connect 16 0 17 0;
#X connect 17 0 21 1;
#X connect 17 0 12 1;
#X connect 18 0 12 0;
#X connect 19 0 20 0;
#X connect 20 0 29 0;
#X connect 21 0 3 0;
#X connect 21 0 4 0;
#X connect 22 0 37 0;
#X connect 23 0 37 1;
#X connect 24 0 25 0;
#X connect 24 0 18 0;
#X connect 25 0 23 0;
#X connect 26 0 24 0;
#X connect 27 0 21 1;
#X connect 27 0 28 0;
#X connect 28 0 31 0;
#X connect 29 0 27 0;
#X connect 30 0 24 0;
#X connect 31 0 12 1;
#X connect 35 0 0 0;
#X connect 37 0 21 0;
