#N canvas 1474 472 450 300 10;
#X obj 92 83 osc~;
#X obj 99 126 *~;
#X obj 167 81 vsl 15 128 0 1 0 0 empty empty empty 0 -9 0 10 -262144
-1 -1 6250 1;
#X floatatom 167 222 5 0 0 0 - - -, f 5;
#X floatatom 96 17 5 0 0 0 - - -, f 5;
#X obj 155 272 dac~ 1 2;
#X obj 267 66 noise~;
#X obj 267 128 bp~;
#X floatatom 345 86 5 0 0 0 - - -, f 5;
#X floatatom 392 86 5 0 0 0 - - -, f 5;
#X msg 329 52 600;
#X obj 267 153 *~;
#X obj 225 78 * 4;
#X connect 0 0 1 0;
#X connect 1 0 5 0;
#X connect 2 0 3 0;
#X connect 2 0 1 1;
#X connect 2 0 11 1;
#X connect 4 0 0 0;
#X connect 4 0 12 0;
#X connect 6 0 7 0;
#X connect 7 0 11 0;
#X connect 8 0 7 1;
#X connect 9 0 7 2;
#X connect 10 0 7 1;
#X connect 11 0 5 1;
#X connect 12 0 7 1;
