#N canvas 240 169 635 704 10;
#X obj 148 516 i;
#X obj 218 505 + 1;
#X msg 15 489 0;
#X floatatom 148 541 5 0 0 0 - - -, f 5;
#X obj 148 595 tgl 15 0 empty empty empty 17 7 0 10 -262144 -1 -1 1
1;
#X obj 51 559 realtime;
#X floatatom 51 584 9 0 0 0 - - -, f 9;
#X obj 123 598 bng 15 250 50 0 empty empty empty 17 7 0 10 -262144
-1 -1;
#X obj 164 153 s start01;
#X obj 160 207 s start02;
#X obj 162 257 s start03;
#X obj 162 305 s start04;
#X obj 160 355 s start05;
#X obj 166 403 s start06;
#X obj 312 155 s start07;
#X obj 311 206 s start08;
#X obj 312 256 s start09;
#X obj 313 308 s start10;
#X obj 313 356 s start11;
#X obj 314 407 s start12;
#X obj 463 156 s start13;
#X obj 463 204 s start14;
#X obj 465 256 s start15;
#X obj 463 305 s start16;
#X obj 123 68 inlet;
#X text 164 68 starts with a bang;
#X obj 122 131 intro_perChannel;
#X obj 122 181 intro_perChannel;
#X obj 122 231 intro_perChannel;
#X obj 122 281 intro_perChannel;
#X obj 122 331 intro_perChannel;
#X obj 122 381 intro_perChannel;
#X obj 272 131 intro_perChannel;
#X obj 272 181 intro_perChannel;
#X obj 272 231 intro_perChannel;
#X obj 272 281 intro_perChannel;
#X obj 272 331 intro_perChannel;
#X obj 272 381 intro_perChannel;
#X obj 422 131 intro_perChannel;
#X obj 422 181 intro_perChannel;
#X obj 422 231 intro_perChannel;
#X obj 422 281 intro_perChannel;
#X obj 123 93 bng 15 250 50 0 empty empty empty 17 7 0 10 -262144 -1
-1;
#X obj 92 131 tgl 15 0 empty empty empty 17 7 0 10 -262144 -1 -1 1
1;
#X obj 92 161 tgl 15 0 empty empty empty 17 7 0 10 -262144 -1 -1 1
1;
#X obj 92 191 tgl 15 0 empty empty empty 17 7 0 10 -262144 -1 -1 1
1;
#X obj 92 221 tgl 15 0 empty empty empty 17 7 0 10 -262144 -1 -1 1
1;
#X obj 92 251 tgl 15 0 empty empty empty 17 7 0 10 -262144 -1 -1 1
1;
#X obj 92 281 tgl 15 0 empty empty empty 17 7 0 10 -262144 -1 -1 1
1;
#X obj 252 131 tgl 15 0 empty empty empty 17 7 0 10 -262144 -1 -1 1
1;
#X obj 252 161 tgl 15 0 empty empty empty 17 7 0 10 -262144 -1 -1 1
1;
#X obj 252 191 tgl 15 0 empty empty empty 17 7 0 10 -262144 -1 -1 1
1;
#X obj 252 221 tgl 15 0 empty empty empty 17 7 0 10 -262144 -1 -1 1
1;
#X obj 252 251 tgl 15 0 empty empty empty 17 7 0 10 -262144 -1 -1 1
1;
#X obj 252 281 tgl 15 0 empty empty empty 17 7 0 10 -262144 -1 -1 1
1;
#X obj 402 131 tgl 15 0 empty empty empty 17 7 0 10 -262144 -1 -1 1
1;
#X obj 402 161 tgl 15 0 empty empty empty 17 7 0 10 -262144 -1 -1 1
1;
#X obj 402 191 tgl 15 0 empty empty empty 17 7 0 10 -262144 -1 -1 1
1;
#X obj 402 221 tgl 15 0 empty empty empty 17 7 0 10 -262144 -1 -1 1
1;
#X obj 148 565 == 16;
#X obj 244 665 s killAllNoise;
#X obj 183 640 spigot;
#X obj 183 665 bng 15 250 50 0 empty empty empty 17 7 0 10 -262144
-1 -1;
#X text 2 6 THE INTRO PATCH STARTS ONE TRACK AFTER ANOTHER;
#X text 2 31 FIRST WITH NOISE \, THEN SINGLE TRANSITIONS TO SONG;
#X obj 245 610 delay 20000;
#X msg 245 635 0;
#X text 341 667 kills all introductory noise;
#X obj 403 494 outlet~;
#X obj 183 688 print intro noise killed;
#X connect 0 0 3 0;
#X connect 0 0 1 0;
#X connect 1 0 0 1;
#X connect 2 0 0 0;
#X connect 3 0 59 0;
#X connect 4 0 61 1;
#X connect 5 0 6 0;
#X connect 7 0 5 1;
#X connect 7 0 61 0;
#X connect 24 0 42 0;
#X connect 26 0 0 0;
#X connect 26 0 43 0;
#X connect 26 0 27 0;
#X connect 26 1 68 0;
#X connect 26 2 8 0;
#X connect 27 0 28 0;
#X connect 27 0 0 0;
#X connect 27 0 44 0;
#X connect 27 1 68 0;
#X connect 27 2 9 0;
#X connect 28 0 29 0;
#X connect 28 0 0 0;
#X connect 28 0 45 0;
#X connect 28 1 68 0;
#X connect 28 2 10 0;
#X connect 29 0 30 0;
#X connect 29 0 0 0;
#X connect 29 0 46 0;
#X connect 29 1 68 0;
#X connect 29 2 11 0;
#X connect 30 0 31 0;
#X connect 30 0 0 0;
#X connect 30 0 47 0;
#X connect 30 1 68 0;
#X connect 30 2 12 0;
#X connect 31 0 32 0;
#X connect 31 0 0 0;
#X connect 31 0 48 0;
#X connect 31 1 68 0;
#X connect 31 2 13 0;
#X connect 32 0 33 0;
#X connect 32 0 0 0;
#X connect 32 0 49 0;
#X connect 32 1 68 0;
#X connect 32 2 14 0;
#X connect 33 0 34 0;
#X connect 33 0 0 0;
#X connect 33 0 50 0;
#X connect 33 1 68 0;
#X connect 33 2 15 0;
#X connect 34 0 35 0;
#X connect 34 0 0 0;
#X connect 34 0 51 0;
#X connect 34 1 68 0;
#X connect 34 2 16 0;
#X connect 35 0 36 0;
#X connect 35 0 0 0;
#X connect 35 0 52 0;
#X connect 35 1 68 0;
#X connect 35 2 17 0;
#X connect 36 0 37 0;
#X connect 36 0 0 0;
#X connect 36 0 53 0;
#X connect 36 1 68 0;
#X connect 36 2 18 0;
#X connect 37 0 38 0;
#X connect 37 0 0 0;
#X connect 37 0 54 0;
#X connect 37 1 68 0;
#X connect 37 2 19 0;
#X connect 38 0 39 0;
#X connect 38 0 0 0;
#X connect 38 0 55 0;
#X connect 38 1 68 0;
#X connect 38 2 20 0;
#X connect 39 0 40 0;
#X connect 39 0 0 0;
#X connect 39 0 56 0;
#X connect 39 1 68 0;
#X connect 39 2 21 0;
#X connect 40 0 41 0;
#X connect 40 0 0 0;
#X connect 40 0 57 0;
#X connect 40 1 68 0;
#X connect 40 2 22 0;
#X connect 41 0 0 0;
#X connect 41 0 58 0;
#X connect 41 1 68 0;
#X connect 41 2 23 0;
#X connect 42 0 5 0;
#X connect 42 0 2 0;
#X connect 42 0 26 0;
#X connect 59 0 4 0;
#X connect 59 0 7 0;
#X connect 61 0 62 0;
#X connect 62 0 65 0;
#X connect 62 0 69 0;
#X connect 65 0 66 0;
#X connect 66 0 60 0;
