#N canvas 407 125 1033 777 10;
#X obj 440 190 snapshot~;
#X obj 130 136 metro 1000;
#X floatatom 440 210 5 0 0 0 - - -, f 5;
#X text 479 169 amp number;
#X obj 372 716 outlet~;
#X obj 431 716 outlet~;
#X obj 63 455 inlet~;
#X obj 105 455 inlet~;
#X obj 145 65 inlet;
#X obj 272 264 spigot;
#X obj 247 319 line;
#X obj 440 233 > 0.95;
#X floatatom 441 293 5 0 0 0 - - -, f 5;
#X floatatom 217 212 5 0 0 0 - - -, f 5;
#X floatatom 445 260 5 0 0 0 - - -, f 5;
#X obj 219 233 -;
#X floatatom 248 350 5 0 0 0 - - -, f 5;
#X obj 147 99 delay 50;
#X floatatom 46 193 5 0 0 0 - - -, f 5;
#X floatatom 219 254 5 0 0 0 - - -, f 5;
#X floatatom 279 229 5 0 0 0 - - -, f 5;
#X text 103 66 bang;
#X text 439 146 GATE;
#X text 63 428 SIGNAL PATH;
#X obj 440 170 r~ \$2;
#X floatatom 398 522 5 0 0 0 - - -, f 5;
#X obj 398 497 expr 1 - $f1;
#X obj 218 163 f \$1;
#X obj 217 192 f;
#X obj 69 525 *~;
#X obj 117 522 *~;
#X obj 382 608 min 0.2;
#X floatatom 374 634 5 0 0 0 - - -, f 5;
#X msg 427 581 0.2;
#X text 434 606 max noise vol;
#X text 664 348 NOISE CREATION;
#X msg 264 293 \$1 5000;
#X text 433 546 noise magnitude;
#X msg 46 212 \$1 4000;
#X obj 866 584 *~;
#X obj 46 173 f \$1;
#X obj 253 373 outlet;
#X msg 381 445 \$1 3000;
#X obj 381 470 line;
#X floatatom 357 498 5 0 0 0 - - -, f 5;
#X text 298 374 to slider;
#X text 6 149 init vol parts;
#X text 271 186 erosion magnitude per step;
#X obj 279 207 * 0.015;
#X text 143 42 start;
#X obj 777 277 r stop;
#X msg 777 302 \$1 1000;
#X obj 777 327 line;
#X obj 398 547 / 10;
#X obj 874 503 osc~;
#X obj 664 376 expr 1 - $f1;
#X floatatom 664 401 5 0 0 0 - - -, f 5;
#X obj 761 583 *~;
#X obj 761 480 noise~;
#X floatatom 795 510 5 0 0 0 - - -, f 5;
#X obj 872 420 loadbang;
#X obj 664 450 line;
#X floatatom 664 475 5 0 0 0 - - -, f 5;
#X msg 664 425 \$1 1000;
#X obj 939 457 bng 15 250 50 0 empty empty empty 17 7 0 10 -262144
-1 -1;
#X obj 882 540 / 3;
#X text 890 603 magnitude sine;
#X text 383 415 TODO: EROSION;
#X text 760 453 NOISE;
#X text 871 394 SINE;
#X obj 872 473 * 30;
#X obj 872 448 random 15;
#X obj 778 542 bp~ 0 2;
#X text 20 9 \$1 = Startwert (songMix) \$2 = amp number;
#X connect 0 0 2 0;
#X connect 1 0 0 0;
#X connect 1 0 28 0;
#X connect 2 0 11 0;
#X connect 2 0 55 0;
#X connect 6 0 29 0;
#X connect 7 0 30 0;
#X connect 8 0 17 0;
#X connect 8 0 40 0;
#X connect 9 0 12 0;
#X connect 9 0 36 0;
#X connect 10 0 16 0;
#X connect 10 0 28 1;
#X connect 10 0 42 0;
#X connect 11 0 9 1;
#X connect 11 0 14 0;
#X connect 13 0 15 0;
#X connect 15 0 9 0;
#X connect 15 0 19 0;
#X connect 16 0 29 1;
#X connect 16 0 30 1;
#X connect 16 0 41 0;
#X connect 17 0 1 0;
#X connect 17 0 27 0;
#X connect 18 0 38 0;
#X connect 24 0 0 0;
#X connect 25 0 53 0;
#X connect 26 0 25 0;
#X connect 27 0 28 0;
#X connect 28 0 13 0;
#X connect 28 0 48 0;
#X connect 29 0 4 0;
#X connect 30 0 5 0;
#X connect 31 0 32 0;
#X connect 33 0 31 1;
#X connect 36 0 10 0;
#X connect 38 0 10 0;
#X connect 39 0 4 0;
#X connect 39 0 5 0;
#X connect 40 0 18 0;
#X connect 42 0 43 0;
#X connect 43 0 44 0;
#X connect 43 0 26 0;
#X connect 48 0 20 0;
#X connect 48 0 15 1;
#X connect 50 0 51 0;
#X connect 50 0 9 1;
#X connect 50 0 1 0;
#X connect 51 0 52 0;
#X connect 52 0 57 1;
#X connect 52 0 39 1;
#X connect 53 0 31 0;
#X connect 54 0 39 0;
#X connect 55 0 56 0;
#X connect 56 0 63 0;
#X connect 57 0 4 0;
#X connect 57 0 5 0;
#X connect 58 0 72 0;
#X connect 59 0 72 1;
#X connect 60 0 71 0;
#X connect 61 0 57 1;
#X connect 61 0 62 0;
#X connect 62 0 65 0;
#X connect 63 0 61 0;
#X connect 64 0 71 0;
#X connect 65 0 39 1;
#X connect 70 0 59 0;
#X connect 71 0 54 0;
#X connect 71 0 70 0;
#X connect 72 0 57 0;
