#N canvas 1180 489 468 434 10;
#X obj 261 -182 inlet~;
#X obj 274 -128 env~;
#X floatatom 274 -103 5 0 0 0 - - -, f 5;
#X obj 317 -179 r Q;
#X floatatom 200 -55 5 0 0 0 - - -, f 5;
#X obj 178 -105 i;
#X obj 166 -57 - 1;
#X obj 167 -29 spigot;
#X floatatom 167 -3 5 0 0 0 - - -, f 5;
#X floatatom 158 -80 5 0 0 0 - - -, f 5;
#X obj 213 -104 >;
#X obj 168 20 max 0;
#X obj 104 -143 r m1300;
#X obj 92 -164 r gThresh;
#X obj 86 -37 / 100;
#X obj 119 56 *~;
#X floatatom 86 -13 5 0 0 0 - - -, f 5;
#X text 264 -209 signal path;
#X text 175 -136 threshold;
#X text 72 -68 amplitude;
#X text 69 55 output;
#X obj 274 -153 bp~ \$1 100;
#X obj 119 81 outlet~;
#X text 1 -244 erodes signal at \$1 hertz;
#X text 1 -219 v. 1 \, 0 - 2020-01-29;
#X text 1 -269 BANDPASS EROSION SUBPATCH;
#X text 101 -187 init;
#X connect 0 0 21 0;
#X connect 1 0 2 0;
#X connect 2 0 10 0;
#X connect 3 0 21 2;
#X connect 4 0 7 1;
#X connect 5 0 6 0;
#X connect 5 0 9 0;
#X connect 5 0 10 1;
#X connect 5 0 14 0;
#X connect 6 0 7 0;
#X connect 7 0 8 0;
#X connect 8 0 11 0;
#X connect 10 0 4 0;
#X connect 11 0 5 1;
#X connect 12 0 5 0;
#X connect 12 0 10 0;
#X connect 13 0 5 0;
#X connect 14 0 15 1;
#X connect 14 0 16 0;
#X connect 15 0 22 0;
#X connect 21 0 1 0;
#X connect 21 0 15 0;
