#N canvas 645 26 956 998 10;
#X obj 19 435 env~;
#X obj 19 466 - 100;
#X obj 19 486 outlet;
#X obj 166 760 *~;
#X obj 21 554 r play;
#X msg 21 579 1;
#X obj 75 548 r stop;
#X obj 196 760 *~;
#X floatatom 77 646 13 0 0 0 - - -;
#X msg 77 596 0 5000;
#X obj 75 573 bng 15 250 50 0 empty empty empty 17 7 0 10 -262144 -1
-1;
#X obj 77 621 line;
#X obj 11 532 loadbang;
#X obj 527 51 r~ noiseIntro01;
#X obj 527 71 r~ noiseIntro02;
#X obj 527 91 r~ noiseIntro03;
#X obj 527 111 r~ noiseIntro04;
#X obj 527 131 r~ noiseIntro05;
#X obj 527 151 r~ noiseIntro06;
#X obj 527 171 r~ noiseIntro07;
#X obj 527 191 r~ noiseIntro08;
#X obj 527 211 r~ noiseIntro09;
#X obj 527 251 r~ noiseIntro11;
#X obj 527 271 r~ noiseIntro12;
#X obj 527 291 r~ noiseIntro13;
#X obj 526 311 r~ noiseIntro14;
#X obj 527 331 r~ noiseIntro15;
#X obj 527 354 r~ noiseIntro16;
#X obj 527 377 r~ noiseIntro17;
#X obj 527 401 r~ noiseIntro18;
#X obj 527 230 r~ noiseIntro10;
#X obj 226 760 *~;
#X obj 256 761 *~;
#X obj 286 760 *~;
#X obj 316 760 *~;
#X obj 346 760 *~;
#X obj 376 760 *~;
#X obj 406 760 *~;
#X obj 436 760 *~;
#X obj 466 760 *~;
#X obj 496 760 *~;
#X obj 526 760 *~;
#X obj 556 760 *~;
#X obj 586 760 *~;
#X obj 616 760 *~;
#X obj 646 760 *~;
#X obj 676 760 *~;
#X obj 263 905 dac~ 1 2 3 4 5 6 7 8 9 10 11 12 13 14 15 16 17 18;
#X obj 176 833 *~;
#X obj 207 833 *~;
#X obj 237 833 *~;
#X obj 266 833 *~;
#X obj 297 833 *~;
#X obj 327 833 *~;
#X obj 356 833 *~;
#X obj 387 833 *~;
#X obj 417 833 *~;
#X obj 446 833 *~;
#X obj 477 833 *~;
#X obj 507 833 *~;
#X obj 536 833 *~;
#X obj 567 833 *~;
#X obj 597 833 *~;
#X obj 626 833 *~;
#X obj 657 833 *~;
#X obj 687 833 *~;
#X obj 844 654 vsl 15 128 0 1 0 0 empty empty empty 0 -9 0 10 -262144
-1 -1 12700 1;
#X floatatom 843 797 5 0 0 0 - - -;
#X obj 803 611 loadbang;
#X msg 803 634 1;
#X text 809 585 MASTER LEVEL;
#X text 12 11 18 Kanal Version \; 2020-02-07;
#X obj 229 16 r~ out_1;
#X obj 229 36 r~ out_2;
#X obj 229 56 r~ out_3;
#X obj 229 76 r~ out_4;
#X obj 229 96 r~ out_5;
#X obj 231 116 r~ out_6;
#X obj 231 136 r~ out_7;
#X obj 229 156 r~ out_8;
#X obj 229 176 r~ out_9;
#X obj 229 196 r~ out_10;
#X obj 229 215 r~ out_11;
#X obj 229 236 r~ out_12;
#X obj 229 256 r~ out_13;
#X obj 229 276 r~ out_14;
#X obj 229 296 r~ out_15;
#X obj 229 319 r~ out_16;
#X obj 229 341 r~ out_17;
#X obj 229 366 r~ out_18;
#X obj 12 644 r intro;
#X connect 0 0 1 0;
#X connect 1 0 2 0;
#X connect 3 0 48 0;
#X connect 4 0 5 0;
#X connect 5 0 11 0;
#X connect 5 0 31 1;
#X connect 5 0 46 1;
#X connect 5 0 45 1;
#X connect 5 0 44 1;
#X connect 5 0 43 1;
#X connect 5 0 42 1;
#X connect 5 0 41 1;
#X connect 5 0 40 1;
#X connect 5 0 39 1;
#X connect 5 0 38 1;
#X connect 5 0 37 1;
#X connect 5 0 36 1;
#X connect 5 0 35 1;
#X connect 5 0 34 1;
#X connect 5 0 33 1;
#X connect 5 0 32 1;
#X connect 5 0 7 1;
#X connect 5 0 3 1;
#X connect 6 0 10 0;
#X connect 7 0 49 0;
#X connect 8 0 35 1;
#X connect 8 0 46 1;
#X connect 8 0 45 1;
#X connect 8 0 44 1;
#X connect 8 0 43 1;
#X connect 8 0 42 1;
#X connect 8 0 41 1;
#X connect 8 0 40 1;
#X connect 8 0 39 1;
#X connect 8 0 38 1;
#X connect 8 0 37 1;
#X connect 8 0 36 1;
#X connect 8 0 34 1;
#X connect 8 0 33 1;
#X connect 8 0 32 1;
#X connect 8 0 31 1;
#X connect 8 0 7 1;
#X connect 8 0 3 1;
#X connect 9 0 11 0;
#X connect 10 0 9 0;
#X connect 11 0 8 0;
#X connect 12 0 5 0;
#X connect 13 0 3 0;
#X connect 14 0 7 0;
#X connect 15 0 31 0;
#X connect 16 0 32 0;
#X connect 17 0 33 0;
#X connect 18 0 34 0;
#X connect 19 0 35 0;
#X connect 20 0 36 0;
#X connect 21 0 37 0;
#X connect 22 0 39 0;
#X connect 23 0 40 0;
#X connect 24 0 41 0;
#X connect 25 0 42 0;
#X connect 26 0 43 0;
#X connect 27 0 44 0;
#X connect 28 0 45 0;
#X connect 29 0 46 0;
#X connect 30 0 38 0;
#X connect 31 0 50 0;
#X connect 32 0 51 0;
#X connect 33 0 52 0;
#X connect 34 0 53 0;
#X connect 35 0 54 0;
#X connect 36 0 55 0;
#X connect 37 0 56 0;
#X connect 38 0 57 0;
#X connect 39 0 58 0;
#X connect 40 0 59 0;
#X connect 41 0 60 0;
#X connect 42 0 61 0;
#X connect 43 0 62 0;
#X connect 44 0 63 0;
#X connect 45 0 64 0;
#X connect 46 0 65 0;
#X connect 48 0 47 0;
#X connect 49 0 47 1;
#X connect 50 0 47 2;
#X connect 51 0 47 3;
#X connect 52 0 47 4;
#X connect 53 0 47 5;
#X connect 54 0 47 6;
#X connect 55 0 47 7;
#X connect 56 0 47 8;
#X connect 59 0 47 11;
#X connect 60 0 47 12;
#X connect 61 0 47 13;
#X connect 62 0 47 14;
#X connect 63 0 47 15;
#X connect 64 0 47 16;
#X connect 65 0 47 17;
#X connect 66 0 67 0;
#X connect 66 0 65 1;
#X connect 66 0 64 1;
#X connect 66 0 63 1;
#X connect 66 0 62 1;
#X connect 66 0 61 1;
#X connect 66 0 60 1;
#X connect 66 0 59 1;
#X connect 66 0 58 1;
#X connect 66 0 57 1;
#X connect 66 0 56 1;
#X connect 66 0 55 1;
#X connect 66 0 54 1;
#X connect 66 0 53 1;
#X connect 66 0 52 1;
#X connect 66 0 51 1;
#X connect 66 0 50 1;
#X connect 66 0 49 1;
#X connect 66 0 48 1;
#X connect 68 0 69 0;
#X connect 69 0 66 0;
#X connect 72 0 0 0;
#X connect 72 0 3 0;
#X connect 73 0 0 0;
#X connect 73 0 7 0;
#X connect 74 0 0 0;
#X connect 74 0 31 0;
#X connect 75 0 0 0;
#X connect 75 0 32 0;
#X connect 76 0 0 0;
#X connect 76 0 33 0;
#X connect 77 0 0 0;
#X connect 77 0 34 0;
#X connect 78 0 0 0;
#X connect 78 0 35 0;
#X connect 79 0 0 0;
#X connect 79 0 36 0;
#X connect 80 0 0 0;
#X connect 80 0 37 0;
#X connect 81 0 0 0;
#X connect 81 0 38 0;
#X connect 82 0 0 0;
#X connect 82 0 39 0;
#X connect 83 0 0 0;
#X connect 83 0 40 0;
#X connect 84 0 0 0;
#X connect 84 0 41 0;
#X connect 85 0 0 0;
#X connect 85 0 42 0;
#X connect 86 0 0 0;
#X connect 86 0 43 0;
#X connect 87 0 0 0;
#X connect 87 0 44 0;
#X connect 88 0 0 0;
#X connect 88 0 45 0;
#X connect 89 0 0 0;
#X connect 89 0 46 0;
#X connect 90 0 5 0;
