#N canvas 964 29 956 998 10;
#X obj 19 435 env~;
#X obj 92 436 env~;
#X obj 19 466 - 100;
#X obj 92 466 - 100;
#X obj 229 16 r~ out_1_L;
#X obj 310 17 r~ out_1_R;
#X obj 310 37 r~ out_2_R;
#X obj 229 36 r~ out_2_L;
#X obj 310 57 r~ out_3_R;
#X obj 229 56 r~ out_3_L;
#X obj 229 76 r~ out_4_L;
#X obj 229 96 r~ out_5_L;
#X obj 310 77 r~ out_4_R;
#X obj 310 97 r~ out_5_R;
#X obj 310 117 r~ out_6_R;
#X obj 229 156 r~ out_8_L;
#X obj 310 157 r~ out_8_R;
#X obj 229 176 r~ out_9_L;
#X obj 310 177 r~ out_9_R;
#X obj 229 196 r~ out_10_L;
#X obj 309 198 r~ out_10_R;
#X obj 229 215 r~ out_11_L;
#X obj 310 217 r~ out_11_R;
#X obj 229 236 r~ out_12_L;
#X obj 310 237 r~ out_12_R;
#X obj 229 256 r~ out_13_L;
#X obj 310 257 r~ out_13_R;
#X obj 231 116 r~ out_6_L;
#X obj 309 138 r~ out_7_R;
#X obj 231 136 r~ out_7_L;
#X obj 310 277 r~ out_14_R;
#X obj 310 297 r~ out_15_R;
#X obj 229 276 r~ out_14_L;
#X obj 229 296 r~ out_15_L;
#X obj 309 320 r~ out_16_R;
#X obj 229 319 r~ out_16_L;
#X obj 92 486 outlet;
#X obj 19 486 outlet;
#X obj 166 760 *~;
#X obj 21 554 r play;
#X msg 21 579 1;
#X obj 75 548 r stop;
#X obj 196 760 *~;
#X floatatom 77 646 13 0 0 0 - - -;
#X msg 77 596 0 5000;
#X obj 75 573 bng 15 250 50 0 empty empty empty 17 7 0 10 -262144 -1
-1;
#X obj 77 621 line;
#X obj 11 532 loadbang;
#X obj 310 368 r~ out_18_R;
#X obj 310 342 r~ out_17_R;
#X obj 229 366 r~ out_18_L;
#X obj 229 341 r~ out_17_L;
#X obj 400 18 r~ noiseIntro01;
#X obj 400 38 r~ noiseIntro02;
#X obj 400 58 r~ noiseIntro03;
#X obj 400 78 r~ noiseIntro04;
#X obj 400 98 r~ noiseIntro05;
#X obj 400 118 r~ noiseIntro06;
#X obj 400 138 r~ noiseIntro07;
#X obj 400 158 r~ noiseIntro08;
#X obj 400 178 r~ noiseIntro09;
#X obj 400 218 r~ noiseIntro11;
#X obj 400 238 r~ noiseIntro12;
#X obj 400 258 r~ noiseIntro13;
#X obj 399 278 r~ noiseIntro14;
#X obj 400 298 r~ noiseIntro15;
#X obj 400 321 r~ noiseIntro16;
#X obj 400 344 r~ noiseIntro17;
#X obj 400 368 r~ noiseIntro18;
#X obj 400 197 r~ noiseIntro10;
#X obj 226 760 *~;
#X obj 256 761 *~;
#X obj 286 760 *~;
#X obj 316 760 *~;
#X obj 346 760 *~;
#X obj 376 760 *~;
#X obj 406 760 *~;
#X obj 436 760 *~;
#X obj 466 760 *~;
#X obj 496 760 *~;
#X obj 526 760 *~;
#X obj 556 760 *~;
#X obj 586 760 *~;
#X obj 616 760 *~;
#X obj 646 760 *~;
#X obj 676 760 *~;
#X obj 263 905 dac~ 1 2 3 4 5 6 7 8 9 10 11 12 13 14 15 16 17 18;
#X obj 176 833 *~;
#X obj 207 833 *~;
#X obj 237 833 *~;
#X obj 266 833 *~;
#X obj 297 833 *~;
#X obj 327 833 *~;
#X obj 356 833 *~;
#X obj 387 833 *~;
#X obj 417 833 *~;
#X obj 446 833 *~;
#X obj 477 833 *~;
#X obj 507 833 *~;
#X obj 536 833 *~;
#X obj 567 833 *~;
#X obj 597 833 *~;
#X obj 626 833 *~;
#X obj 657 833 *~;
#X obj 687 833 *~;
#X obj 844 654 vsl 15 128 0 1 0 0 empty empty empty 0 -9 0 10 -262144
-1 -1 12700 1;
#X floatatom 843 797 5 0 0 0 - - -;
#X obj 803 611 loadbang;
#X msg 803 634 1;
#X text 809 585 MASTER LEVEL;
#X text 12 11 18 Kanal Version \; 2020-02-07;
#X connect 0 0 2 0;
#X connect 1 0 3 0;
#X connect 2 0 37 0;
#X connect 3 0 36 0;
#X connect 4 0 0 0;
#X connect 4 0 38 0;
#X connect 5 0 1 0;
#X connect 5 0 38 0;
#X connect 6 0 1 0;
#X connect 6 0 42 0;
#X connect 7 0 0 0;
#X connect 7 0 42 0;
#X connect 8 0 1 0;
#X connect 8 0 70 0;
#X connect 9 0 0 0;
#X connect 9 0 70 0;
#X connect 10 0 0 0;
#X connect 10 0 71 0;
#X connect 11 0 0 0;
#X connect 11 0 72 0;
#X connect 12 0 1 0;
#X connect 12 0 71 0;
#X connect 13 0 1 0;
#X connect 13 0 72 0;
#X connect 14 0 1 0;
#X connect 14 0 73 0;
#X connect 15 0 0 0;
#X connect 15 0 75 0;
#X connect 16 0 1 0;
#X connect 16 0 75 0;
#X connect 17 0 0 0;
#X connect 17 0 76 0;
#X connect 18 0 1 0;
#X connect 18 0 76 0;
#X connect 19 0 0 0;
#X connect 19 0 77 0;
#X connect 20 0 1 0;
#X connect 20 0 77 0;
#X connect 21 0 0 0;
#X connect 21 0 78 0;
#X connect 22 0 1 0;
#X connect 22 0 78 0;
#X connect 23 0 0 0;
#X connect 23 0 79 0;
#X connect 24 0 1 0;
#X connect 24 0 79 0;
#X connect 25 0 0 0;
#X connect 25 0 80 0;
#X connect 26 0 1 0;
#X connect 26 0 80 0;
#X connect 27 0 0 0;
#X connect 27 0 73 0;
#X connect 28 0 1 0;
#X connect 28 0 74 0;
#X connect 29 0 0 0;
#X connect 29 0 74 0;
#X connect 30 0 1 0;
#X connect 30 0 81 0;
#X connect 31 0 1 0;
#X connect 31 0 82 0;
#X connect 32 0 0 0;
#X connect 32 0 81 0;
#X connect 33 0 0 0;
#X connect 33 0 82 0;
#X connect 34 0 1 0;
#X connect 34 0 83 0;
#X connect 35 0 0 0;
#X connect 35 0 83 0;
#X connect 38 0 87 0;
#X connect 39 0 40 0;
#X connect 40 0 46 0;
#X connect 40 0 70 1;
#X connect 40 0 85 1;
#X connect 40 0 84 1;
#X connect 40 0 83 1;
#X connect 40 0 82 1;
#X connect 40 0 81 1;
#X connect 40 0 80 1;
#X connect 40 0 79 1;
#X connect 40 0 78 1;
#X connect 40 0 77 1;
#X connect 40 0 76 1;
#X connect 40 0 75 1;
#X connect 40 0 74 1;
#X connect 40 0 73 1;
#X connect 40 0 72 1;
#X connect 40 0 71 1;
#X connect 40 0 42 1;
#X connect 40 0 38 1;
#X connect 41 0 45 0;
#X connect 42 0 88 0;
#X connect 43 0 74 1;
#X connect 43 0 85 1;
#X connect 43 0 84 1;
#X connect 43 0 83 1;
#X connect 43 0 82 1;
#X connect 43 0 81 1;
#X connect 43 0 80 1;
#X connect 43 0 79 1;
#X connect 43 0 78 1;
#X connect 43 0 77 1;
#X connect 43 0 76 1;
#X connect 43 0 75 1;
#X connect 43 0 73 1;
#X connect 43 0 72 1;
#X connect 43 0 71 1;
#X connect 43 0 70 1;
#X connect 43 0 42 1;
#X connect 43 0 38 1;
#X connect 44 0 46 0;
#X connect 45 0 44 0;
#X connect 46 0 43 0;
#X connect 47 0 40 0;
#X connect 48 0 1 0;
#X connect 48 0 85 0;
#X connect 49 0 1 0;
#X connect 49 0 84 0;
#X connect 50 0 0 0;
#X connect 50 0 85 0;
#X connect 51 0 0 0;
#X connect 51 0 84 0;
#X connect 52 0 38 0;
#X connect 53 0 42 0;
#X connect 54 0 70 0;
#X connect 55 0 71 0;
#X connect 56 0 72 0;
#X connect 57 0 73 0;
#X connect 58 0 74 0;
#X connect 59 0 75 0;
#X connect 60 0 76 0;
#X connect 61 0 78 0;
#X connect 62 0 79 0;
#X connect 63 0 80 0;
#X connect 64 0 81 0;
#X connect 65 0 82 0;
#X connect 66 0 83 0;
#X connect 67 0 84 0;
#X connect 68 0 85 0;
#X connect 69 0 77 0;
#X connect 70 0 89 0;
#X connect 71 0 90 0;
#X connect 72 0 91 0;
#X connect 73 0 92 0;
#X connect 74 0 93 0;
#X connect 75 0 94 0;
#X connect 76 0 95 0;
#X connect 77 0 96 0;
#X connect 78 0 97 0;
#X connect 79 0 98 0;
#X connect 80 0 99 0;
#X connect 81 0 100 0;
#X connect 82 0 101 0;
#X connect 83 0 102 0;
#X connect 84 0 103 0;
#X connect 85 0 104 0;
#X connect 87 0 86 0;
#X connect 88 0 86 1;
#X connect 89 0 86 2;
#X connect 90 0 86 3;
#X connect 91 0 86 4;
#X connect 92 0 86 5;
#X connect 93 0 86 6;
#X connect 94 0 86 7;
#X connect 95 0 86 8;
#X connect 98 0 86 11;
#X connect 99 0 86 12;
#X connect 100 0 86 13;
#X connect 101 0 86 14;
#X connect 102 0 86 15;
#X connect 103 0 86 16;
#X connect 104 0 86 17;
#X connect 105 0 106 0;
#X connect 105 0 104 1;
#X connect 105 0 103 1;
#X connect 105 0 102 1;
#X connect 105 0 101 1;
#X connect 105 0 100 1;
#X connect 105 0 99 1;
#X connect 105 0 98 1;
#X connect 105 0 97 1;
#X connect 105 0 96 1;
#X connect 105 0 95 1;
#X connect 105 0 94 1;
#X connect 105 0 93 1;
#X connect 105 0 92 1;
#X connect 105 0 91 1;
#X connect 105 0 90 1;
#X connect 105 0 89 1;
#X connect 105 0 88 1;
#X connect 105 0 87 1;
#X connect 107 0 108 0;
#X connect 108 0 105 0;
