#N canvas 1089 281 572 571 10;
#X floatatom 310 390 5 0 0 0 - - -, f 5;
#X floatatom 215 391 5 0 0 0 - - -, f 5;
#X obj 213 335 hsl 128 15 0 1 0 0 empty empty empty -2 -8 0 10 -262144
-1 -1 4939 1;
#X obj 144 442 *~;
#X obj 122 318 inlet~;
#X obj 381 326 inlet~;
#X obj 374 442 *~;
#X obj 213 484 outlet~;
#X obj 310 480 outlet~;
#X floatatom 264 107 0 0 0 0 - - -;
#X obj 264 130 / 360;
#X obj 264 216 sin;
#X obj 264 237 abs;
#X floatatom 264 258 5 0 0 0 - - -, f 5;
#X obj 264 152 * 6.28319;
#X floatatom 264 196 5 0 0 0 - - -, f 5;
#X obj 303 86 + 1;
#X obj 252 86 int;
#X msg 264 282 \$1 50;
#X obj 264 302 line;
#X obj 318 281 s \$1;
#X obj 214 366 expr sqrt(1 - $f1);
#X obj 266 31 inlet;
#X obj 264 175 + \$3;
#X obj 263 65 metro \$2;
#X text 352 283 Name pan\$1;
#X text 323 63 Geschwindigkeit (160);
#X text 301 176 Versatz (10);
#X connect 0 0 6 1;
#X connect 1 0 3 1;
#X connect 2 0 0 0;
#X connect 2 0 21 0;
#X connect 3 0 7 0;
#X connect 4 0 3 0;
#X connect 5 0 6 0;
#X connect 6 0 8 0;
#X connect 9 0 10 0;
#X connect 10 0 14 0;
#X connect 11 0 12 0;
#X connect 12 0 13 0;
#X connect 13 0 18 0;
#X connect 13 0 20 0;
#X connect 14 0 23 0;
#X connect 15 0 11 0;
#X connect 16 0 17 1;
#X connect 17 0 9 0;
#X connect 17 0 16 0;
#X connect 18 0 19 0;
#X connect 19 0 2 0;
#X connect 21 0 1 0;
#X connect 22 0 24 0;
#X connect 23 0 15 0;
#X connect 24 0 17 0;
