#N canvas 1308 347 612 676 10;
#X obj 352 190 snapshot~;
#X obj 130 136 metro 1000;
#X floatatom 352 210 5 0 0 0 - - -, f 5;
#X text 391 169 amp number;
#X obj 42 493 outlet~;
#X obj 101 493 outlet~;
#X obj 39 325 inlet~;
#X obj 81 325 inlet~;
#X obj 145 65 inlet;
#X obj 272 264 spigot;
#X obj 247 319 line;
#X obj 352 233 > 0.95;
#X floatatom 353 293 5 0 0 0 - - -, f 5;
#X floatatom 217 212 5 0 0 0 - - -, f 5;
#X floatatom 357 260 5 0 0 0 - - -, f 5;
#X obj 219 233 -;
#X floatatom 272 358 5 0 0 0 - - -, f 5;
#X obj 147 99 delay 50;
#X text 107 169 Startwert für lpf;
#X msg 145 233 20;
#X floatatom 46 193 5 0 0 0 - - -, f 5;
#X floatatom 219 254 5 0 0 0 - - -, f 5;
#X floatatom 279 229 5 0 0 0 - - -, f 5;
#X text 103 66 bang;
#X text 351 146 GATE;
#X text 39 298 SIGNAL PATH;
#X obj 352 170 r~ \$2;
#X obj 321 471 *~;
#X floatatom 450 469 5 0 0 0 - - -, f 5;
#X obj 450 444 expr 1 - $f1;
#X floatatom 466 403 5 0 0 0 - - -, f 5;
#X obj 218 163 f \$1;
#X obj 217 192 f;
#X obj 466 378 f;
#X obj 45 395 *~;
#X obj 93 392 *~;
#X obj 434 555 min 0.2;
#X floatatom 426 581 5 0 0 0 - - -, f 5;
#X obj 279 208 * 0.01;
#X msg 479 528 0.2;
#X text 512 528 max noise vol;
#X text 436 339 NOISE CREATION;
#X msg 264 293 \$1 5000;
#X text 478 495 noise magnitude;
#X msg 46 212 \$1 4000;
#X obj 370 413 phasor~ \$3;
#X text 20 9 \$1 = Startwert (songMix) \$2 = amp number \$3 = phasor
frequency;
#X obj 450 494 / 10;
#X obj 294 412 noise~;
#X obj 371 468 *~;
#X obj 404 495 / 15;
#X obj 46 173 f \$1;
#X obj 207 459 *~;
#X connect 0 0 2 0;
#X connect 1 0 0 0;
#X connect 1 0 32 0;
#X connect 2 0 11 0;
#X connect 2 0 52 1;
#X connect 6 0 34 0;
#X connect 7 0 35 0;
#X connect 8 0 17 0;
#X connect 8 0 42 0;
#X connect 8 0 51 0;
#X connect 9 0 12 0;
#X connect 9 0 42 0;
#X connect 10 0 16 0;
#X connect 10 0 32 1;
#X connect 10 0 33 1;
#X connect 11 0 9 1;
#X connect 11 0 14 0;
#X connect 13 0 15 0;
#X connect 15 0 9 0;
#X connect 15 0 21 0;
#X connect 16 0 34 1;
#X connect 16 0 35 1;
#X connect 17 0 1 0;
#X connect 17 0 19 0;
#X connect 17 0 31 0;
#X connect 20 0 44 0;
#X connect 26 0 0 0;
#X connect 27 0 52 0;
#X connect 28 0 47 0;
#X connect 28 0 50 0;
#X connect 29 0 28 0;
#X connect 30 0 29 0;
#X connect 31 0 32 0;
#X connect 32 0 13 0;
#X connect 32 0 38 0;
#X connect 33 0 30 0;
#X connect 34 0 4 0;
#X connect 35 0 5 0;
#X connect 36 0 27 1;
#X connect 36 0 37 0;
#X connect 38 0 22 0;
#X connect 38 0 15 1;
#X connect 39 0 36 1;
#X connect 42 0 10 0;
#X connect 42 0 33 0;
#X connect 44 0 10 0;
#X connect 45 0 49 0;
#X connect 47 0 36 0;
#X connect 48 0 27 0;
#X connect 49 0 52 0;
#X connect 50 0 49 1;
#X connect 51 0 20 0;
#X connect 52 0 4 0;
#X connect 52 0 5 0;
