#N canvas 924 68 430 520 10;
#X obj 226 368 env~;
#X obj 299 369 env~;
#X obj 226 399 - 100;
#X obj 299 399 - 100;
#X obj 193 32 r~ out_1_L;
#X obj 274 33 r~ out_1_R;
#X obj 274 53 r~ out_2_R;
#X obj 193 52 r~ out_2_L;
#X obj 274 73 r~ out_3_R;
#X obj 193 72 r~ out_3_L;
#X obj 193 92 r~ out_4_L;
#X obj 274 93 r~ out_4_R;
#X obj 274 113 r~ out_5_R;
#X obj 274 133 r~ out_6_R;
#X obj 193 172 r~ out_8_L;
#X obj 274 173 r~ out_8_R;
#X obj 193 192 r~ out_9_L;
#X obj 274 193 r~ out_9_R;
#X obj 193 212 r~ out_10_L;
#X obj 273 214 r~ out_10_R;
#X obj 193 231 r~ out_11_L;
#X obj 274 233 r~ out_11_R;
#X obj 193 252 r~ out_12_L;
#X obj 274 253 r~ out_12_R;
#X obj 193 272 r~ out_13_L;
#X obj 274 273 r~ out_13_R;
#X obj 195 132 r~ out_6_L;
#X obj 273 154 r~ out_7_R;
#X obj 195 152 r~ out_7_L;
#X obj 274 293 r~ out_14_R;
#X obj 274 313 r~ out_15_R;
#X obj 193 292 r~ out_14_L;
#X obj 193 312 r~ out_15_L;
#X obj 273 333 r~ out_16_R;
#X obj 193 332 r~ out_16_L;
#X obj 20 335 dac~ 1 2 3 4 5 6;
#X obj 193 112 r~ out_5_L;
#X obj 226 419 outlet;
#X obj 299 419 outlet;
#X connect 0 0 2 0;
#X connect 1 0 3 0;
#X connect 2 0 37 0;
#X connect 3 0 38 0;
#X connect 4 0 0 0;
#X connect 4 0 35 0;
#X connect 5 0 1 0;
#X connect 5 0 35 1;
#X connect 6 0 1 0;
#X connect 6 0 35 2;
#X connect 7 0 0 0;
#X connect 7 0 35 0;
#X connect 8 0 1 0;
#X connect 8 0 35 4;
#X connect 9 0 0 0;
#X connect 9 0 35 0;
#X connect 10 0 0 0;
#X connect 10 0 35 0;
#X connect 11 0 1 0;
#X connect 11 0 35 0;
#X connect 12 0 1 0;
#X connect 12 0 35 2;
#X connect 13 0 1 0;
#X connect 13 0 35 4;
#X connect 14 0 0 0;
#X connect 14 0 35 2;
#X connect 15 0 1 0;
#X connect 15 0 35 4;
#X connect 16 0 0 0;
#X connect 16 0 35 2;
#X connect 17 0 1 0;
#X connect 17 0 35 1;
#X connect 18 0 0 0;
#X connect 18 0 35 2;
#X connect 19 0 1 0;
#X connect 19 0 35 0;
#X connect 20 0 0 0;
#X connect 20 0 35 4;
#X connect 21 0 1 0;
#X connect 21 0 35 5;
#X connect 22 0 0 0;
#X connect 22 0 35 4;
#X connect 23 0 1 0;
#X connect 23 0 35 2;
#X connect 24 0 0 0;
#X connect 24 0 35 4;
#X connect 25 0 1 0;
#X connect 25 0 35 1;
#X connect 26 0 0 0;
#X connect 26 0 35 1;
#X connect 27 0 1 0;
#X connect 27 0 35 5;
#X connect 28 0 0 0;
#X connect 28 0 35 1;
#X connect 29 0 1 0;
#X connect 29 0 35 4;
#X connect 30 0 1 0;
#X connect 30 0 35 2;
#X connect 31 0 0 0;
#X connect 31 0 35 5;
#X connect 32 0 0 0;
#X connect 32 0 35 5;
#X connect 33 0 1 0;
#X connect 33 0 35 1;
#X connect 34 0 0 0;
#X connect 34 0 35 5;
#X connect 36 0 0 0;
#X connect 36 0 35 1;
