#N canvas 2791 485 581 434 10;
#X obj 260 -180 inlet~;
#X obj 264 -105 env~;
#X floatatom 264 -80 5 0 0 0 - - -, f 5;
#X floatatom 213 -57 5 0 0 0 - - -, f 5;
#X obj 158 -13 spigot;
#X floatatom 158 13 5 0 0 0 - - -, f 5;
#X floatatom 158 -80 5 0 0 0 - - -, f 5;
#X obj 213 -104 >;
#X obj 159 36 max 0;
#X obj 86 -37 / 100;
#X obj 119 56 *~;
#X floatatom 86 -13 5 0 0 0 - - -, f 5;
#X text 230 -203 signal path;
#X text 175 -136 threshold;
#X text 72 -68 amplitude;
#X text 69 55 output;
#X obj 119 81 outlet~;
#X text 1 -244 erodes signal at \$1 hertz;
#X text 1 -269 BANDPASS EROSION SUBPATCH;
#X text 124 -166 init;
#X text 1 -219 v. 2 - 2020-01-31;
#X text 430 -177 erosion magnitude;
#X obj 360 -231 bng 15 250 50 0 empty empty empty 17 7 0 10 -262144
-1 -1;
#X obj 69 -166 loadbang;
#X msg 95 -109 70;
#X floatatom 50 -114 5 0 0 0 - - -, f 5;
#X obj 394 -178 - 100;
#X obj 343 -155 max 0;
#X msg 343 -130 \$1 1000;
#X obj 343 -105 line;
#X floatatom 343 -80 9 0 0 0 - - -, f 9;
#X floatatom 391 -153 5 0 0 0 - - -, f 5;
#X obj 89 -142 metro 1000;
#X obj 264 -130 lop~;
#X obj 198 16 bng 15 250 50 0 empty empty empty 17 7 0 10 -262144 -1
-1;
#X msg 360 -208 22000;
#X obj 343 -179 i;
#X obj 178 -106 f;
#X obj 157 -56 - 0.2;
#X obj 260 -155 *~;
#X connect 0 0 39 0;
#X connect 1 0 2 0;
#X connect 2 0 7 0;
#X connect 3 0 4 1;
#X connect 4 0 5 0;
#X connect 4 0 34 0;
#X connect 5 0 8 0;
#X connect 7 0 3 0;
#X connect 8 0 37 1;
#X connect 9 0 11 0;
#X connect 10 0 16 0;
#X connect 11 0 39 1;
#X connect 22 0 35 0;
#X connect 22 0 32 0;
#X connect 23 0 24 0;
#X connect 23 0 32 0;
#X connect 24 0 37 0;
#X connect 26 0 36 1;
#X connect 27 0 28 0;
#X connect 27 0 31 0;
#X connect 28 0 29 0;
#X connect 29 0 30 0;
#X connect 30 0 33 1;
#X connect 32 0 7 0;
#X connect 32 0 25 0;
#X connect 32 0 37 0;
#X connect 33 0 1 0;
#X connect 33 0 10 0;
#X connect 34 0 36 0;
#X connect 35 0 36 0;
#X connect 36 0 26 0;
#X connect 36 0 27 0;
#X connect 37 0 6 0;
#X connect 37 0 7 1;
#X connect 37 0 9 0;
#X connect 37 0 38 0;
#X connect 38 0 4 0;
#X connect 39 0 33 0;
