#N canvas 1198 204 549 537 10;
#X obj 352 190 snapshot~;
#X obj 130 136 metro 1000;
#X floatatom 352 210 5 0 0 0 - - -;
#X text 391 169 amp number;
#X obj 122 387 outlet~;
#X obj 172 387 outlet~;
#X obj 120 270 inlet~;
#X obj 162 270 inlet~;
#X obj 147 72 inlet;
#X floatatom 266 116 5 0 0 0 - - -;
#X obj 275 359 outlet;
#X obj 269 67 i \$2;
#X obj 352 170 r~ \$3;
#X obj 122 367 vcf~;
#X obj 162 367 vcf~;
#X obj 181 335 sig~;
#X obj 272 264 spigot;
#X obj 260 312 line;
#X obj 352 233 > 0.95;
#X obj 217 168 i \$1;
#X obj 217 192 i;
#X floatatom 353 293 5 0 0 0 - - -;
#X floatatom 217 212 5 0 0 0 - - -;
#X floatatom 349 257 5 0 0 0 - - -;
#X obj 219 233 -;
#X msg 260 292 \$1 5000;
#X floatatom 296 334 5 0 0 0 - - -;
#X floatatom 222 338 5 0 0 0 - - -;
#X obj 147 99 delay 50;
#X text 107 169 Startwert für lpf;
#X text 18 9 \$1 = Startwert Lpf \$2 = Multiplikator für Subtraktion
;
#X obj 222 357 ftom;
#X floatatom 222 377 5 0 0 0 - - -;
#X msg 145 233 20;
#X obj 46 173 i \$1;
#X floatatom 46 193 5 0 0 0 - - -;
#X msg 46 212 \$1 20;
#X floatatom 282 419 5 0 0 0 - - -;
#X obj 282 454 log;
#X floatatom 282 475 5 0 0 0 - - -;
#X floatatom 345 465 5 0 0 0 - - -;
#X obj 345 485 log;
#X floatatom 345 506 5 0 0 0 - - -;
#X obj 282 398 /;
#X floatatom 219 254 5 0 0 0 - - -;
#X floatatom 279 229 5 0 0 0 - - -;
#X obj 279 208 * 0.05;
#X obj 345 444 * 15;
#X text 214 519 TODO: logarithmische Näherung \, langsamer ab f<500
;
#X connect 0 0 2 0;
#X connect 1 0 0 0;
#X connect 1 0 20 0;
#X connect 2 0 18 0;
#X connect 6 0 13 0;
#X connect 7 0 14 0;
#X connect 8 0 28 0;
#X connect 8 0 25 0;
#X connect 8 0 34 0;
#X connect 11 0 9 0;
#X connect 12 0 0 0;
#X connect 13 0 4 0;
#X connect 14 0 5 0;
#X connect 15 0 13 1;
#X connect 15 0 14 1;
#X connect 16 0 21 0;
#X connect 16 0 25 0;
#X connect 17 0 20 1;
#X connect 17 0 26 0;
#X connect 17 0 10 0;
#X connect 17 0 15 0;
#X connect 17 0 27 0;
#X connect 18 0 16 1;
#X connect 18 0 23 0;
#X connect 19 0 20 0;
#X connect 19 0 43 1;
#X connect 20 0 22 0;
#X connect 20 0 46 0;
#X connect 22 0 24 0;
#X connect 24 0 16 0;
#X connect 24 0 44 0;
#X connect 25 0 17 0;
#X connect 27 0 31 0;
#X connect 27 0 43 0;
#X connect 28 0 1 0;
#X connect 28 0 33 0;
#X connect 28 0 19 0;
#X connect 28 0 11 0;
#X connect 31 0 32 0;
#X connect 33 0 14 2;
#X connect 33 0 13 2;
#X connect 34 0 35 0;
#X connect 35 0 36 0;
#X connect 36 0 17 0;
#X connect 37 0 38 0;
#X connect 37 0 47 0;
#X connect 38 0 39 0;
#X connect 40 0 41 0;
#X connect 40 0 14 2;
#X connect 40 0 13 2;
#X connect 41 0 42 0;
#X connect 43 0 37 0;
#X connect 46 0 45 0;
#X connect 46 0 24 1;
#X connect 47 0 40 0;
