#N canvas 402 61 958 983 12;
#X obj 19 17 tgl 15 0 empty empty empty 17 7 0 10 -262144 -1 -1 1 1
;
#X msg 17 45 \; pd dsp \$1;
#X obj 56 114 bng 15 250 50 0 empty empty empty 17 7 0 10 -262144 -1
-1;
#X obj 56 354 bng 15 250 50 0 empty empty empty 17 7 0 10 -262144 -1
-1;
#X obj 56 594 bng 15 250 50 0 empty empty empty 17 7 0 10 -262144 -1
-1;
#X obj 175 301 s~ out_1_R;
#X obj 173 525 s~ out_2_R;
#X obj 121 51 s play;
#X obj 121 28 bng 15 250 50 0 empty empty empty 17 7 0 10 -262144 -1
-1;
#X obj 56 88 r play;
#X obj 56 328 r play;
#X obj 56 564 r play;
#X obj 185 30 bng 15 250 50 0 empty empty empty 17 7 0 10 -262144 -1
-1;
#X obj 185 70 s stop;
#X obj 116 89 r stop;
#X obj 116 328 r stop;
#X obj 116 565 r stop;
#X obj 357 925 hsl 128 15 0 10000 0 0 empty empty empty -2 -8 0 10
-232576 -1 -1 3890 1;
#X obj 289 668 hsl 128 15 0 10000 0 0 empty empty empty -2 -8 0 10
-232576 -1 -1 0 1;
#X obj 307 429 hsl 128 15 0 10000 0 0 empty empty empty -2 -8 0 10
-232576 -1 -1 10606 1;
#X obj 409 302 hsl 128 15 0 10000 0 0 empty empty empty -2 -8 0 10
-232576 -1 -1 10617 1;
#X obj 790 3827 s play;
#X obj 790 3804 bng 15 250 50 0 empty empty empty 17 7 0 10 -262144
-1 -1;
#X obj 853 3789 bng 15 250 50 0 empty empty empty 17 7 0 10 -262144
-1 -1;
#X obj 852 3828 s stop;
#X obj 65 525 s~ out_2_L;
#X obj 54 302 s~ out_1_L;
#N canvas 947 0 958 998 amplitudes 0;
#N canvas 0 50 450 250 (subpatch) 0;
#X array ampsValues 120 float 3;
#A 0 0.0019 0.0026 0.0035 0.0047 0.0062 0.0082 0.0107 0.0139 0.0179
0.0228 0.0287 0.0359 0.0446 0.0548 0.0668 0.0808 0.0968 0.1151 0.1357
0.1587 0.1841 0.2119 0.242 0.2743 0.3085 0.3446 0.3821 0.4207 0.4602
0.5 0.5 0.5398 0.5793 0.6179 0.6554 0.6915 0.7257 0.758 0.7881 0.8159
0.8413 0.8643 0.8849 0.9032 0.9192 0.9332 0.9452 0.9554 0.9641 0.9713
0.9772 0.9821 0.9861 0.9893 0.9918 0.9938 0.9953 0.9965 0.9974 0.9981
0.9981 0.9974 0.9965 0.9953 0.9938 0.9918 0.9893 0.9861 0.9821 0.9772
0.9713 0.9641 0.9554 0.9452 0.9332 0.9192 0.9032 0.8849 0.8643 0.8413
0.8159 0.7881 0.758 0.7257 0.6915 0.6554 0.6179 0.5793 0.5398 0.5 0.5
0.4602 0.4207 0.3821 0.3446 0.3085 0.2743 0.242 0.2119 0.1841 0.1587
0.1357 0.1151 0.0968 0.0808 0.0668 0.0548 0.0446 0.0359 0.0287 0.0228
0.0179 0.0139 0.0107 0.0082 0.0062 0.0047 0.0035 0.0026 0.0019;
#X coords 0 1 120 0 200 140 1 0 0;
#X restore 30 38 graph;
#X obj 387 561 int;
#X obj 419 560 + 1;
#X floatatom 387 582 5 0 0 0 - - -, f 5;
#X obj 387 602 % 120;
#X floatatom 387 623 5 0 0 0 - - -, f 5;
#X msg 338 621 121;
#X obj 366 652 -;
#X msg 268 37 \; ampsValues 0 0.0019 0.0026 0.0035 0.0047 0.0062 0.0082
0.0107 0.0139 0.0179 0.0228 0.0287 0.0359 0.0446 0.0548 0.0668 0.0808
0.0968 0.1151 0.1357 0.1587 0.1841 0.2119 0.242 0.2743 0.3085 0.3446
0.3821 0.4207 0.4602 0.5 0.5 0.5398 0.5793 0.6179 0.6554 0.6915 0.7257
0.758 0.7881 0.8159 0.8413 0.8643 0.8849 0.9032 0.9192 0.9332 0.9452
0.9554 0.9641 0.9713 0.9772 0.9821 0.9861 0.9893 0.9918 0.9938 0.9953
0.9965 0.9974 0.9981 0.9981 0.9974 0.9965 0.9953 0.9938 0.9918 0.9893
0.9861 0.9821 0.9772 0.9713 0.9641 0.9554 0.9452 0.9332 0.9192 0.9032
0.8849 0.8643 0.8413 0.8159 0.7881 0.758 0.7257 0.6915 0.6554 0.6179
0.5793 0.5398 0.5 0.5 0.4602 0.4207 0.3821 0.3446 0.3085 0.2743 0.242
0.2119 0.1841 0.1587 0.1357 0.1151 0.0968 0.0808 0.0668 0.0548 0.0446
0.0359 0.0287 0.0228 0.0179 0.0139 0.0107 0.0082 0.0062 0.0047 0.0035
0.0026 0.0019;
#X floatatom 366 734 5 0 0 0 - - -, f 5;
#X obj 504 683 + 1;
#X obj 504 704 % 120;
#X floatatom 504 725 5 0 0 0 - - -, f 5;
#X obj 627 563 int;
#X obj 659 562 + 1;
#X floatatom 627 584 5 0 0 0 - - -, f 5;
#X obj 627 604 % 120;
#X floatatom 627 625 5 0 0 0 - - -, f 5;
#X msg 578 623 121;
#X obj 606 654 -;
#X floatatom 606 736 5 0 0 0 - - -, f 5;
#X obj 744 685 + 1;
#X obj 744 706 % 120;
#X floatatom 744 727 5 0 0 0 - - -, f 5;
#X floatatom 366 673 5 0 0 0 - - -, f 5;
#X floatatom 606 675 5 0 0 0 - - -, f 5;
#X obj 99 417 inlet;
#X obj 394 541 s m3;
#X msg 645 528 75;
#X text 693 525 Versatz zwischen R/W der Kurven;
#X obj 28 471 s m500;
#X obj 168 470 s m300;
#X text 3 875 amp \$1 \$2 \$3 drei argumente \, da \$1 innerhalb der
abstraction genutzt werden muss;
#N canvas 0 50 450 250 (subpatch) 0;
#X array ampsOut2 120 float 5;
#A 0 0.8643 0.8643 0.8643 0.8849 0.9032 0.9192 0.9332 0.9554 0.9641
0.9713 0.9713 0.9772 0.9861 0.9893 0.9918 0.9938 0.9953 0.9953 0.9965
0.9974 0.9981 0.9981 0.9981 0.9974 0.9974 0.9965 0.9953 0.9938 0.9893
0.9861 0.9772 0.9713 0.9641 0.9554 0.9452 0.9452 0.9332 0.9192 0.9032
0.8849 0.8849 0.8849 0.8643 0.8413 0.758 0.7257 0.6915 0.6554 0.6179
0.5793 0.5398 0.5 0.5 0.4602 0.4207 0.3821 0.3446 0.3085 0.242 0.2119
0.1841 0.1587 0.1357 0.1151 0.1151 0.0968 0.0808 0.0668 0.0668 0.0668
0.0668 0.0446 0.0446 0.0228 0.0179 0.0107 0.0107 0.0082 0.0062 0.0047
0.0035 0.0019 0.0047 0.0062 0.0082 0.0107 0.0139 0.0139 0.0179 0.0228
0.0287 0.0359 0.0548 0.0668 0.0808 0.0968 0.1151 0.1357 0.1587 0.2119
0.242 0.2743 0.3085 0.3085 0.3446 0.3821 0.5 0.5 0.5398 0.5793 0.5793
0.6179 0.6915 0.6915 0.7257 0.758 0.758 0.7881 0.8159 0.8159;
#X coords 0 1 119 0 200 140 1 0 0;
#X restore 328 249 graph;
#N canvas 0 50 450 250 (subpatch) 0;
#X array ampsOut1 120 float 5;
#A 0 0.2743 0.2743 0.2743 0.2743 0.3446 0.3446 0.4207 0.4207 0.5 0.5
0.5398 0.5 0.5398 0.5398 0.6179 0.6179 0.6915 0.6915 0.758 0.758 0.8159
0.8159 0.8643 0.8643 0.9032 0.9032 0.9554 0.9554 0.9713 0.9713 0.9821
0.9821 0.9938 0.9938 0.9938 0.9938 0.9965 0.9965 0.9981 0.9981 0.9974
0.9974 0.9981 0.9981 0.9965 0.9965 0.9938 0.9938 0.9893 0.9893 0.9821
0.9821 0.9713 0.9713 0.9554 0.9554 0.9332 0.9332 0.9032 0.9032 0.8643
0.8643 0.8159 0.8159 0.758 0.758 0.6915 0.6915 0.6179 0.6179 0.5398
0.5398 0.5 0.5 0.3446 0.3446 0.3446 0.3446 0.2743 0.2743 0.2119 0.2119
0.0968 0.0968 0.0668 0.0668 0.0446 0.0446 0.0287 0.0179 0.0107 0.0107
0.0062 0.0062 0.0035 0.0035 0.0019 0.0019 0.0019 0.0019 0.0035 0.0035
0.0062 0.0062 0.0107 0.0107 0.0107 0.0107 0.0179 0.0179 0.0287 0.0287
0.0446 0.0446 0.0668 0.0668 0.0968 0.0968 0.2119 0.2119;
#X coords 0 1 119 0 200 140 1 0 0;
#X restore 328 249 graph;
#X msg 340 420 \; ampsOut2 xticks 0 7.5 1;
#X obj 340 400 loadbang;
#N canvas 0 50 450 250 (subpatch) 0;
#X array ampOut1 120 float 3;
#A 0 0.0446 0.0446 0.0446 0.0446 0.0668 0.0968 0.0968 0.2119 0.2119
0.2743 0.2743 0.3446 0.3446 0.4207 0.4207 0.5 0.5 0.5398 0.5 0.5398
0.5398 0.6179 0.6179 0.6915 0.6915 0.758 0.758 0.8159 0.8159 0.8643
0.8643 0.9032 0.9032 0.9554 0.9554 0.9713 0.9713 0.9821 0.9821 0.9938
0.9938 0.9938 0.9938 0.9965 0.9981 0.9981 0.9974 0.9974 0.9981 0.9981
0.9965 0.9965 0.9938 0.9938 0.9938 0.9893 0.9893 0.9821 0.9821 0.9713
0.9713 0.9554 0.9554 0.9332 0.9332 0.9032 0.9032 0.8643 0.8643 0.8159
0.8159 0.758 0.758 0.6915 0.6915 0.6179 0.6179 0.5398 0.5398 0.5 0.5
0.3446 0.3446 0.3446 0.3446 0.2743 0.2743 0.2119 0.2119 0.0968 0.0968
0.0668 0.0668 0.0446 0.0446 0.0287 0.0179 0.0107 0.0107 0.0062 0.0062
0.0035 0.0035 0.0019 0.0019 0.0019 0.0019 0.0035 0.0035 0.0062 0.0062
0.0107 0.0107 0.0107 0.0107 0.0179 0.0179 0.0179 0.0287 0.0287;
#X array ampOut2 120 float 3;
#A 0 0.8159 0.8159 0.8159 0.8159 0.8643 0.8849 0.9032 0.9192 0.9332
0.9554 0.9641 0.9713 0.9713 0.9772 0.9861 0.9893 0.9918 0.9938 0.9953
0.9953 0.9965 0.9974 0.9981 0.9981 0.9981 0.9974 0.9974 0.9965 0.9953
0.9938 0.9893 0.9861 0.9772 0.9713 0.9641 0.9554 0.9452 0.9452 0.9332
0.9032 0.8849 0.8849 0.8849 0.8643 0.8413 0.758 0.7257 0.6915 0.6554
0.6179 0.5793 0.5398 0.5 0.5 0.4602 0.4207 0.3821 0.3446 0.3085 0.242
0.2119 0.1841 0.1587 0.1357 0.1151 0.1151 0.0968 0.0808 0.0668 0.0668
0.0668 0.0668 0.0446 0.0446 0.0228 0.0179 0.0107 0.0107 0.0082 0.0062
0.0047 0.0035 0.0035 0.0019 0.0047 0.0062 0.0082 0.0107 0.0139 0.0139
0.0179 0.0228 0.0287 0.0359 0.0548 0.0668 0.0808 0.0968 0.1151 0.1357
0.1587 0.2119 0.242 0.2743 0.3085 0.3085 0.3446 0.3821 0.5 0.5 0.5398
0.5793 0.5793 0.6179 0.6915 0.6915 0.7257 0.758 0.758 0.7881;
#X coords 0 1 120 0 200 140 1 0 0;
#X restore 32 214 graph;
#X text 465 478 ARRAY SORTING: disabled! now walking through array
;
#N canvas 0 50 450 250 (subpatch) 0;
#X array ampsOut3 120 float 3;
#A 0 0.7881 0.7881 0.7881 0.8159 0.8159 0.8643 0.8849 0.9032 0.9192
0.9332 0.9554 0.9641 0.9713 0.9713 0.9772 0.9861 0.9893 0.9918 0.9938
0.9953 0.9953 0.9965 0.9974 0.9981 0.9981 0.9981 0.9974 0.9974 0.9965
0.9953 0.9938 0.9893 0.9861 0.9772 0.9713 0.9641 0.9554 0.9452 0.9452
0.9332 0.9032 0.8849 0.8849 0.8849 0.8643 0.8413 0.758 0.7257 0.6915
0.6554 0.6179 0.5793 0.5398 0.5 0.5 0.4602 0.4207 0.3821 0.3446 0.3085
0.242 0.2119 0.1841 0.1587 0.1357 0.1151 0.1151 0.0968 0.0808 0.0668
0.0668 0.0668 0.0668 0.0446 0.0446 0.0228 0.0179 0.0107 0.0107 0.0082
0.0062 0.0047 0.0035 0.0035 0.0019 0.0047 0.0062 0.0082 0.0107 0.0139
0.0139 0.0179 0.0228 0.0287 0.0359 0.0548 0.0668 0.0808 0.0968 0.1151
0.1357 0.1587 0.2119 0.242 0.2743 0.3085 0.3085 0.3446 0.3821 0.5 0.5
0.5398 0.5793 0.5793 0.6179 0.6915 0.6915 0.7257 0.758 0.758;
#X coords 0 1 120 0 200 140 1 0 0;
#X restore 583 242 graph;
#X obj 387 481 tgl 15 0 empty empty empty 17 7 0 10 -262144 -1 -1 0
1;
#X obj 366 754 tabwrite ampOut1;
#X obj 387 500 metro 100;
#X obj 366 713 tabread ampOut1;
#X obj 606 715 tabread ampOut2;
#X obj 608 755 tabwrite ampsOut3;
#X obj 28 449 metro 333;
#X obj 168 449 metro 200;
#X obj 85 851 amp 113 amp16;
#N canvas 0 50 450 250 (subpatch) 0;
#X array amp01 120 float 2;
#X array amp02 120 float 2;
#X array amp03 120 float 2;
#X array amp04 120 float 2;
#X array amp05 120 float 2;
#X array amp06 120 float 2;
#X array amp07 120 float 2;
#X array amp08 120 float 2;
#X array amp09 120 float 2;
#X array amp10 120 float 2;
#X array amp11 120 float 2;
#X array amp12 120 float 2;
#X array amp13 120 float 2;
#X array amp14 120 float 2;
#X array amp15 120 float 2;
#X array amp16 120 float 2;
#X coords 0 1 120 0 200 140 2 0 0;
#X restore 479 958 graph;
#X obj 85 788 amp 90 amp13;
#X obj 84 506 amp 0 amp01;
#X obj 87 526 amp 8 amp02;
#X obj 86 549 amp 15 amp03;
#X obj 85 574 amp 23 amp04;
#X obj 86 600 amp 30 amp05;
#X obj 86 625 amp 38 amp06;
#X obj 85 683 amp 53 amp08;
#X obj 88 653 amp 45 amp07;
#X obj 85 701 amp 60 amp09;
#X obj 85 725 amp 68 amp10;
#X obj 85 747 amp 75 amp11;
#X obj 85 767 amp 83 amp12;
#X obj 85 809 amp 98 amp14;
#X obj 84 831 amp 105 amp15;
#X connect 1 0 2 0;
#X connect 1 0 3 0;
#X connect 2 0 1 1;
#X connect 3 0 4 0;
#X connect 4 0 5 0;
#X connect 5 0 7 1;
#X connect 6 0 7 0;
#X connect 7 0 24 0;
#X connect 9 0 41 0;
#X connect 10 0 11 0;
#X connect 11 0 12 0;
#X connect 12 0 41 1;
#X connect 13 0 14 0;
#X connect 13 0 15 0;
#X connect 14 0 13 1;
#X connect 15 0 16 0;
#X connect 16 0 17 0;
#X connect 17 0 19 1;
#X connect 18 0 19 0;
#X connect 19 0 25 0;
#X connect 20 0 45 0;
#X connect 21 0 22 0;
#X connect 22 0 23 0;
#X connect 23 0 45 1;
#X connect 24 0 10 0;
#X connect 24 0 43 0;
#X connect 25 0 21 0;
#X connect 25 0 44 0;
#X connect 26 0 46 0;
#X connect 26 0 47 0;
#X connect 28 0 13 1;
#X connect 36 0 35 0;
#X connect 40 0 42 0;
#X connect 42 0 1 0;
#X connect 42 0 13 0;
#X connect 42 0 6 0;
#X connect 42 0 18 0;
#X connect 42 0 27 0;
#X connect 43 0 9 0;
#X connect 44 0 20 0;
#X connect 46 0 30 0;
#X connect 47 0 31 0;
#X restore 538 454 pd amplitudes;
#X obj 54 242 *~;
#X obj 114 209 r~ amp01;
#X obj 538 434 tgl 15 0 empty empty empty 17 7 0 10 -262144 -1 -1 1
1;
#X obj 82 472 *~;
#X obj 122 450 r~ amp02;
#X obj 177 240 *~;
#N canvas 0 50 450 250 (subpatch) 0;
#X array ampVisualizer1 120 float 1;
#A 0 0.87113 0 0 0 0 0 0 0 0.97991 0 0 0 0 0 0 0.99671 0 0 0 0 0 0
0 0.99818 0 0 0 0 0 0 0.97991 0 0 0 0 0 0 0 0.91943 0 0 0 0 0 0 0.75878
0 0 0 0 0 0 0 0.56747 0 0 0 0 0 0 0.42887 0 0 0 0 0 0 0 0.62214 0 0
0 0 0 0 0.78405 0 0 0 0 0 0 0 0.93224 0 0 0 0 0 0 0.98404 0 0 0 0 0
0 0 0.99818 0 0 0 0 0 0 0.99426 0 0 0 0 0 0 0 0.96164 0 0 0 0 0 0;
#X coords 0 1 120 0 200 140 1 0 0;
#X restore 538 501 graph;
#X msg 185 50 stop;
#X msg 853 3809 stop;
#X obj 203 472 *~;
#X obj 80 717 *~;
#X obj 201 717 *~;
#X obj 120 695 r~ amp03;
#X obj 63 770 s~ out_3_L;
#X obj 171 770 s~ out_3_R;
#X obj 56 834 bng 15 250 50 0 empty empty empty 17 7 0 10 -262144 -1
-1;
#X obj 56 804 r play;
#X obj 116 805 r stop;
#X obj 80 957 *~;
#X obj 201 957 *~;
#X obj 105 932 r~ amp04;
#X obj 63 1010 s~ out_4_L;
#X obj 171 1010 s~ out_4_R;
#X obj 359 1154 hsl 128 15 0 10000 0 0 empty empty empty -2 -8 0 10
-232576 -1 -1 4532 1;
#X obj 58 1063 bng 15 250 50 0 empty empty empty 17 7 0 10 -262144
-1 -1;
#X obj 58 1033 r play;
#X obj 118 1034 r stop;
#X obj 82 1186 *~;
#X obj 203 1186 *~;
#X obj 107 1161 r~ amp05;
#X obj 65 1229 s~ out_5_L;
#X obj 173 1229 s~ out_5_R;
#X obj 309 1393 hsl 128 15 0 10000 0 0 empty empty empty -2 -8 0 10
-232576 -1 -1 11133 1;
#X obj 52 1291 bng 15 250 50 0 empty empty empty 17 7 0 10 -262144
-1 -1;
#X obj 52 1261 r play;
#X obj 112 1262 r stop;
#X obj 76 1414 *~;
#X obj 197 1414 *~;
#X obj 101 1389 r~ amp06;
#X obj 59 1457 s~ out_6_L;
#X obj 167 1457 s~ out_6_R;
#X obj 306 1609 hsl 128 15 0 10000 0 0 empty empty empty -2 -8 0 10
-232576 -1 -1 11057 1;
#X obj 49 1507 bng 15 250 50 0 empty empty empty 17 7 0 10 -262144
-1 -1;
#X obj 49 1477 r play;
#X obj 109 1478 r stop;
#X obj 73 1630 *~;
#X obj 194 1630 *~;
#X obj 98 1605 r~ amp07;
#X obj 56 1672 s~ out_7_L;
#X obj 164 1673 s~ out_7_R;
#X obj 305 1834 hsl 128 15 0 10000 0 0 empty empty empty -2 -8 0 10
-232576 -1 -1 10829 1;
#X obj 48 1732 bng 15 250 50 0 empty empty empty 17 7 0 10 -262144
-1 -1;
#X obj 48 1702 r play;
#X obj 108 1703 r stop;
#X obj 72 1855 *~;
#X obj 193 1855 *~;
#X obj 97 1830 r~ amp08;
#X obj 55 1907 s~ out_8_L;
#X obj 163 1908 s~ out_8_R;
#X obj 317 2077 hsl 128 15 0 10000 0 0 empty empty empty -2 -8 0 10
-232576 -1 -1 10734 1;
#X obj 54 1971 bng 15 250 50 0 empty empty empty 17 7 0 10 -262144
-1 -1;
#X obj 54 1941 r play;
#X obj 114 1942 r stop;
#X obj 78 2094 *~;
#X obj 199 2094 *~;
#X obj 103 2069 r~ amp09;
#X obj 61 2146 s~ out_9_L;
#X obj 169 2147 s~ out_9_R;
#X obj 313 2309 hsl 128 15 0 10000 0 0 empty empty empty -2 -8 0 10
-232576 -1 -1 0 1;
#X obj 56 2207 bng 15 250 50 0 empty empty empty 17 7 0 10 -262144
-1 -1;
#X obj 56 2177 r play;
#X obj 116 2178 r stop;
#X obj 80 2330 *~;
#X obj 201 2330 *~;
#X obj 105 2305 r~ amp10;
#X obj 63 2382 s~ out_10_L;
#X obj 310 2545 hsl 128 15 0 10000 0 0 empty empty empty -2 -8 0 10
-232576 -1 -1 0 1;
#X obj 53 2443 bng 15 250 50 0 empty empty empty 17 7 0 10 -262144
-1 -1;
#X obj 53 2413 r play;
#X obj 113 2414 r stop;
#X obj 77 2566 *~;
#X obj 198 2566 *~;
#X obj 102 2541 r~ amp11;
#X obj 60 2618 s~ out_11_L;
#X obj 309 2786 hsl 128 15 0 10000 0 0 empty empty empty -2 -8 0 10
-232576 -1 -1 0 1;
#X obj 52 2684 bng 15 250 50 0 empty empty empty 17 7 0 10 -262144
-1 -1;
#X obj 52 2654 r play;
#X obj 112 2655 r stop;
#X obj 76 2807 *~;
#X obj 197 2807 *~;
#X obj 101 2782 r~ amp12;
#X obj 59 2869 s~ out_12_L;
#X obj 311 3032 hsl 128 15 0 10000 0 0 empty empty empty -2 -8 0 10
-232576 -1 -1 0 1;
#X obj 54 2930 bng 15 250 50 0 empty empty empty 17 7 0 10 -262144
-1 -1;
#X obj 54 2900 r play;
#X obj 114 2901 r stop;
#X obj 78 3053 *~;
#X obj 199 3053 *~;
#X obj 103 3028 r~ amp13;
#X obj 63 3125 s~ out_13_L;
#X obj 309 3304 hsl 128 15 0 10000 0 0 empty empty empty -2 -8 0 10
-232576 -1 -1 6474 1;
#X obj 52 3202 bng 15 250 50 0 empty empty empty 17 7 0 10 -262144
-1 -1;
#X obj 52 3172 r play;
#X obj 112 3173 r stop;
#X obj 76 3325 *~;
#X obj 206 3315 *~;
#X obj 101 3300 r~ amp14;
#X obj 311 3541 hsl 128 15 0 10000 0 0 empty empty empty -2 -8 0 10
-232576 -1 -1 11133 1;
#X obj 54 3439 bng 15 250 50 0 empty empty empty 17 7 0 10 -262144
-1 -1;
#X obj 54 3409 r play;
#X obj 114 3410 r stop;
#X obj 78 3562 *~;
#X obj 199 3562 *~;
#X obj 103 3537 r~ amp15;
#X obj 62 3614 s~ out_15_L;
#X obj 307 3779 hsl 128 15 0 10000 0 0 empty empty empty -2 -8 0 10
-232576 -1 -1 10836 1;
#X obj 50 3677 bng 15 250 50 0 empty empty empty 17 7 0 10 -262144
-1 -1;
#X obj 50 3647 r play;
#X obj 110 3648 r stop;
#X obj 74 3800 *~;
#X obj 195 3800 *~;
#X obj 99 3775 r~ amp16;
#X obj 58 3852 s~ out_16_L;
#X obj 613 1242 hsl 128 15 0 1 0 0 empty empty empty -2 -8 0 10 -257985
-1 -1 12086 1;
#X obj 171 2383 s~ out_10_R;
#X obj 168 2619 s~ out_11_R;
#X obj 167 2870 s~ out_12_R;
#X obj 171 3126 s~ out_13_R;
#X obj 167 3368 s~ out_14_R;
#X obj 59 3367 s~ out_14_L;
#X obj 169 3615 s~ out_15_R;
#X obj 165 3853 s~ out_16_R;
#X obj 85 3585 pan pan15 160 5;
#X obj 614 1283 hsl 128 15 0 1 0 0 empty empty empty -2 -8 0 10 -257985
-1 -1 8577 1;
#X obj 614 1323 hsl 128 15 0 1 0 0 empty empty empty -2 -8 0 10 -257985
-1 -1 6548 1;
#X obj 613 1122 hsl 128 15 0 1 0 0 empty empty empty -2 -8 0 10 -257985
-1 -1 12237 1;
#X obj 614 1163 hsl 128 15 0 1 0 0 empty empty empty -2 -8 0 10 -257985
-1 -1 213 1;
#X obj 614 1203 hsl 128 15 0 1 0 0 empty empty empty -2 -8 0 10 -257985
-1 -1 11414 1;
#X obj 613 1002 hsl 128 15 0 1 0 0 empty empty empty -2 -8 0 10 -257985
-1 -1 7292 1;
#X obj 614 1043 hsl 128 15 0 1 0 0 empty empty empty -2 -8 0 10 -257985
-1 -1 6730 1;
#X obj 614 1083 hsl 128 15 0 1 0 0 empty empty empty -2 -8 0 10 -257985
-1 -1 8182 1;
#X obj 613 882 hsl 128 15 0 1 0 0 empty empty empty -2 -8 0 10 -257985
-1 -1 11775 1;
#X obj 614 923 hsl 128 15 0 1 0 0 empty empty empty -2 -8 0 10 -257985
-1 -1 12329 1;
#X obj 614 963 hsl 128 15 0 1 0 0 empty empty empty -2 -8 0 10 -257985
-1 -1 8075 1;
#X obj 613 861 r pan01;
#X obj 614 902 r pan02;
#X obj 614 942 r pan03;
#X obj 613 981 r pan04;
#X obj 614 1022 r pan05;
#X obj 614 1061 r pan06;
#X obj 613 1101 r pan07;
#X obj 614 1142 r pan08;
#X obj 614 1182 r pan09;
#X obj 613 1381 r pan14;
#X obj 613 1402 hsl 128 15 0 1 0 0 empty empty empty -2 -8 0 10 -257985
-1 -1 1304 1;
#X obj 614 1443 hsl 128 15 0 1 0 0 empty empty empty -2 -8 0 10 -257985
-1 -1 10944 1;
#X obj 614 1422 r pan15;
#X obj 614 1483 hsl 128 15 0 1 0 0 empty empty empty -2 -8 0 10 -257985
-1 -1 9283 1;
#X obj 614 1462 r pan16;
#X obj 613 1221 r pan10;
#X obj 614 1262 r pan11;
#X obj 614 1302 r pan12;
#X obj 614 1363 hsl 128 15 0 1 0 0 empty empty empty -2 -8 0 10 -257985
-1 -1 3074 1;
#X obj 614 1342 r pan13;
#X obj 91 3089 pan pan13 160 0;
#X obj 74 3347 pan pan14 160 3;
#X obj 82 3829 pan pan16 160 10;
#X obj 99 2840 pan pan12 300 10;
#X obj 85 2596 pan pan11 300 5;
#X obj 89 2359 pan pan10 300 3;
#X obj 89 2119 pan pan09 300 0;
#X obj 89 1879 pan pan08 600 10;
#X obj 89 1649 pan pan07 600 5;
#X obj 85 1434 pan pan06 600 3;
#X obj 85 1204 pan pan05 600 0;
#X obj 89 983 pan pan04 800 10;
#X obj 538 411 loadbang;
#X obj 97 744 pan pan03 800 5;
#X obj 94 500 pan pan02 800 3;
#X obj 70 270 pan pan01 800 0;
#X obj 772 894 s play;
#X obj 772 871 bng 15 250 50 0 empty empty empty 17 7 0 10 -262144
-1 -1;
#X obj 836 873 bng 15 250 50 0 empty empty empty 17 7 0 10 -262144
-1 -1;
#X obj 836 913 s stop;
#X msg 836 893 stop;
#X text 541 644 ampsVisualizer: shows ticks (volumes) for each track
1-16;
#X obj 609 175 2chan;
#X obj 581 227 vu 15 120 empty empty -1 -8 0 10 -66577 -1 1 0;
#X obj 656 228 vu 15 120 empty empty -1 -8 0 10 -66577 -1 1 0;
#X obj 756 228 vu 15 120 empty empty -1 -8 0 10 -66577 -1 1 0;
#X obj 814 229 vu 15 120 empty empty -1 -8 0 10 -66577 -1 1 0;
#X obj 762 178 5ch an;
#X text 491 137 rename the patches to activate either 2- or 5 channel
output;
#X text 624 150 5-channel-output routing still arbitrary!;
#X obj 51 662 lopErosion 1280 1 amp03;
#X obj 50 3507 lopErosion 10000 60 amp15;
#X obj 55 431 lopErosion 10000 60 amp02;
#X obj 48 3269 lopErosion 10000 60 amp14;
#X obj 51 911 lopErosion 10000 60 amp04;
#X obj 47 1359 lopErosion 10000 60 amp06;
#X obj 44 1575 lopErosion 10000 60 amp07;
#X obj 43 1800 lopErosion 10000 60 amp08;
#X obj 49 2039 lopErosion 10000 60 amp09;
#X obj 51 2275 lopErosion 10000 60 amp10;
#X obj 49 2511 lopErosion 10000 60 amp11;
#X obj 48 2752 lopErosion 10000 60 amp12;
#X obj 53 2998 lopErosion 10000 60 amp13;
#X obj 46 3745 lopErosion 10000 60 amp16;
#X obj 363 218 fftErosion 10000 60 amp01;
#X obj 58 197 lopErosion 10000 60 amp01;
#X obj 53 1131 lopErosion 7000 120 amp05;
#X text 686 22 Vertikal Pd Version 10:;
#X text 686 35 * new sounds downloaded;
#X text 686 8 31.01.2019;
#X text 163 112 03:22;
#X text 161 353 02:29;
#X text 158 593 03:33;
#X text 166 807 02:38;
#X text 168 1036 03:21;
#X text 162 1264 03:27;
#X text 159 1480 02:52;
#X text 159 1702 03:58;
#X text 175 1943 03:06;
#X text 178 2179 03:36;
#X text 165 2416 03:32;
#X text 168 2660 03:31;
#X text 176 2904 03:11;
#X text 168 3174 03:00;
#X text 169 3412 03:34;
#X text 166 3648 04:19;
#X obj 755 386 writeSoundFile;
#X text 686 49 * stärkere (anteilhafte) lopErosion;
#X text 545 669 TODO: (for sound piece) count song stops \, make last
songs fade out then;
#X obj 53 613 playsf ../../vertikal_Audio/2019-01/03.wav;
#X obj 53 146 playsf ../../vertikal_Audio/2019-01/01.wav;
#X obj 56 386 playsf ../../vertikal_Audio/2019-01/02.wav;
#X obj 48 853 playsf ../../vertikal_Audio/2019-01/04.wav;
#X obj 62 1080 playsf ../../vertikal_Audio/2019-01/05.wav;
#X obj 60 1313 playsf ../../vertikal_Audio/2019-01/06.wav;
#X obj 64 1528 playsf ../../vertikal_Audio/2019-01/07.wav;
#X obj 45 1744 playsf ../../vertikal_Audio/2019-01/08.wav;
#X obj 68 1993 playsf ../../vertikal_Audio/2019-01/09.wav;
#X obj 59 2227 playsf ../../vertikal_Audio/2019-01/10.wav;
#X obj 49 2463 playsf ../../vertikal_Audio/2019-01/11.wav;
#X obj 48 2699 playsf ../../vertikal_Audio/2019-01/12.wav;
#X obj 51 2942 playsf ../../vertikal_Audio/2019-01/13.wav;
#X obj 49 3219 playsf ../../vertikal_Audio/2019-01/14.wav;
#X obj 67 3442 playsf ../../vertikal_Audio/2019-01/15.wav;
#X obj 53 3686 playsf ../../vertikal_Audio/2019-01/16.wav;
#X connect 0 0 1 0;
#X connect 2 0 207 1;
#X connect 2 0 236 1;
#X connect 2 0 237 1;
#X connect 2 0 262 0;
#X connect 3 0 206 1;
#X connect 3 0 224 1;
#X connect 3 0 263 0;
#X connect 4 0 205 1;
#X connect 4 0 222 1;
#X connect 4 0 261 0;
#X connect 8 0 7 0;
#X connect 9 0 2 0;
#X connect 10 0 3 0;
#X connect 11 0 4 0;
#X connect 12 0 35 0;
#X connect 14 0 237 1;
#X connect 14 0 262 1;
#X connect 15 0 224 1;
#X connect 15 0 263 1;
#X connect 16 0 222 1;
#X connect 16 0 261 1;
#X connect 22 0 21 0;
#X connect 23 0 36 0;
#X connect 28 0 207 0;
#X connect 29 0 28 1;
#X connect 29 0 33 1;
#X connect 30 0 27 0;
#X connect 31 0 206 0;
#X connect 32 0 31 1;
#X connect 32 0 37 1;
#X connect 33 0 207 2;
#X connect 35 0 13 0;
#X connect 36 0 24 0;
#X connect 37 0 206 2;
#X connect 38 0 205 0;
#X connect 39 0 205 2;
#X connect 40 0 38 1;
#X connect 40 0 39 1;
#X connect 43 0 203 1;
#X connect 43 0 226 1;
#X connect 43 0 264 0;
#X connect 44 0 43 0;
#X connect 45 0 226 1;
#X connect 45 0 264 1;
#X connect 46 0 203 0;
#X connect 47 0 203 2;
#X connect 48 0 46 1;
#X connect 48 0 47 1;
#X connect 52 0 202 1;
#X connect 52 0 238 1;
#X connect 52 0 265 0;
#X connect 53 0 52 0;
#X connect 54 0 238 1;
#X connect 54 0 265 1;
#X connect 55 0 202 0;
#X connect 56 0 202 2;
#X connect 57 0 55 1;
#X connect 57 0 56 1;
#X connect 61 0 201 1;
#X connect 61 0 227 1;
#X connect 61 0 266 0;
#X connect 62 0 61 0;
#X connect 63 0 227 1;
#X connect 63 0 266 1;
#X connect 64 0 201 0;
#X connect 65 0 201 2;
#X connect 66 0 64 1;
#X connect 66 0 65 1;
#X connect 70 0 200 1;
#X connect 70 0 228 1;
#X connect 70 0 267 0;
#X connect 71 0 70 0;
#X connect 72 0 228 1;
#X connect 72 0 267 1;
#X connect 73 0 200 0;
#X connect 74 0 200 2;
#X connect 75 0 73 1;
#X connect 75 0 74 1;
#X connect 79 0 199 1;
#X connect 79 0 229 1;
#X connect 79 0 268 0;
#X connect 80 0 79 0;
#X connect 81 0 229 1;
#X connect 81 0 268 1;
#X connect 82 0 199 0;
#X connect 83 0 199 2;
#X connect 84 0 82 1;
#X connect 84 0 83 1;
#X connect 88 0 198 1;
#X connect 88 0 230 1;
#X connect 88 0 269 0;
#X connect 89 0 88 0;
#X connect 90 0 230 1;
#X connect 90 0 269 1;
#X connect 91 0 198 0;
#X connect 92 0 198 2;
#X connect 93 0 91 1;
#X connect 93 0 92 1;
#X connect 97 0 197 1;
#X connect 97 0 231 1;
#X connect 97 0 270 0;
#X connect 98 0 97 0;
#X connect 99 0 231 1;
#X connect 99 0 270 1;
#X connect 100 0 197 0;
#X connect 101 0 197 2;
#X connect 102 0 100 1;
#X connect 102 0 101 1;
#X connect 105 0 196 1;
#X connect 105 0 232 1;
#X connect 105 0 271 0;
#X connect 106 0 105 0;
#X connect 107 0 232 1;
#X connect 107 0 271 1;
#X connect 108 0 196 0;
#X connect 109 0 196 2;
#X connect 110 0 108 1;
#X connect 110 0 109 1;
#X connect 113 0 195 1;
#X connect 113 0 233 1;
#X connect 113 0 272 0;
#X connect 114 0 113 0;
#X connect 115 0 233 1;
#X connect 115 0 272 1;
#X connect 116 0 195 0;
#X connect 117 0 195 2;
#X connect 118 0 116 1;
#X connect 118 0 117 1;
#X connect 121 0 192 1;
#X connect 121 0 234 1;
#X connect 121 0 273 0;
#X connect 122 0 121 0;
#X connect 123 0 234 1;
#X connect 123 0 273 1;
#X connect 124 0 192 0;
#X connect 125 0 192 2;
#X connect 126 0 124 1;
#X connect 126 0 125 1;
#X connect 129 0 193 1;
#X connect 129 0 225 1;
#X connect 129 0 274 0;
#X connect 130 0 129 0;
#X connect 131 0 225 1;
#X connect 131 0 274 1;
#X connect 132 0 193 0;
#X connect 133 0 193 2;
#X connect 134 0 132 1;
#X connect 134 0 133 1;
#X connect 136 0 160 1;
#X connect 136 0 223 1;
#X connect 136 0 275 0;
#X connect 137 0 136 0;
#X connect 138 0 223 1;
#X connect 138 0 275 1;
#X connect 139 0 160 0;
#X connect 140 0 160 2;
#X connect 141 0 139 1;
#X connect 141 0 140 1;
#X connect 144 0 194 1;
#X connect 144 0 235 1;
#X connect 144 0 276 0;
#X connect 145 0 144 0;
#X connect 146 0 235 1;
#X connect 146 0 276 1;
#X connect 147 0 194 0;
#X connect 148 0 194 2;
#X connect 149 0 147 1;
#X connect 149 0 148 1;
#X connect 160 0 142 0;
#X connect 160 1 158 0;
#X connect 172 0 169 0;
#X connect 173 0 170 0;
#X connect 174 0 171 0;
#X connect 175 0 166 0;
#X connect 176 0 167 0;
#X connect 177 0 168 0;
#X connect 178 0 163 0;
#X connect 179 0 164 0;
#X connect 180 0 165 0;
#X connect 181 0 182 0;
#X connect 184 0 183 0;
#X connect 186 0 185 0;
#X connect 187 0 151 0;
#X connect 188 0 161 0;
#X connect 189 0 162 0;
#X connect 191 0 190 0;
#X connect 192 0 127 0;
#X connect 192 1 155 0;
#X connect 193 0 157 0;
#X connect 193 1 156 0;
#X connect 194 0 150 0;
#X connect 194 1 159 0;
#X connect 195 0 119 0;
#X connect 195 1 154 0;
#X connect 196 0 111 0;
#X connect 196 1 153 0;
#X connect 197 0 103 0;
#X connect 197 1 152 0;
#X connect 198 0 94 0;
#X connect 198 1 95 0;
#X connect 199 0 85 0;
#X connect 199 1 86 0;
#X connect 200 0 76 0;
#X connect 200 1 77 0;
#X connect 201 0 67 0;
#X connect 201 1 68 0;
#X connect 202 0 58 0;
#X connect 202 1 59 0;
#X connect 203 0 49 0;
#X connect 203 1 50 0;
#X connect 204 0 30 0;
#X connect 205 0 41 0;
#X connect 205 1 42 0;
#X connect 206 0 25 0;
#X connect 206 1 6 0;
#X connect 207 0 26 0;
#X connect 207 1 5 0;
#X connect 209 0 208 0;
#X connect 210 0 212 0;
#X connect 212 0 211 0;
#X connect 214 0 215 0;
#X connect 214 1 216 0;
#X connect 219 0 217 0;
#X connect 219 1 218 0;
#X connect 222 0 38 0;
#X connect 222 1 39 0;
#X connect 222 2 18 0;
#X connect 223 0 139 0;
#X connect 223 1 140 0;
#X connect 223 2 135 0;
#X connect 224 0 31 0;
#X connect 224 1 37 0;
#X connect 224 2 19 0;
#X connect 225 0 132 0;
#X connect 225 1 133 0;
#X connect 225 2 128 0;
#X connect 226 0 46 0;
#X connect 226 1 47 0;
#X connect 226 2 17 0;
#X connect 227 0 64 0;
#X connect 227 1 65 0;
#X connect 227 2 60 0;
#X connect 228 0 73 0;
#X connect 228 1 74 0;
#X connect 228 2 69 0;
#X connect 229 0 82 0;
#X connect 229 1 83 0;
#X connect 229 2 78 0;
#X connect 230 0 91 0;
#X connect 230 1 92 0;
#X connect 230 2 87 0;
#X connect 231 0 100 0;
#X connect 231 1 101 0;
#X connect 231 2 96 0;
#X connect 232 0 108 0;
#X connect 232 1 109 0;
#X connect 232 2 104 0;
#X connect 233 0 116 0;
#X connect 233 1 117 0;
#X connect 233 2 112 0;
#X connect 234 0 124 0;
#X connect 234 1 125 0;
#X connect 234 2 120 0;
#X connect 235 0 147 0;
#X connect 235 1 148 0;
#X connect 235 2 143 0;
#X connect 237 0 28 0;
#X connect 237 1 33 0;
#X connect 237 2 20 0;
#X connect 238 0 55 0;
#X connect 238 1 56 0;
#X connect 238 2 51 0;
#X connect 261 0 222 0;
#X connect 261 1 222 2;
#X connect 262 0 236 0;
#X connect 262 0 237 0;
#X connect 262 1 236 0;
#X connect 262 1 237 2;
#X connect 263 0 224 0;
#X connect 263 1 224 2;
#X connect 264 0 226 0;
#X connect 264 1 226 2;
#X connect 265 0 238 0;
#X connect 265 1 238 2;
#X connect 266 0 227 0;
#X connect 266 1 227 2;
#X connect 267 0 228 0;
#X connect 267 1 228 2;
#X connect 268 0 229 0;
#X connect 268 1 229 2;
#X connect 269 0 230 0;
#X connect 269 1 230 2;
#X connect 270 0 231 0;
#X connect 270 1 231 2;
#X connect 271 0 232 0;
#X connect 271 1 232 2;
#X connect 272 0 233 0;
#X connect 272 1 233 2;
#X connect 273 0 234 0;
#X connect 273 1 234 2;
#X connect 274 0 225 0;
#X connect 274 1 225 2;
#X connect 275 0 223 0;
#X connect 275 1 223 2;
#X connect 276 0 235 0;
#X connect 276 1 235 2;
