#N canvas 0 29 956 998 10;
#X obj 7 284 cnv 15 315 373 empty empty empty 20 12 0 14 -233017 -66577
0;
#X text 3 8 BANDPASS EROSION ALGORITHM;
#X text 3 57 tracks 16 bands and stores threshold values;
#X text 3 82 if amplitude > threshold:;
#X text 3 107 1 multiply by threshold;
#X text 3 132 2 decrease threshold;
#X text 3 33 v. 1 \, 0 - 2020-01-29;
#X obj 479 99 inlet~;
#X obj 231 402 env~;
#X floatatom 231 427 5 0 0 0 - - -, f 5;
#X obj 231 377 bp~ 50 100;
#X obj 370 22 bng 15 250 50 0 empty empty empty 17 7 0 10 -262144 -1
-1;
#X obj 427 801 dac~ 1 2;
#X obj 498 264 tgl 15 0 empty empty empty 17 7 0 10 -262144 -1 -1 1
1;
#X obj 185 209 s Q;
#X obj 274 351 r Q;
#X floatatom 201 152 5 0 0 0 - - -, f 5;
#X obj 231 352 r~ in;
#X obj 482 132 s~ in;
#X floatatom 225 210 5 0 0 0 - - -, f 5;
#X obj 199 180 max 30;
#X floatatom 157 475 5 0 0 0 - - -, f 5;
#X obj 135 425 i;
#X obj 114 188 loadbang;
#X obj 123 473 - 1;
#X obj 124 501 spigot;
#X floatatom 124 527 5 0 0 0 - - -, f 5;
#X floatatom 115 450 5 0 0 0 - - -, f 5;
#X obj 170 426 >;
#X obj 125 550 max 0;
#X obj 500 350 s m1300;
#X obj 76 364 r m1300;
#X obj 115 239 s gThresh;
#X obj 64 343 r gThresh;
#X obj 43 493 / 100;
#X obj 76 586 *~;
#X floatatom 43 517 5 0 0 0 - - -, f 5;
#X obj 473 345 bng 15 250 50 0 empty empty empty 17 7 0 10 -262144
-1 -1;
#X text 104 287 50 Hz;
#X text 230 329 signal path;
#X text 132 394 threshold;
#X text 29 462 amplitude;
#X text 26 585 output;
#X obj 351 424 r~ in;
#X obj 351 449 bpErode 50;
#X obj 501 424 r~ in;
#X obj 501 449 bpErode 150;
#X obj 579 423 r~ in;
#X obj 579 448 bpErode 200;
#X obj 420 423 r~ in;
#X obj 420 448 bpErode 100;
#X obj 351 494 r~ in;
#X obj 512 495 r~ in;
#X obj 590 494 r~ in;
#X obj 431 494 r~ in;
#X obj 351 519 bpErode 400;
#X obj 431 519 bpErode 600;
#X obj 512 520 bpErode 800;
#X obj 590 519 bpErode 1000;
#X obj 351 564 r~ in;
#X obj 512 565 r~ in;
#X obj 594 565 r~ in;
#X obj 431 564 r~ in;
#X obj 351 588 bpErode 2000;
#X obj 431 589 bpErode 3000;
#X obj 512 590 bpErode 4000;
#X obj 594 590 bpErode 5000;
#X obj 351 624 r~ in;
#X obj 522 622 r~ in;
#X obj 608 623 r~ in;
#X obj 433 622 r~ in;
#X obj 352 646 bpErode 8750;
#X obj 433 647 bpErode 12500;
#X obj 522 647 bpErode 16250;
#X obj 608 648 bpErode 20000;
#X msg 115 214 70;
#X obj 280 193 i;
#X obj 313 193 + 1;
#X floatatom 280 218 5 0 0 0 - - -, f 5;
#X obj 330 117 tgl 15 0 empty empty empty 17 7 0 10 -262144 -1 -1 1
1;
#X obj 269 124 loadbang;
#X msg 269 149 0;
#X text 7 287 EXAMPLE bpErode;
#X obj 367 54 playsf ../../vertikal_Audio/2019-01/01.wav;
#X obj 166 116 r start;
#X obj 322 165 metro 500;
#X obj 473 320 metro 600;
#X connect 7 0 18 0;
#X connect 8 0 9 0;
#X connect 9 0 28 0;
#X connect 10 0 8 0;
#X connect 10 0 35 0;
#X connect 11 0 83 0;
#X connect 13 0 86 0;
#X connect 15 0 10 2;
#X connect 16 0 20 0;
#X connect 17 0 10 0;
#X connect 20 0 14 0;
#X connect 20 0 19 0;
#X connect 21 0 25 1;
#X connect 22 0 24 0;
#X connect 22 0 27 0;
#X connect 22 0 28 1;
#X connect 22 0 34 0;
#X connect 23 0 75 0;
#X connect 24 0 25 0;
#X connect 25 0 26 0;
#X connect 26 0 29 0;
#X connect 28 0 21 0;
#X connect 29 0 22 1;
#X connect 31 0 22 0;
#X connect 31 0 28 0;
#X connect 33 0 22 0;
#X connect 34 0 35 1;
#X connect 34 0 36 0;
#X connect 43 0 44 0;
#X connect 44 0 12 0;
#X connect 45 0 46 0;
#X connect 46 0 12 0;
#X connect 47 0 48 0;
#X connect 48 0 12 0;
#X connect 49 0 50 0;
#X connect 50 0 12 0;
#X connect 51 0 55 0;
#X connect 52 0 57 0;
#X connect 53 0 58 0;
#X connect 54 0 56 0;
#X connect 55 0 12 0;
#X connect 56 0 12 0;
#X connect 57 0 12 0;
#X connect 58 0 12 0;
#X connect 59 0 63 0;
#X connect 60 0 65 0;
#X connect 61 0 66 0;
#X connect 62 0 64 0;
#X connect 63 0 12 0;
#X connect 64 0 12 0;
#X connect 65 0 12 0;
#X connect 66 0 12 0;
#X connect 67 0 71 0;
#X connect 68 0 73 0;
#X connect 69 0 74 0;
#X connect 70 0 72 0;
#X connect 71 0 12 0;
#X connect 72 0 12 0;
#X connect 73 0 12 0;
#X connect 74 0 12 0;
#X connect 75 0 32 0;
#X connect 76 0 77 0;
#X connect 76 0 78 0;
#X connect 77 0 76 1;
#X connect 79 0 85 0;
#X connect 80 0 81 0;
#X connect 80 0 79 0;
#X connect 81 0 76 0;
#X connect 84 0 75 0;
#X connect 84 0 81 0;
#X connect 85 0 76 0;
#X connect 86 0 30 0;
#X connect 86 0 37 0;
