#N canvas -7 0 958 998 12;
#X msg 220 2289 open audio/Bruno_swords.wav;
#X obj 220 2345 readsf~ 2;
#X obj 119 2459 dac~ 1 2 3 4 5 6 7 8 9 10 11 12 13 14 15 16 17 18;
#X obj 207 2392 *~;
#X obj 358 2389 *~;
#X obj 548 2340 vsl 15 128 0 2 0 0 empty empty empty 0 -9 0 10 -262144
-1 -1 6350 1;
#X msg 267 2317 start;
#X msg 321 2319 stop;
#X obj 166 1434 readsf~ 2;
#X obj 68 1568 dac~ 1 2 3 4 5 6 7 8 9 10 11 12 13 14 15 16 17 18;
#X obj 156 1501 *~;
#X obj 307 1498 *~;
#X obj 497 1449 vsl 15 128 0 1 0 0 empty empty empty 0 -9 0 10 -262144
-1 -1 9195 1;
#X msg 213 1406 start;
#X msg 267 1408 stop;
#X floatatom 548 2476 5 0 0 0 - - -;
#X obj 46 477 dac~ 1 2 3 4 5 6 7 8 9 10 11 12 13 14 15 16 17 18;
#X obj 81 414 *~;
#X obj 315 407 *~;
#X obj 475 358 vsl 15 128 0 2 0 0 empty empty empty 0 -9 0 10 -262144
-1 -1 6350 1;
#X msg 191 315 start;
#X msg 245 317 stop;
#X msg 166 1378 open audio/Bruno_cemetry.wav;
#X text 543 2311 BOOST;
#X text 491 1419 BOOST;
#X text 467 330 BOOST;
#X text 221 2264 Bruno - swords: no surround;
#X obj 121 414 *~;
#X obj 161 414 *~;
#X obj 221 414 *~;
#X obj 271 414 *~;
#X floatatom 475 494 5 0 0 0 - - -;
#X obj 186 709 readsf~ 2;
#X obj 88 843 dac~ 1 2 3 4 5 6 7 8 9 10 11 12 13 14 15 16 17 18;
#X obj 176 776 *~;
#X obj 327 773 *~;
#X obj 517 724 vsl 15 128 0 1 0 0 empty empty empty 0 -9 0 10 -262144
-1 -1 12700 1;
#X msg 233 681 start;
#X msg 287 683 stop;
#X text 509 696 BOOST;
#X msg 186 653 open audio/Hearken.wav;
#X text 188 625 SINA;
#X obj 26 1175 dac~ 1 2 3 4 5 6 7 8 9 10 11 12 13 14 15 16 17 18;
#X obj 84 1099 *~;
#X obj 183 1093 *~;
#X obj 443 1001 vsl 15 128 0 2 0 0 empty empty empty 0 -9 0 10 -262144
-1 -1 9795 1;
#X msg 171 1013 start;
#X msg 225 1015 stop;
#X text 435 973 BOOST;
#X floatatom 443 1137 5 0 0 0 - - -;
#X obj 522 980 loadbang;
#X obj 267 175 vertikal17;
#X obj 21 45 tgl 15 0 empty empty empty 17 7 0 10 -262144 -1 -1 1 1
;
#X msg 19 73 \; pd dsp \$1;
#X obj 57 44 loadbang;
#X obj 50 1900 dac~ 1 2 3 4 5 6 7 8 9 10 11 12 13 14 15 16 17 18;
#X obj 108 1824 *~;
#X obj 207 1818 *~;
#X obj 467 1726 vsl 15 128 0 2 0 0 empty empty empty 0 -9 0 10 -262144
-1 -1 6350 1;
#X msg 195 1738 start;
#X msg 249 1740 stop;
#X text 459 1698 BOOST;
#X msg 148 1712 open audio/ben.wav;
#X text 150 1682 BEN;
#X obj 284 1826 *~;
#X obj 324 1828 *~;
#X obj 148 1766 readsf~ 4;
#X floatatom 467 1862 5 0 0 0 - - -;
#X obj 546 1705 loadbang;
#X msg 542 1738 1;
#X obj 50 2200 dac~ 1 2 3 4 5 6 7 8 9 10 11 12 13 14 15 16 17 18;
#X obj 108 2124 *~;
#X obj 207 2118 *~;
#X obj 467 2026 vsl 15 128 0 2 0 0 empty empty empty 0 -9 0 10 -262144
-1 -1 6350 1;
#X msg 195 2038 start;
#X msg 249 2040 stop;
#X text 459 1998 BOOST;
#X floatatom 467 2162 5 0 0 0 - - -;
#X obj 546 2005 loadbang;
#X msg 542 2038 1;
#X obj 50 2720 dac~ 1 2 3 4 5 6 7 8 9 10 11 12 13 14 15 16 17 18;
#X obj 108 2644 *~;
#X obj 207 2638 *~;
#X obj 467 2546 vsl 15 128 0 2 0 0 empty empty empty 0 -9 0 10 -262144
-1 -1 6350 1;
#X msg 195 2558 start;
#X msg 249 2560 stop;
#X text 459 2518 BOOST;
#X floatatom 467 2682 5 0 0 0 - - -;
#X obj 546 2525 loadbang;
#X msg 542 2558 1;
#X obj 267 138 bng 15 250 50 0 empty empty empty 17 7 0 10 -262144
-1 -1;
#X obj 173 176 delay 639000;
#X obj 173 202 delay 10000;
#X msg 142 286 open audio/jakob_final.wav;
#X obj 182 558 delay 10000;
#X text 196 260 JAKOB;
#X obj 216 900 delay 10000;
#X text 126 957 ISA;
#X msg 124 987 open audio/isa_sharks.wav;
#X obj 124 1041 readsf~ 2;
#X obj 223 1230 delay 10000;
#X obj 244 1621 delay 10000;
#X msg 148 2012 open audio/kaja_norm.wav;
#X text 150 1982 KAJA;
#X obj 148 2066 readsf~ 2;
#X obj 243 1934 delay 10000;
#X obj 45 2491 delay 10000;
#X text 150 2502 ROANNA;
#X msg 148 2532 open audio/roanna_norm.wav;
#X obj 148 2586 readsf~ 2;
#X obj 50 3020 dac~ 1 2 3 4 5 6 7 8 9 10 11 12 13 14 15 16 17 18;
#X obj 108 2944 *~;
#X obj 207 2938 *~;
#X obj 467 2846 vsl 15 128 0 2 0 0 empty empty empty 0 -9 0 10 -262144
-1 -1 6350 1;
#X msg 195 2858 start;
#X msg 249 2860 stop;
#X text 459 2818 BOOST;
#X floatatom 467 2982 5 0 0 0 - - -;
#X obj 546 2825 loadbang;
#X msg 542 2858 1;
#X obj 65 2783 delay 10000;
#X obj 148 2886 readsf~ 2;
#X obj 50 3300 dac~ 1 2 3 4 5 6 7 8 9 10 11 12 13 14 15 16 17 18;
#X obj 108 3224 *~;
#X obj 207 3218 *~;
#X obj 467 3126 vsl 15 128 0 2 0 0 empty empty empty 0 -9 0 10 -262144
-1 -1 6350 1;
#X msg 195 3138 start;
#X msg 249 3140 stop;
#X text 459 3098 BOOST;
#X floatatom 467 3262 5 0 0 0 - - -;
#X obj 546 3105 loadbang;
#X msg 542 3138 1;
#X obj 247 3058 delay 10000;
#X text 150 2801 RAPHA 1;
#X msg 148 2832 open audio/raphael_01.wav;
#X text 150 3082 RAPHA 2;
#X obj 134 3170 readsf~ 4;
#X obj 276 3213 *~;
#X obj 344 3215 *~;
#X obj 575 3268 delay 10000;
#X obj 738 3293 s restart;
#X obj 286 87 r restart;
#X obj 170 2242 delay 10000;
#X msg 148 3112 open audio/raphael_02.wav;
#X obj 252 32 zexy;
#X obj 459 93 time, f 12;
#X obj 422 298 change;
#X obj 460 47 metro 1000;
#X floatatom 447 152 5 0 0 0 - - -;
#X floatatom 496 151 5 0 0 0 - - -;
#X floatatom 549 153 5 0 0 0 - - -;
#X obj 464 22 tgl 15 0 empty empty empty 17 7 0 10 -262144 -1 -1 1
1;
#X obj 389 17 loadbang;
#X floatatom 447 203 5 0 0 0 - - -;
#X floatatom 497 203 5 0 0 0 - - -;
#X obj 471 239 &&;
#X floatatom 471 265 5 0 0 0 - - -;
#X obj 421 329 bng 15 250 50 0 empty empty empty 17 7 0 10 -262144
-1 -1;
#X text 548 180 SET TIME FOR START!!!!!;
#X obj 447 177 == 11;
#X obj 497 177 == 0;
#X obj 550 511 packOSC;
#X msg 659 431 connect localhost 3334;
#X obj 659 564 udpsend;
#X msg 550 477 send /inc \$1;
#X obj 660 371 loadbang;
#X msg 549 437 1;
#X obj 549 388 r inc_udp;
#X obj 825 291 s inc_udp;
#X obj 824 256 bng 15 250 50 0 empty empty empty 17 7 0 10 -262144
-1 -1;
#X obj 173 228 t b b;
#X obj 182 584 t b b;
#X obj 86 204 bng 15 250 50 0 empty empty empty 17 7 0 10 -262144 -1
-1;
#X obj 59 259 s inc_udp;
#X obj 82 631 s inc_udp;
#X obj 216 926 t b b;
#X obj 216 952 s inc_udp;
#X obj 223 1256 t b b;
#X obj 223 1282 s inc_udp;
#X obj 244 1647 t b b;
#X obj 244 1673 s inc_udp;
#X obj 243 1960 t b b;
#X obj 243 1986 s inc_udp;
#X obj 157 2265 t b b;
#X obj 136 2302 s inc_udp;
#X obj 45 2517 t b b;
#X obj 45 2543 s inc_udp;
#X obj 65 2809 t b b;
#X obj 65 2835 s inc_udp;
#X obj 247 3084 t b b;
#X obj 325 3086 s inc_udp;
#X obj 549 3295 s inc_udp;
#X floatatom 517 860 5 0 0 0 - - -;
#X obj 552 309 loadbang;
#X msg 552 335 1;
#X obj 580 700 loadbang;
#X msg 580 726 1;
#X obj 567 1393 loadbang;
#X obj 620 2263 loadbang;
#X msg 616 2296 1;
#X floatatom 497 1585 5 0 0 0 - - -;
#X msg 567 1419 0.724;
#X obj 663 2814 time, f 12;
#X obj 626 3019 change;
#X obj 664 2768 metro 1000;
#X floatatom 651 2873 5 0 0 0 - - -;
#X floatatom 700 2872 5 0 0 0 - - -;
#X floatatom 753 2874 5 0 0 0 - - -;
#X obj 668 2743 tgl 15 0 empty empty empty 17 7 0 10 -262144 -1 -1
0 1;
#X floatatom 651 2924 5 0 0 0 - - -;
#X floatatom 701 2924 5 0 0 0 - - -;
#X obj 675 2960 &&;
#X floatatom 694 3000 5 0 0 0 - - -;
#X obj 625 3050 bng 15 250 50 0 empty empty empty 17 7 0 10 -262144
-1 -1;
#X text 827 2876 SET TIME FOR START!!!!!;
#X obj 651 2898 == 12;
#X obj 701 2898 == 15;
#X obj 753 2899 == 6;
#X floatatom 753 2925 5 0 0 0 - - -;
#X obj 731 3043 &&;
#X floatatom 731 3069 5 0 0 0 - - -;
#X obj 355 407 *~;
#X obj 694 3268 bng 15 250 50 0 empty empty empty 17 7 0 10 -262144
-1 -1;
#X obj 171 351 readsf~ 8, f 22;
#X obj 395 407 *~;
#X msg 518 1013 1.527;
#X connect 0 0 1 0;
#X connect 1 0 3 0;
#X connect 1 1 4 0;
#X connect 1 2 106 0;
#X connect 3 0 2 0;
#X connect 3 0 2 1;
#X connect 3 0 2 2;
#X connect 3 0 2 3;
#X connect 3 0 2 4;
#X connect 3 0 2 5;
#X connect 3 0 2 6;
#X connect 3 0 2 7;
#X connect 4 0 2 10;
#X connect 4 0 2 11;
#X connect 4 0 2 12;
#X connect 4 0 2 13;
#X connect 4 0 2 14;
#X connect 4 0 2 15;
#X connect 4 0 2 16;
#X connect 4 0 2 17;
#X connect 5 0 4 1;
#X connect 5 0 3 1;
#X connect 5 0 15 0;
#X connect 6 0 1 0;
#X connect 7 0 1 0;
#X connect 8 0 10 0;
#X connect 8 1 11 0;
#X connect 8 2 101 0;
#X connect 10 0 9 0;
#X connect 10 0 9 1;
#X connect 10 0 9 5;
#X connect 10 0 9 6;
#X connect 10 0 9 7;
#X connect 11 0 9 17;
#X connect 11 0 9 15;
#X connect 11 0 9 11;
#X connect 11 0 9 12;
#X connect 11 0 9 13;
#X connect 12 0 11 1;
#X connect 12 0 10 1;
#X connect 12 0 200 0;
#X connect 13 0 8 0;
#X connect 14 0 8 0;
#X connect 17 0 16 0;
#X connect 17 0 16 1;
#X connect 17 0 16 2;
#X connect 18 0 16 15;
#X connect 18 0 16 16;
#X connect 18 0 16 17;
#X connect 19 0 18 1;
#X connect 19 0 17 1;
#X connect 19 0 28 1;
#X connect 19 0 29 1;
#X connect 19 0 30 1;
#X connect 19 0 31 0;
#X connect 20 0 223 0;
#X connect 21 0 223 0;
#X connect 22 0 8 0;
#X connect 27 0 16 3;
#X connect 27 0 16 4;
#X connect 27 0 16 5;
#X connect 28 0 16 6;
#X connect 28 0 16 7;
#X connect 29 0 16 10;
#X connect 29 0 16 11;
#X connect 30 0 16 12;
#X connect 30 0 16 13;
#X connect 30 0 16 14;
#X connect 31 0 221 1;
#X connect 32 0 34 0;
#X connect 32 1 35 0;
#X connect 32 2 96 0;
#X connect 34 0 33 0;
#X connect 34 0 33 1;
#X connect 34 0 33 3;
#X connect 34 0 33 4;
#X connect 34 0 33 5;
#X connect 34 0 33 6;
#X connect 34 0 33 7;
#X connect 34 0 33 8;
#X connect 35 0 33 12;
#X connect 35 0 33 13;
#X connect 35 0 33 15;
#X connect 35 0 33 16;
#X connect 35 0 33 17;
#X connect 35 0 33 9;
#X connect 36 0 35 1;
#X connect 36 0 34 1;
#X connect 36 0 192 0;
#X connect 37 0 32 0;
#X connect 38 0 32 0;
#X connect 40 0 32 0;
#X connect 43 0 42 0;
#X connect 43 0 42 1;
#X connect 43 0 42 6;
#X connect 43 0 42 7;
#X connect 43 0 42 3;
#X connect 43 0 42 4;
#X connect 43 0 42 5;
#X connect 43 0 42 2;
#X connect 44 0 42 17;
#X connect 44 0 42 14;
#X connect 44 0 42 12;
#X connect 44 0 42 13;
#X connect 44 0 42 11;
#X connect 44 0 42 10;
#X connect 44 0 42 15;
#X connect 44 0 42 16;
#X connect 45 0 44 1;
#X connect 45 0 43 1;
#X connect 45 0 49 0;
#X connect 46 0 99 0;
#X connect 47 0 99 0;
#X connect 50 0 225 0;
#X connect 52 0 53 0;
#X connect 54 0 52 0;
#X connect 56 0 55 0;
#X connect 56 0 55 1;
#X connect 56 0 55 6;
#X connect 56 0 55 7;
#X connect 56 0 55 3;
#X connect 56 0 55 4;
#X connect 56 0 55 5;
#X connect 57 0 55 17;
#X connect 57 0 55 14;
#X connect 57 0 55 12;
#X connect 57 0 55 13;
#X connect 57 0 55 11;
#X connect 58 0 57 1;
#X connect 58 0 56 1;
#X connect 58 0 67 0;
#X connect 58 0 65 1;
#X connect 58 0 64 1;
#X connect 59 0 66 0;
#X connect 60 0 66 0;
#X connect 62 0 66 0;
#X connect 64 0 55 8;
#X connect 65 0 55 9;
#X connect 66 0 56 0;
#X connect 66 1 57 0;
#X connect 66 2 64 0;
#X connect 66 3 65 0;
#X connect 66 4 105 0;
#X connect 68 0 69 0;
#X connect 69 0 58 0;
#X connect 71 0 70 0;
#X connect 71 0 70 1;
#X connect 71 0 70 6;
#X connect 71 0 70 7;
#X connect 71 0 70 3;
#X connect 71 0 70 4;
#X connect 71 0 70 5;
#X connect 71 0 70 2;
#X connect 72 0 70 17;
#X connect 72 0 70 14;
#X connect 72 0 70 12;
#X connect 72 0 70 13;
#X connect 72 0 70 11;
#X connect 72 0 70 10;
#X connect 72 0 70 15;
#X connect 72 0 70 16;
#X connect 73 0 72 1;
#X connect 73 0 71 1;
#X connect 73 0 77 0;
#X connect 74 0 104 0;
#X connect 75 0 104 0;
#X connect 78 0 79 0;
#X connect 79 0 73 0;
#X connect 81 0 80 0;
#X connect 81 0 80 1;
#X connect 81 0 80 6;
#X connect 81 0 80 7;
#X connect 81 0 80 3;
#X connect 81 0 80 4;
#X connect 81 0 80 5;
#X connect 81 0 80 2;
#X connect 82 0 80 17;
#X connect 82 0 80 14;
#X connect 82 0 80 12;
#X connect 82 0 80 13;
#X connect 82 0 80 11;
#X connect 82 0 80 10;
#X connect 82 0 80 15;
#X connect 82 0 80 16;
#X connect 83 0 82 1;
#X connect 83 0 81 1;
#X connect 83 0 87 0;
#X connect 84 0 109 0;
#X connect 85 0 109 0;
#X connect 88 0 89 0;
#X connect 89 0 83 0;
#X connect 90 0 51 0;
#X connect 90 0 91 0;
#X connect 91 0 92 0;
#X connect 92 0 170 0;
#X connect 93 0 223 0;
#X connect 94 0 171 0;
#X connect 96 0 175 0;
#X connect 98 0 99 0;
#X connect 99 0 43 0;
#X connect 99 1 44 0;
#X connect 99 2 100 0;
#X connect 100 0 177 0;
#X connect 101 0 179 0;
#X connect 102 0 104 0;
#X connect 104 0 71 0;
#X connect 104 1 72 0;
#X connect 104 2 142 0;
#X connect 105 0 181 0;
#X connect 106 0 185 0;
#X connect 108 0 109 0;
#X connect 109 0 81 0;
#X connect 109 1 82 0;
#X connect 109 2 120 0;
#X connect 111 0 110 0;
#X connect 111 0 110 1;
#X connect 111 0 110 6;
#X connect 111 0 110 7;
#X connect 111 0 110 3;
#X connect 111 0 110 4;
#X connect 111 0 110 5;
#X connect 111 0 110 2;
#X connect 112 0 110 17;
#X connect 112 0 110 14;
#X connect 112 0 110 12;
#X connect 112 0 110 13;
#X connect 112 0 110 11;
#X connect 112 0 110 10;
#X connect 112 0 110 15;
#X connect 112 0 110 16;
#X connect 113 0 112 1;
#X connect 113 0 111 1;
#X connect 113 0 117 0;
#X connect 114 0 121 0;
#X connect 115 0 121 0;
#X connect 118 0 119 0;
#X connect 119 0 113 0;
#X connect 120 0 187 0;
#X connect 121 0 111 0;
#X connect 121 1 112 0;
#X connect 121 2 132 0;
#X connect 123 0 122 0;
#X connect 123 0 122 1;
#X connect 123 0 122 6;
#X connect 123 0 122 7;
#X connect 123 0 122 3;
#X connect 123 0 122 4;
#X connect 123 0 122 5;
#X connect 123 0 122 2;
#X connect 124 0 122 17;
#X connect 124 0 122 14;
#X connect 124 0 122 12;
#X connect 124 0 122 13;
#X connect 124 0 122 11;
#X connect 124 0 122 10;
#X connect 124 0 122 15;
#X connect 124 0 122 16;
#X connect 125 0 124 1;
#X connect 125 0 123 1;
#X connect 125 0 129 0;
#X connect 126 0 136 0;
#X connect 127 0 136 0;
#X connect 129 0 137 1;
#X connect 129 0 138 1;
#X connect 130 0 131 0;
#X connect 131 0 125 0;
#X connect 132 0 189 0;
#X connect 134 0 121 0;
#X connect 136 0 123 0;
#X connect 136 1 124 0;
#X connect 136 2 137 0;
#X connect 136 3 138 0;
#X connect 136 4 139 0;
#X connect 137 0 122 8;
#X connect 138 0 122 9;
#X connect 139 0 191 0;
#X connect 139 0 222 0;
#X connect 141 0 90 0;
#X connect 142 0 183 0;
#X connect 143 0 136 0;
#X connect 145 0 148 0;
#X connect 145 1 149 0;
#X connect 145 2 150 0;
#X connect 146 0 157 0;
#X connect 147 0 145 0;
#X connect 148 0 159 0;
#X connect 149 0 160 0;
#X connect 151 0 147 0;
#X connect 152 0 151 0;
#X connect 153 0 155 0;
#X connect 154 0 155 1;
#X connect 155 0 156 0;
#X connect 156 0 146 0;
#X connect 157 0 90 0;
#X connect 159 0 153 0;
#X connect 160 0 154 0;
#X connect 161 0 163 0;
#X connect 162 0 163 0;
#X connect 164 0 161 0;
#X connect 165 0 162 0;
#X connect 166 0 164 0;
#X connect 167 0 166 0;
#X connect 169 0 168 0;
#X connect 170 0 20 0;
#X connect 170 0 173 0;
#X connect 170 1 93 0;
#X connect 171 0 37 0;
#X connect 171 0 174 0;
#X connect 171 1 40 0;
#X connect 172 0 170 0;
#X connect 175 0 176 0;
#X connect 175 0 46 0;
#X connect 175 1 98 0;
#X connect 177 0 178 0;
#X connect 177 0 13 0;
#X connect 177 1 22 0;
#X connect 179 0 180 0;
#X connect 179 0 59 0;
#X connect 179 1 62 0;
#X connect 181 0 182 0;
#X connect 181 0 74 0;
#X connect 181 1 102 0;
#X connect 183 0 184 0;
#X connect 183 0 6 0;
#X connect 183 1 0 0;
#X connect 185 0 84 0;
#X connect 185 0 186 0;
#X connect 185 1 108 0;
#X connect 187 0 114 0;
#X connect 187 0 188 0;
#X connect 187 1 134 0;
#X connect 189 0 190 0;
#X connect 189 0 126 0;
#X connect 189 1 143 0;
#X connect 193 0 194 0;
#X connect 194 0 19 0;
#X connect 195 0 196 0;
#X connect 196 0 36 0;
#X connect 197 0 201 0;
#X connect 198 0 199 0;
#X connect 199 0 5 0;
#X connect 201 0 12 0;
#X connect 202 0 205 0;
#X connect 202 1 206 0;
#X connect 202 2 207 0;
#X connect 203 0 213 0;
#X connect 204 0 202 0;
#X connect 205 0 215 0;
#X connect 206 0 216 0;
#X connect 207 0 217 0;
#X connect 208 0 204 0;
#X connect 209 0 211 0;
#X connect 210 0 211 1;
#X connect 211 0 212 0;
#X connect 212 0 219 0;
#X connect 213 0 189 0;
#X connect 215 0 209 0;
#X connect 216 0 210 0;
#X connect 217 0 218 0;
#X connect 218 0 219 1;
#X connect 219 0 220 0;
#X connect 220 0 203 0;
#X connect 221 0 16 8;
#X connect 221 0 16 9;
#X connect 221 0 16 16;
#X connect 221 0 16 4;
#X connect 222 0 140 0;
#X connect 223 0 17 0;
#X connect 223 1 27 0;
#X connect 223 2 28 0;
#X connect 223 3 29 0;
#X connect 223 4 30 0;
#X connect 223 5 18 0;
#X connect 223 6 221 0;
#X connect 223 7 224 0;
#X connect 223 8 94 0;
#X connect 224 0 16 7;
#X connect 224 0 16 10;
#X connect 225 0 45 0;
