#N canvas 2248 362 543 234 10;
#X msg 109 88 start;
#X obj 160 10 inlet;
#X obj 163 121 readsf~ 2;
#X obj 145 157 outlet~;
#X obj 205 157 outlet~;
#X obj 264 75 inlet;
#X text 302 73 stop command;
#X msg 158 88 open \$1;
#X obj 193 60 symbol;
#X obj 212 32 symbol \$1;
#X obj 113 51 delay 200;
#X obj 272 157 outlet;
#X text 271 178 sends bang at end of file;
#X connect 0 0 2 0;
#X connect 1 0 9 0;
#X connect 1 0 10 0;
#X connect 2 0 3 0;
#X connect 2 1 4 0;
#X connect 2 2 11 0;
#X connect 5 0 2 0;
#X connect 7 0 2 0;
#X connect 8 0 7 0;
#X connect 9 0 8 1;
#X connect 9 0 8 0;
#X connect 10 0 0 0;
