#N canvas 970 389 549 441 10;
#X obj 352 190 snapshot~;
#X obj 130 136 metro 1000;
#X floatatom 352 210 5 0 0 0 - - -, f 5;
#X text 391 169 amp number;
#X obj 122 387 outlet~;
#X obj 172 387 outlet~;
#X obj 120 270 inlet~;
#X obj 162 270 inlet~;
#X obj 147 72 inlet;
#X floatatom 263 213 5 0 0 0 - - -, f 5;
#X text 263 120 Multiplikator: Liedlänge in s / 10;
#X obj 275 359 outlet;
#X obj 263 136 i \$2;
#X obj 352 170 r~ \$3;
#X obj 122 367 vcf~;
#X obj 162 367 vcf~;
#X obj 181 335 sig~;
#X msg 145 233 10;
#X obj 272 264 spigot;
#X obj 260 312 line;
#X obj 352 233 > 0.95;
#X obj 217 168 i \$1;
#X obj 217 192 i;
#X floatatom 353 293 5 0 0 0 - - -, f 5;
#X floatatom 217 212 5 0 0 0 - - -, f 5;
#X floatatom 349 257 5 0 0 0 - - -, f 5;
#X obj 219 233 -;
#X msg 260 292 \$1 5000;
#X floatatom 296 334 5 0 0 0 - - -, f 5;
#X floatatom 222 338 5 0 0 0 - - -, f 5;
#X obj 57 206 i \$1;
#X obj 57 226 i;
#X floatatom 57 246 5 0 0 0 - - -, f 5;
#X obj 147 99 delay 50;
#X text 107 169 Startwert für lpf;
#X text 18 9 \$1 = Startwert Lpf \$2 = Multiplikator für Subtraktion
;
#X obj 222 357 ftom;
#X floatatom 222 377 5 0 0 0 - - -, f 5;
#X connect 0 0 2 0;
#X connect 1 0 0 0;
#X connect 1 0 22 0;
#X connect 2 0 20 0;
#X connect 6 0 14 0;
#X connect 7 0 15 0;
#X connect 8 0 33 0;
#X connect 8 0 30 0;
#X connect 9 0 26 1;
#X connect 12 0 9 0;
#X connect 13 0 0 0;
#X connect 14 0 4 0;
#X connect 15 0 5 0;
#X connect 16 0 14 1;
#X connect 16 0 15 1;
#X connect 17 0 15 2;
#X connect 17 0 14 2;
#X connect 18 0 23 0;
#X connect 18 0 27 0;
#X connect 19 0 22 1;
#X connect 19 0 28 0;
#X connect 19 0 11 0;
#X connect 19 0 16 0;
#X connect 19 0 29 0;
#X connect 20 0 18 1;
#X connect 20 0 25 0;
#X connect 21 0 22 0;
#X connect 22 0 24 0;
#X connect 24 0 26 0;
#X connect 26 0 18 0;
#X connect 27 0 19 0;
#X connect 29 0 36 0;
#X connect 30 0 31 0;
#X connect 31 0 32 0;
#X connect 32 0 16 0;
#X connect 32 0 11 0;
#X connect 33 0 1 0;
#X connect 33 0 17 0;
#X connect 33 0 21 0;
#X connect 33 0 12 0;
#X connect 36 0 37 0;
