#N canvas -2 0 958 998 12;
#X obj 19 17 tgl 15 0 empty empty empty 17 7 0 10 -262144 -1 -1 1 1
;
#X msg 17 45 \; pd dsp \$1;
#X obj 56 114 bng 15 250 50 0 empty empty empty 17 7 0 10 -262144 -1
-1;
#X obj 306 190 line 0;
#X msg 237 186 set 0;
#N canvas 779 187 724 632 01EdSheeranShape 0;
#X msg 242 229 start;
#X floatatom 446 357 5 0 0 0 - - -, f 5;
#X msg 471 318 0, f 6;
#X floatatom 507 354 5 0 0 0 - - -, f 5;
#X msg 257 169 open 01EdSheeranShape.wav;
#X obj 161 16 inlet;
#X obj 161 158 delay 200;
#X obj 315 281 readsf~ 2;
#X obj 327 440 outlet~;
#X obj 387 440 outlet~;
#X obj 19 17 tgl 15 0 empty empty empty 17 7 0 10 -262144 -1 -1 0 1
;
#X msg 17 45 \; pd dsp \$1;
#X obj 562 309 inlet;
#X obj 328 396 vcf~, f 5;
#X obj 384 358 sig~;
#X obj 380 396 vcf~, f 5;
#X obj 452 276 inlet;
#X obj 362 222 inlet;
#X connect 0 0 7 0;
#X connect 1 0 14 0;
#X connect 2 0 1 0;
#X connect 2 0 3 0;
#X connect 3 0 13 2;
#X connect 3 0 15 2;
#X connect 4 0 7 0;
#X connect 5 0 6 0;
#X connect 5 0 4 0;
#X connect 6 0 0 0;
#X connect 7 0 8 0;
#X connect 7 1 9 0;
#X connect 10 0 11 0;
#X connect 12 0 3 0;
#X connect 14 0 13 1;
#X connect 14 0 15 1;
#X connect 16 0 1 0;
#X connect 17 0 7 0;
#X restore 56 239 pd 01EdSheeranShape;
#X obj 214 142 delay 200;
#X msg 180 200 10;
#X msg 115 112 stop;
#X obj 56 354 bng 15 250 50 0 empty empty empty 17 7 0 10 -262144 -1
-1;
#X obj 214 382 delay 200;
#X msg 180 440 10;
#X msg 116 353 stop;
#N canvas 203 88 724 632 02WizkidDance 0;
#X msg 242 229 start;
#X msg 491 318 0, f 6;
#X obj 161 16 inlet;
#X obj 161 158 delay 200;
#X obj 326 282 readsf~ 2;
#X obj 327 440 outlet~;
#X obj 387 440 outlet~;
#X obj 19 17 tgl 15 0 empty empty empty 17 7 0 10 -262144 -1 -1 0 1
;
#X msg 17 45 \; pd dsp \$1;
#X obj 582 309 inlet;
#X obj 362 222 inlet;
#X msg 257 169 open 02WizkidDance.wav;
#X floatatom 446 357 5 0 0 0 - - -, f 5;
#X floatatom 507 354 5 0 0 0 - - -, f 5;
#X obj 328 396 vcf~, f 5;
#X obj 386 353 sig~;
#X obj 380 396 vcf~, f 5;
#X obj 465 277 inlet;
#X connect 0 0 4 0;
#X connect 1 0 12 0;
#X connect 1 0 13 0;
#X connect 2 0 11 0;
#X connect 2 0 3 0;
#X connect 3 0 0 0;
#X connect 4 0 5 0;
#X connect 4 1 6 0;
#X connect 7 0 8 0;
#X connect 9 0 13 0;
#X connect 10 0 4 0;
#X connect 11 0 4 0;
#X connect 12 0 15 0;
#X connect 13 0 14 2;
#X connect 13 0 16 2;
#X connect 15 0 14 1;
#X connect 15 0 16 1;
#X connect 17 0 12 0;
#X restore 56 479 pd 02WizkidDance;
#X obj 56 594 bng 15 250 50 0 empty empty empty 17 7 0 10 -262144 -1
-1;
#X obj 306 670 line 0;
#X obj 214 622 delay 200;
#X msg 214 695 10;
#X msg 116 593 stop;
#N canvas 957 276 724 632 03ChainsmokersCloser 0;
#X msg 242 229 start;
#X msg 471 318 0, f 6;
#X obj 161 16 inlet;
#X obj 161 158 delay 200;
#X obj 315 281 readsf~ 2;
#X obj 327 440 outlet~;
#X obj 387 440 outlet~;
#X obj 19 17 tgl 15 0 empty empty empty 17 7 0 10 -262144 -1 -1 0 1
;
#X msg 17 45 \; pd dsp \$1;
#X obj 562 309 inlet;
#X obj 362 222 inlet;
#X msg 257 169 open 03ChainsmokersCloser.wav;
#X obj 446 275 r bpfreq03;
#X floatatom 446 357 5 0 0 0 - - -, f 5;
#X floatatom 507 354 5 0 0 0 - - -, f 5;
#X obj 328 396 vcf~, f 5;
#X obj 384 358 sig~;
#X obj 380 396 vcf~, f 5;
#X connect 0 0 4 0;
#X connect 1 0 13 0;
#X connect 1 0 14 0;
#X connect 2 0 11 0;
#X connect 2 0 3 0;
#X connect 3 0 0 0;
#X connect 4 0 5 0;
#X connect 4 1 6 0;
#X connect 7 0 8 0;
#X connect 9 0 14 0;
#X connect 10 0 4 0;
#X connect 11 0 4 0;
#X connect 12 0 13 0;
#X connect 13 0 16 0;
#X connect 14 0 15 2;
#X connect 14 0 17 2;
#X connect 16 0 15 1;
#X connect 16 0 17 1;
#X restore 56 719 pd 03ChainsmokersCloser;
#X obj 306 699 s bpfreq03;
#X obj 178 298 s~ out_1_R;
#X obj 164 527 s~ out_2_R;
#X obj 56 765 s~ out_3_L;
#X obj 214 764 s~ out_3_R;
#X obj 56 854 bng 15 250 50 0 empty empty empty 17 7 0 10 -262144 -1
-1;
#X obj 306 930 line 0;
#X obj 214 882 delay 200;
#X msg 165 954 10;
#X msg 116 853 stop;
#X obj 56 1055 s~ out_4_L;
#X obj 164 1055 s~ out_4_R;
#N canvas 1072 255 724 632 04LazerLeanOn 0;
#X msg 242 229 start;
#X msg 471 318 0, f 6;
#X obj 161 16 inlet;
#X obj 161 158 delay 200;
#X obj 315 281 readsf~ 2;
#X obj 327 440 outlet~;
#X obj 387 440 outlet~;
#X obj 19 17 tgl 15 0 empty empty empty 17 7 0 10 -262144 -1 -1 0 1
;
#X msg 17 45 \; pd dsp \$1;
#X obj 562 309 inlet;
#X obj 362 222 inlet;
#X msg 257 169 open 04LazerLeanOn.wav;
#X obj 446 275 r bpfreq04;
#X floatatom 446 357 5 0 0 0 - - -, f 5;
#X floatatom 507 354 5 0 0 0 - - -, f 5;
#X obj 328 396 vcf~, f 5;
#X obj 384 358 sig~;
#X obj 380 396 vcf~, f 5;
#X connect 0 0 4 0;
#X connect 1 0 13 0;
#X connect 1 0 14 0;
#X connect 2 0 11 0;
#X connect 2 0 3 0;
#X connect 3 0 0 0;
#X connect 4 0 5 0;
#X connect 4 1 6 0;
#X connect 7 0 8 0;
#X connect 9 0 14 0;
#X connect 10 0 4 0;
#X connect 11 0 4 0;
#X connect 12 0 13 0;
#X connect 13 0 16 0;
#X connect 14 0 15 2;
#X connect 14 0 17 2;
#X connect 16 0 15 1;
#X connect 16 0 17 1;
#X restore 56 979 pd 04LazerLeanOn;
#X text 161 352 02:55 - 175000ms;
#X text 158 593 04:06 - 246000ms;
#X text 163 112 03:53 - 233000ms;
#X text 180 860 02:57 - 177000ms;
#X obj 306 959 s bpfreq04;
#X obj 306 431 line 0;
#X obj 121 51 s play;
#X obj 121 28 bng 15 250 50 0 empty empty empty 17 7 0 10 -262144 -1
-1;
#X obj 56 88 r play;
#X obj 56 328 r play;
#X obj 56 564 r play;
#X obj 56 829 r play;
#X obj 185 30 bng 15 250 50 0 empty empty empty 17 7 0 10 -262144 -1
-1;
#X obj 185 50 s stop;
#X obj 116 89 r stop;
#X obj 116 328 r stop;
#X obj 116 565 r stop;
#X obj 116 829 r stop;
#X msg 237 666 set 500;
#X msg 225 929 set 700;
#X obj 56 1114 bng 15 250 50 0 empty empty empty 17 7 0 10 -262144
-1 -1;
#X obj 303 1198 line 0;
#X obj 286 1220 hsl 128 15 0 10000 0 0 empty empty empty -2 -8 0 10
-232576 -1 -1 843 1;
#X obj 176 1140 delay 200;
#X msg 116 1113 stop;
#X obj 56 1089 r play;
#X obj 116 1089 r stop;
#N canvas 833 207 724 632 05SheeranThinking 0;
#X msg 242 229 start;
#X floatatom 450 357 5 0 0 0 - - -, f 5;
#X msg 471 318 0, f 6;
#X floatatom 500 359 5 0 0 0 - - -, f 5;
#X obj 161 16 inlet;
#X obj 161 158 delay 200;
#X obj 315 281 readsf~ 2;
#X obj 327 440 outlet~;
#X obj 387 440 outlet~;
#X obj 19 17 tgl 15 0 empty empty empty 17 7 0 10 -262144 -1 -1 0 1
;
#X msg 17 45 \; pd dsp \$1;
#X obj 562 309 inlet;
#X obj 362 222 inlet;
#X msg 257 169 open 05SheeranThinking.wav;
#X obj 472 236 inlet;
#X obj 328 396 vcf~, f 5;
#X obj 380 396 vcf~, f 5;
#X obj 353 368 sig~;
#X connect 0 0 6 0;
#X connect 1 0 17 0;
#X connect 2 0 1 0;
#X connect 2 0 3 0;
#X connect 3 0 16 2;
#X connect 3 0 15 2;
#X connect 4 0 13 0;
#X connect 4 0 5 0;
#X connect 5 0 0 0;
#X connect 6 0 7 0;
#X connect 6 1 8 0;
#X connect 9 0 10 0;
#X connect 11 0 3 0;
#X connect 12 0 6 0;
#X connect 12 0 1 0;
#X connect 13 0 6 0;
#X connect 14 0 1 0;
#X connect 17 0 15 1;
#X connect 17 0 16 1;
#X restore 56 1238 pd 05SheeranThinking;
#X obj 56 1313 s~ out_5_L;
#X obj 192 1312 s~ out_5_R;
#X text 180 1120 04:40 - 280000ms;
#X obj 56 1364 bng 15 250 50 0 empty empty empty 17 7 0 10 -262144
-1 -1;
#X obj 303 1448 line 0;
#X obj 410 1532 hsl 128 15 0 10000 0 0 empty empty empty -2 -8 0 10
-232576 -1 -1 4995 1;
#X obj 176 1390 delay 200;
#X msg 116 1363 stop;
#X msg 303 1427 10000 280000;
#X obj 56 1339 r play;
#X obj 116 1339 r stop;
#N canvas 1072 255 724 632 06FonsiDespacito 0;
#X msg 242 229 start;
#X floatatom 446 357 5 0 0 0 - - -, f 5;
#X msg 471 318 0, f 6;
#X floatatom 507 354 5 0 0 0 - - -, f 5;
#X obj 161 16 inlet;
#X obj 161 158 delay 200;
#X obj 315 281 readsf~ 2;
#X obj 327 440 outlet~;
#X obj 387 440 outlet~;
#X obj 19 17 tgl 15 0 empty empty empty 17 7 0 10 -262144 -1 -1 0 1
;
#X msg 17 45 \; pd dsp \$1;
#X obj 562 309 inlet;
#X obj 362 222 inlet;
#X obj 472 236 inlet;
#X msg 257 169 open 06FonsiDespacito.wav;
#X obj 326 409 vcf~;
#X obj 386 409 vcf~;
#X obj 389 368 sig~;
#X connect 0 0 6 0;
#X connect 1 0 17 0;
#X connect 2 0 1 0;
#X connect 2 0 3 0;
#X connect 3 0 16 2;
#X connect 3 0 15 2;
#X connect 4 0 14 0;
#X connect 4 0 5 0;
#X connect 5 0 0 0;
#X connect 6 0 7 0;
#X connect 6 1 8 0;
#X connect 9 0 10 0;
#X connect 11 0 3 0;
#X connect 12 0 6 0;
#X connect 12 0 1 0;
#X connect 13 0 1 0;
#X connect 14 0 6 0;
#X connect 17 0 16 1;
#X connect 17 0 15 1;
#X restore 56 1488 pd 06FonsiDespacito;
#X obj 56 1553 s~ out_6_L;
#X obj 192 1552 s~ out_6_R;
#X obj 407 1402 sin;
#X floatatom 407 1327 0 0 0 0 - - -;
#X floatatom 407 1423 0 0 0 0 - - -;
#X obj 407 1379 * 6.28319;
#X obj 407 1353 / 360;
#X obj 407 1444 abs;
#X floatatom 407 1465 5 0 0 0 - - -, f 5;
#X msg 193 1458 25;
#X text 180 1370 03:52 - 232000ms;
#X obj 407 1485 * 5000;
#X msg 181 1425 set 7500;
#X obj 58 1637 bng 15 250 50 0 empty empty empty 17 7 0 10 -262144
-1 -1;
#X obj 305 1721 line 0;
#X obj 341 1783 hsl 128 15 0 10000 0 0 empty empty empty -2 -8 0 10
-232576 -1 -1 9115 1;
#X obj 178 1663 delay 200;
#X msg 118 1636 stop;
#X obj 58 1612 r play;
#X obj 118 1612 r stop;
#N canvas 1072 255 724 632 07BieberSorry 0;
#X msg 242 229 start;
#X floatatom 445 356 5 0 0 0 - - -, f 5;
#X msg 471 318 0, f 6;
#X floatatom 507 354 5 0 0 0 - - -, f 5;
#X obj 161 16 inlet;
#X obj 161 158 delay 200;
#X obj 315 281 readsf~ 2;
#X obj 327 440 outlet~;
#X obj 387 440 outlet~;
#X obj 19 17 tgl 15 0 empty empty empty 17 7 0 10 -262144 -1 -1 0 1
;
#X msg 17 45 \; pd dsp \$1;
#X obj 562 309 inlet;
#X obj 362 222 inlet;
#X obj 472 236 inlet;
#X msg 257 169 open 07BieberSorry.wav;
#X obj 315 401 vcf~;
#X obj 370 401 vcf~;
#X obj 379 368 sig~;
#X connect 0 0 6 0;
#X connect 1 0 17 0;
#X connect 2 0 1 0;
#X connect 2 0 3 0;
#X connect 3 0 15 2;
#X connect 3 0 16 2;
#X connect 4 0 14 0;
#X connect 4 0 5 0;
#X connect 5 0 0 0;
#X connect 6 0 7 0;
#X connect 6 1 8 0;
#X connect 9 0 10 0;
#X connect 11 0 3 0;
#X connect 12 0 6 0;
#X connect 12 0 1 0;
#X connect 13 0 1 0;
#X connect 14 0 6 0;
#X connect 17 0 15 1;
#X connect 17 0 16 1;
#X restore 58 1761 pd 07BieberSorry;
#X text 182 1643 03:20 - 200000ms;
#X obj 58 1836 s~ out_7_L;
#X obj 166 1835 s~ out_7_R;
#X obj 407 1506 + 300;
#X obj 409 1704 sin;
#X floatatom 409 1636 0 0 0 0 - - -;
#X floatatom 409 1725 0 0 0 0 - - -;
#X obj 409 1681 * 6.28319;
#X obj 409 1655 / 360;
#X obj 279 982 hsl 128 15 0 10000 0 0 empty empty empty -2 -8 0 10
-232576 -1 -1 5025 1;
#X obj 286 720 hsl 128 15 0 10000 0 0 empty empty empty -2 -8 0 10
-232576 -1 -1 3675 1;
#X obj 280 478 hsl 128 15 0 10000 0 0 empty empty empty -2 -8 0 10
-232576 -1 -1 6 1;
#X obj 409 302 hsl 128 15 0 10000 0 0 empty empty empty -2 -8 0 10
-232576 -1 -1 1165 1;
#X obj 338 1750 +;
#X obj 408 1594 metro 40;
#X obj 408 1615 int;
#X obj 439 1615 + 1;
#X obj 409 1747 * 1500;
#X msg 305 1700 0 200000;
#X msg 183 1698 set 8500;
#X msg 195 1730 40;
#X obj 56 1924 bng 15 250 50 0 empty empty empty 17 7 0 10 -262144
-1 -1;
#X obj 495 2995 hsl 128 15 0 10000 0 0 empty empty empty -2 -8 0 10
-232576 -1 -1 3987 1;
#X msg 116 1923 stop;
#X obj 56 1899 r play;
#X obj 116 1899 r stop;
#X obj 407 1962 sin;
#X floatatom 407 1983 0 0 0 0 - - -;
#X obj 407 1939 * 6.28319;
#X obj 407 1913 / 360;
#X obj 407 2004 abs;
#X floatatom 407 2025 5 0 0 0 - - -, f 5;
#N canvas 1072 255 724 632 08BieberLove 0;
#X msg 242 229 start;
#X floatatom 446 357 5 0 0 0 - - -, f 5;
#X msg 471 318 0, f 6;
#X floatatom 506 358 5 0 0 0 - - -, f 5;
#X obj 161 16 inlet;
#X obj 161 158 delay 200;
#X obj 315 281 readsf~ 2;
#X obj 327 440 outlet~;
#X obj 387 440 outlet~;
#X obj 19 17 tgl 15 0 empty empty empty 17 7 0 10 -262144 -1 -1 0 1
;
#X msg 17 45 \; pd dsp \$1;
#X obj 562 309 inlet;
#X obj 362 222 inlet;
#X obj 472 236 inlet;
#X obj 326 409 vcf~;
#X obj 386 409 vcf~;
#X msg 257 169 open 08BieberLove.wav;
#X obj 393 369 sig~;
#X connect 0 0 6 0;
#X connect 1 0 17 0;
#X connect 2 0 1 0;
#X connect 2 0 3 0;
#X connect 3 0 15 2;
#X connect 3 0 14 2;
#X connect 4 0 16 0;
#X connect 4 0 5 0;
#X connect 5 0 0 0;
#X connect 6 0 7 0;
#X connect 6 1 8 0;
#X connect 9 0 10 0;
#X connect 11 0 3 0;
#X connect 12 0 6 0;
#X connect 12 0 1 0;
#X connect 13 0 1 0;
#X connect 16 0 6 0;
#X connect 17 0 15 1;
#X connect 17 0 14 1;
#X restore 56 2048 pd 08BieberLove;
#X obj 56 2113 s~ out_8_L;
#X msg 193 2018 50;
#X msg 338 2032 5000;
#X obj 335 2053 +;
#X floatatom 407 2066 5 0 0 0 - - -, f 5;
#X obj 407 2045 * 5000;
#X obj 407 1871 i;
#X obj 454 1883 + 1;
#X floatatom 407 1892 5 0 0 0 - - -, f 5;
#X text 180 1930 03:53 - 233000ms;
#X obj 407 1850 metro 140;
#X text 475 2093 oscillates between 5000 and 10000 Hz;
#X text 552 1531 oscillates between 300 and 5000 Hz;
#X msg 305 404 10000 175000;
#X msg 306 644 10000 246000;
#X msg 305 903 10000 177000;
#X obj 56 2194 bng 15 250 50 0 empty empty empty 17 7 0 10 -262144
-1 -1;
#X msg 116 2193 stop;
#X obj 56 2169 r play;
#X obj 116 2169 r stop;
#N canvas 219 159 724 632 09ChainSmokersLetDown 0;
#X msg 242 229 start;
#X msg 471 318 0, f 6;
#X obj 161 16 inlet;
#X obj 161 158 delay 200;
#X obj 315 281 readsf~ 2;
#X obj 327 440 outlet~;
#X obj 387 440 outlet~;
#X obj 19 17 tgl 15 0 empty empty empty 17 7 0 10 -262144 -1 -1 0 1
;
#X msg 17 45 \; pd dsp \$1;
#X obj 562 309 inlet;
#X obj 362 222 inlet;
#X obj 472 236 inlet;
#X msg 257 168 open 09ChainSmokersLetDown.wav;
#X floatatom 445 357 5 0 0 0 - - -, f 5;
#X floatatom 505 358 5 0 0 0 - - -, f 5;
#X obj 325 409 vcf~;
#X obj 385 409 vcf~;
#X obj 392 369 sig~;
#X connect 0 0 4 0;
#X connect 1 0 13 0;
#X connect 1 0 14 0;
#X connect 2 0 12 0;
#X connect 2 0 3 0;
#X connect 3 0 0 0;
#X connect 4 0 5 0;
#X connect 4 1 6 0;
#X connect 7 0 8 0;
#X connect 9 0 14 0;
#X connect 10 0 4 0;
#X connect 11 0 13 0;
#X connect 12 0 4 0;
#X connect 13 0 17 0;
#X connect 14 0 16 2;
#X connect 14 0 15 2;
#X connect 17 0 16 1;
#X connect 17 0 15 1;
#X restore 56 2318 pd 09ChainSmokersLetDown;
#X obj 56 2373 s~ out_9_L;
#X obj 222 2372 s~ out_9_R;
#X text 180 2200 03:29 - 209000ms;
#X floatatom 386 2211 0 0 0 0 - - -;
#X floatatom 386 2320 0 0 0 0 - - -;
#X obj 386 2256 * 6.28319;
#X obj 386 2230 / 360;
#X obj 385 2190 int;
#X obj 416 2190 + 1;
#X msg 124 2287 set 122;
#X obj 386 2280 sin;
#X obj 386 2301 abs;
#X obj 385 2169 metro 400;
#X text 465 2301 constant 122Hz \, varying Q;
#X obj 56 2434 bng 15 250 50 0 empty empty empty 17 7 0 10 -262144
-1 -1;
#X msg 116 2433 stop;
#X obj 56 2409 r play;
#X obj 116 2409 r stop;
#X floatatom 600 2545 0 0 0 0 - - -;
#X obj 600 2590 * 6.28319;
#X obj 600 2564 / 360;
#X obj 599 2524 int;
#X obj 630 2524 + 1;
#X obj 600 2614 sin;
#X obj 600 2635 abs;
#N canvas 1072 255 724 632 10MaloneRockstar 0;
#X msg 242 229 start;
#X msg 471 318 0, f 6;
#X obj 161 16 inlet;
#X obj 161 158 delay 200;
#X obj 315 281 readsf~ 2;
#X obj 327 440 outlet~;
#X obj 387 440 outlet~;
#X obj 19 17 tgl 15 0 empty empty empty 17 7 0 10 -262144 -1 -1 0 1
;
#X msg 17 45 \; pd dsp \$1;
#X obj 562 309 inlet;
#X obj 362 222 inlet;
#X obj 472 236 inlet;
#X msg 257 168 open 10MaloneRockstar.wav;
#X floatatom 446 357 5 0 0 0 - - -, f 5;
#X floatatom 506 358 5 0 0 0 - - -, f 5;
#X obj 326 409 vcf~;
#X obj 386 409 vcf~;
#X obj 393 369 sig~;
#X connect 0 0 4 0;
#X connect 1 0 13 0;
#X connect 1 0 14 0;
#X connect 2 0 12 0;
#X connect 2 0 3 0;
#X connect 3 0 0 0;
#X connect 4 0 5 0;
#X connect 4 1 6 0;
#X connect 7 0 8 0;
#X connect 9 0 14 0;
#X connect 10 0 4 0;
#X connect 11 0 13 0;
#X connect 12 0 4 0;
#X connect 13 0 17 0;
#X connect 14 0 16 2;
#X connect 14 0 15 2;
#X connect 17 0 16 1;
#X connect 17 0 15 1;
#X restore 56 2558 pd 10MaloneRockstar;
#X obj 56 2613 s~ out_10_L;
#X obj 186 2612 s~ out_10_R;
#X obj 599 2503 metro 200;
#X text 180 2440 03:40 - 220000ms;
#X msg 296 2510 5;
#X obj 296 2531 +;
#X floatatom 600 2656 5 0 0 0 - - -, f 5;
#X obj 342 2566 * 2;
#X obj 56 2674 bng 15 250 50 0 empty empty empty 17 7 0 10 -262144
-1 -1;
#X msg 116 2673 stop;
#X obj 56 2649 r play;
#X obj 116 2649 r stop;
#X msg 296 2750 5;
#X obj 296 2771 +;
#X obj 55 2863 s~ out_11_L;
#X obj 193 2862 s~ out_11_R;
#N canvas 246 207 724 632 11PosnerIbizaPill 0;
#X msg 242 229 start;
#X floatatom 446 351 5 0 0 0 - - -, f 5;
#X msg 471 318 0, f 6;
#X floatatom 507 354 5 0 0 0 - - -, f 5;
#X obj 161 16 inlet;
#X obj 161 158 delay 200;
#X obj 314 287 readsf~ 2;
#X obj 327 440 outlet~;
#X obj 387 440 outlet~;
#X obj 19 17 tgl 15 0 empty empty empty 17 7 0 10 -262144 -1 -1 0 1
;
#X msg 17 45 \; pd dsp \$1;
#X obj 562 309 inlet;
#X obj 362 222 inlet;
#X obj 472 236 inlet;
#X msg 257 168 open 11PosnerIbizaPill.wav;
#X obj 328 396 vcf~, f 5;
#X obj 380 396 vcf~, f 5;
#X obj 382 357 sig~;
#X connect 0 0 6 0;
#X connect 1 0 17 0;
#X connect 2 0 1 0;
#X connect 2 0 3 0;
#X connect 3 0 15 2;
#X connect 3 0 16 2;
#X connect 4 0 14 0;
#X connect 4 0 5 0;
#X connect 5 0 0 0;
#X connect 6 0 7 0;
#X connect 6 1 8 0;
#X connect 9 0 10 0;
#X connect 11 0 3 0;
#X connect 12 0 6 0;
#X connect 12 0 1 0;
#X connect 13 0 1 0;
#X connect 14 0 6 0;
#X connect 17 0 15 1;
#X connect 17 0 16 1;
#X restore 55 2798 pd 11PosnerIbizaPill;
#X msg 124 2767 set 3000;
#X text 299 2830 constant 3000Hz \, varying Q;
#X obj 342 2806 * 3;
#X text 179 2680 03:15 - 195000ms;
#X obj 56 2914 bng 15 250 50 0 empty empty empty 17 7 0 10 -262144
-1 -1;
#X obj 306 2990 line 0;
#X obj 214 2942 delay 200;
#X msg 165 3014 10;
#X msg 116 2913 stop;
#X obj 56 2889 r play;
#X obj 116 2889 r stop;
#N canvas 281 227 724 632 12WeekendStarboy 0;
#X msg 242 229 start;
#X floatatom 445 359 5 0 0 0 - - -, f 5;
#X msg 471 318 0, f 6;
#X floatatom 507 354 5 0 0 0 - - -, f 5;
#X obj 161 16 inlet;
#X obj 161 158 delay 200;
#X obj 315 281 readsf~ 2;
#X obj 327 440 outlet~;
#X obj 387 440 outlet~;
#X obj 19 17 tgl 15 0 empty empty empty 17 7 0 10 -262144 -1 -1 0 1
;
#X msg 17 45 \; pd dsp \$1;
#X obj 562 309 inlet;
#X obj 362 222 inlet;
#X msg 257 169 open 12WeekendStarboy.wav;
#X obj 446 275 inlet;
#X obj 359 368 sig~;
#X obj 328 396 vcf~, f 5;
#X obj 380 396 vcf~, f 5;
#X connect 0 0 6 0;
#X connect 1 0 15 0;
#X connect 1 0 17 2;
#X connect 1 0 16 2;
#X connect 2 0 1 0;
#X connect 2 0 3 0;
#X connect 4 0 13 0;
#X connect 4 0 5 0;
#X connect 5 0 0 0;
#X connect 6 0 7 0;
#X connect 6 1 8 0;
#X connect 9 0 10 0;
#X connect 11 0 3 0;
#X connect 12 0 6 0;
#X connect 12 0 1 0;
#X connect 13 0 6 0;
#X connect 14 0 1 0;
#X connect 15 0 16 1;
#X connect 15 0 17 1;
#X restore 56 3039 pd 12WeekendStarboy;
#X text 180 2920 03:48 - 288000ms;
#X msg 304 2962 0 288000;
#X obj 56 3125 s~ out_12_L;
#X obj 185 3125 s~ out_12_R;
#X obj 56 3184 bng 15 250 50 0 empty empty empty 17 7 0 10 -262144
-1 -1;
#X obj 306 3260 line 0;
#X obj 214 3212 delay 200;
#X msg 165 3284 10;
#X msg 116 3183 stop;
#X obj 56 3159 r play;
#X obj 116 3159 r stop;
#X obj 56 3415 s~ out_13_L;
#X obj 185 3415 s~ out_13_R;
#N canvas 1072 255 724 632 13LetMeLoveYou 0;
#X msg 242 229 start;
#X floatatom 446 357 5 0 0 0 - - -, f 5;
#X msg 471 318 0, f 6;
#X floatatom 507 354 5 0 0 0 - - -, f 5;
#X obj 161 16 inlet;
#X obj 161 158 delay 200;
#X obj 315 281 readsf~ 2;
#X obj 327 440 outlet~;
#X obj 387 440 outlet~;
#X obj 19 17 tgl 15 0 empty empty empty 17 7 0 10 -262144 -1 -1 0 1
;
#X msg 17 45 \; pd dsp \$1;
#X obj 562 309 inlet;
#X obj 362 222 inlet;
#X msg 257 169 open 13LetMeLoveYou.wav;
#X obj 446 275 inlet;
#X obj 328 396 vcf~, f 5;
#X obj 380 396 vcf~, f 5;
#X obj 343 361 sig~;
#X connect 0 0 6 0;
#X connect 1 0 17 0;
#X connect 2 0 1 0;
#X connect 2 0 3 0;
#X connect 3 0 15 2;
#X connect 3 0 16 2;
#X connect 4 0 13 0;
#X connect 4 0 5 0;
#X connect 5 0 0 0;
#X connect 6 0 7 0;
#X connect 6 1 8 0;
#X connect 9 0 10 0;
#X connect 11 0 3 0;
#X connect 12 0 6 0;
#X connect 12 0 1 0;
#X connect 13 0 6 0;
#X connect 14 0 1 0;
#X connect 17 0 15 1;
#X connect 17 0 16 1;
#X restore 55 3310 pd 13LetMeLoveYou;
#X obj 55 3474 bng 15 250 50 0 empty empty empty 17 7 0 10 -262144
-1 -1;
#X msg 115 3473 stop;
#X obj 55 3449 r play;
#X obj 115 3449 r stop;
#N canvas 233 131 724 632 14BieberWhatMean 0;
#X msg 242 229 start;
#X floatatom 446 357 5 0 0 0 - - -, f 5;
#X msg 471 318 0, f 6;
#X obj 161 16 inlet;
#X obj 161 158 delay 200;
#X obj 315 281 readsf~ 2;
#X obj 327 440 outlet~;
#X obj 387 440 outlet~;
#X obj 19 17 tgl 15 0 empty empty empty 17 7 0 10 -262144 -1 -1 0 1
;
#X msg 17 45 \; pd dsp \$1;
#X msg 257 169 open 14BieberWhatMean.wav;
#X obj 450 288 inlet;
#X obj 328 396 vcf~, f 5;
#X obj 380 396 vcf~, f 5;
#X obj 381 356 sig~;
#X msg 496 362 15;
#X connect 0 0 5 0;
#X connect 1 0 14 0;
#X connect 2 0 1 0;
#X connect 2 0 15 0;
#X connect 3 0 10 0;
#X connect 3 0 4 0;
#X connect 4 0 0 0;
#X connect 5 0 6 0;
#X connect 5 1 7 0;
#X connect 8 0 9 0;
#X connect 10 0 5 0;
#X connect 11 0 1 0;
#X connect 14 0 12 1;
#X connect 14 0 13 1;
#X connect 15 0 13 2;
#X connect 15 0 12 2;
#X restore 54 3600 pd 14BieberWhatMean;
#X obj 55 3705 s~ out_14_L;
#X obj 184 3705 s~ out_14_R;
#X text 179 3480 03:27 - 207000ms;
#X text 180 3190 03:25 - 205000ms;
#X msg 304 3231 0 205000;
#X text 460 3329 bpf shift 7500-0Hz in 03:25;
#X msg 225 3259 set 7500;
#X obj 55 3754 bng 15 250 50 0 empty empty empty 17 7 0 10 -262144
-1 -1;
#X obj 305 3830 line 0;
#X obj 213 3782 delay 200;
#X msg 115 3753 stop;
#X obj 55 3729 r play;
#X obj 115 3729 r stop;
#X text 179 3760 03:06 - 186000ms;
#X msg 224 3829 set 0;
#N canvas 399 264 724 632 15LazerColdWater 0;
#X msg 242 229 start;
#X floatatom 446 357 5 0 0 0 - - -, f 5;
#X msg 471 318 0, f 6;
#X obj 161 16 inlet;
#X obj 161 158 delay 200;
#X obj 315 281 readsf~ 2;
#X obj 327 440 outlet~;
#X obj 387 440 outlet~;
#X obj 19 17 tgl 15 0 empty empty empty 17 7 0 10 -262144 -1 -1 0 1
;
#X msg 17 45 \; pd dsp \$1;
#X obj 450 288 inlet;
#X msg 257 169 open 15LazerColdWater.wav;
#X obj 328 396 hip~, f 5;
#X obj 380 396 hip~, f 5;
#X connect 0 0 5 0;
#X connect 1 0 12 1;
#X connect 1 0 13 1;
#X connect 2 0 1 0;
#X connect 3 0 11 0;
#X connect 3 0 4 0;
#X connect 4 0 0 0;
#X connect 5 0 6 0;
#X connect 5 1 7 0;
#X connect 8 0 9 0;
#X connect 10 0 1 0;
#X connect 11 0 5 0;
#X restore 54 3880 pd 15LazerColdWater;
#X obj 54 3975 s~ out_15_L;
#X obj 185 3974 s~ out_15_R;
#X obj 55 4044 bng 15 250 50 0 empty empty empty 17 7 0 10 -262144
-1 -1;
#X obj 305 4120 line 0;
#X obj 213 4072 delay 200;
#X msg 115 4043 stop;
#X obj 55 4019 r play;
#X obj 115 4019 r stop;
#N canvas 521 106 724 632 16SheeranPhotograph 0;
#X msg 242 229 start;
#X floatatom 446 357 5 0 0 0 - - -, f 5;
#X msg 471 318 0, f 6;
#X obj 161 16 inlet;
#X obj 161 158 delay 200;
#X obj 315 281 readsf~ 2;
#X obj 327 440 outlet~;
#X obj 387 440 outlet~;
#X obj 19 17 tgl 15 0 empty empty empty 17 7 0 10 -262144 -1 -1 0 1
;
#X msg 17 45 \; pd dsp \$1;
#X obj 450 288 inlet;
#X msg 257 169 open 16SheeranPhotograph.wav;
#X obj 328 396 hip~, f 5;
#X obj 379 396 hip~, f 5;
#X connect 0 0 5 0;
#X connect 1 0 12 1;
#X connect 1 0 13 1;
#X connect 2 0 1 0;
#X connect 3 0 11 0;
#X connect 3 0 4 0;
#X connect 4 0 0 0;
#X connect 5 0 6 0;
#X connect 5 1 7 0;
#X connect 8 0 9 0;
#X connect 10 0 1 0;
#X connect 11 0 5 0;
#X restore 57 4160 pd 16SheeranPhotograph;
#X text 179 4050 04:17 - 257000;
#X obj 54 4277 s~ out_16_L;
#X obj 178 4272 s~ out_16_R;
#X msg 302 4090 0 186000;
#N canvas 836 373 618 593 pan16 0;
#X obj 214 346 expr 1 - $f1;
#X floatatom 310 370 5 0 0 0 - - -, f 5;
#X floatatom 215 371 5 0 0 0 - - -, f 5;
#X obj 213 315 hsl 128 15 0 1 0 0 empty empty empty -2 -8 0 10 -262144
-1 -1 12152 1;
#X obj 144 422 *~;
#X obj 122 298 inlet~;
#X obj 381 306 inlet~;
#X obj 374 422 *~;
#X obj 213 464 outlet~;
#X obj 310 460 outlet~;
#X floatatom 264 107 0 0 0 0 - - -;
#X obj 264 130 / 360;
#X obj 264 216 sin;
#X obj 264 237 abs;
#X floatatom 264 258 5 0 0 0 - - -, f 5;
#X obj 266 31 inlet;
#X obj 264 152 * 6.28319;
#X obj 264 278 s pan16;
#X floatatom 264 195 5 0 0 0 - - -, f 5;
#X obj 389 53 inlet;
#X obj 264 173 + 30;
#X obj 252 86 int;
#X obj 303 86 + 1;
#X obj 263 65 metro 160;
#X connect 0 0 2 0;
#X connect 1 0 7 1;
#X connect 2 0 4 1;
#X connect 3 0 0 0;
#X connect 3 0 1 0;
#X connect 4 0 8 0;
#X connect 5 0 4 0;
#X connect 6 0 7 0;
#X connect 7 0 9 0;
#X connect 10 0 11 0;
#X connect 11 0 16 0;
#X connect 12 0 13 0;
#X connect 13 0 14 0;
#X connect 14 0 3 0;
#X connect 14 0 17 0;
#X connect 15 0 23 0;
#X connect 16 0 20 0;
#X connect 18 0 12 0;
#X connect 19 0 21 1;
#X connect 20 0 18 0;
#X connect 21 0 10 0;
#X connect 21 0 22 0;
#X connect 22 0 21 1;
#X connect 23 0 21 0;
#X restore 112 4245 pd pan16;
#N canvas 463 238 618 593 pan15 0;
#X obj 214 346 expr 1 - $f1;
#X floatatom 310 370 5 0 0 0 - - -, f 5;
#X floatatom 215 371 5 0 0 0 - - -, f 5;
#X obj 213 315 hsl 128 15 0 1 0 0 empty empty empty -2 -8 0 10 -262144
-1 -1 8828 1;
#X obj 144 422 *~;
#X obj 122 298 inlet~;
#X obj 381 306 inlet~;
#X obj 374 422 *~;
#X obj 213 464 outlet~;
#X obj 310 460 outlet~;
#X floatatom 264 107 0 0 0 0 - - -;
#X obj 264 152 * 6.28319;
#X obj 264 132 / 360;
#X obj 264 216 sin;
#X obj 264 237 abs;
#X floatatom 264 258 5 0 0 0 - - -, f 5;
#X obj 266 31 inlet;
#X obj 264 278 s pan15;
#X floatatom 263 194 5 0 0 0 - - -, f 5;
#X obj 261 65 metro 60;
#X obj 389 53 inlet;
#X obj 263 173 + 20;
#X obj 314 86 + 1;
#X obj 263 86 int;
#X connect 0 0 2 0;
#X connect 1 0 7 1;
#X connect 2 0 4 1;
#X connect 3 0 0 0;
#X connect 3 0 1 0;
#X connect 4 0 8 0;
#X connect 5 0 4 0;
#X connect 6 0 7 0;
#X connect 7 0 9 0;
#X connect 10 0 12 0;
#X connect 11 0 21 0;
#X connect 12 0 11 0;
#X connect 13 0 14 0;
#X connect 14 0 15 0;
#X connect 15 0 3 0;
#X connect 15 0 17 0;
#X connect 16 0 19 0;
#X connect 18 0 13 0;
#X connect 19 0 23 0;
#X connect 20 0 23 1;
#X connect 21 0 18 0;
#X connect 22 0 23 1;
#X connect 23 0 10 0;
#X connect 23 0 22 0;
#X restore 89 3946 pd pan15;
#N canvas 353 236 618 593 pan14 0;
#X obj 214 366 expr 1 - $f1;
#X floatatom 310 390 5 0 0 0 - - -, f 5;
#X floatatom 215 391 5 0 0 0 - - -, f 5;
#X obj 213 335 hsl 128 15 0 1 0 0 empty empty empty -2 -8 0 10 -262144
-1 -1 8328 1;
#X obj 144 442 *~;
#X obj 122 318 inlet~;
#X obj 381 326 inlet~;
#X obj 374 442 *~;
#X obj 213 484 outlet~;
#X obj 310 480 outlet~;
#X floatatom 264 107 0 0 0 0 - - -;
#X obj 264 130 / 360;
#X obj 264 216 sin;
#X obj 264 237 abs;
#X floatatom 264 258 5 0 0 0 - - -, f 5;
#X obj 266 31 inlet;
#X obj 264 152 * 6.28319;
#X floatatom 264 196 5 0 0 0 - - -, f 5;
#X obj 389 53 inlet;
#X obj 264 278 s pan14;
#X obj 264 175 + 10;
#X obj 303 86 + 1;
#X obj 252 86 int;
#X obj 263 65 metro 160;
#X connect 0 0 2 0;
#X connect 1 0 7 1;
#X connect 2 0 4 1;
#X connect 3 0 0 0;
#X connect 3 0 1 0;
#X connect 4 0 8 0;
#X connect 5 0 4 0;
#X connect 6 0 7 0;
#X connect 7 0 9 0;
#X connect 10 0 11 0;
#X connect 11 0 16 0;
#X connect 12 0 13 0;
#X connect 13 0 14 0;
#X connect 14 0 19 0;
#X connect 14 0 3 0;
#X connect 15 0 23 0;
#X connect 16 0 20 0;
#X connect 17 0 12 0;
#X connect 18 0 22 1;
#X connect 20 0 17 0;
#X connect 21 0 22 1;
#X connect 22 0 10 0;
#X connect 22 0 21 0;
#X connect 23 0 22 0;
#X restore 97 3672 pd pan14;
#N canvas 1093 234 618 593 pan13 0;
#X obj 214 306 expr 1 - $f1;
#X floatatom 310 330 5 0 0 0 - - -, f 5;
#X floatatom 215 331 5 0 0 0 - - -, f 5;
#X obj 213 275 hsl 128 15 0 1 0 0 empty empty empty -2 -8 0 10 -262144
-1 -1 6540 1;
#X obj 144 382 *~;
#X obj 122 258 inlet~;
#X obj 381 266 inlet~;
#X obj 374 382 *~;
#X obj 213 424 outlet~;
#X obj 310 420 outlet~;
#X floatatom 264 107 0 0 0 0 - - -;
#X obj 264 152 * 6.28319;
#X obj 264 126 / 360;
#X obj 263 86 int;
#X obj 294 86 + 1;
#X obj 264 176 sin;
#X obj 264 197 abs;
#X floatatom 264 218 5 0 0 0 - - -, f 5;
#X obj 266 31 inlet;
#X obj 263 65 metro 800;
#X obj 264 238 s pan13;
#X connect 0 0 2 0;
#X connect 1 0 7 1;
#X connect 2 0 4 1;
#X connect 3 0 0 0;
#X connect 3 0 1 0;
#X connect 4 0 8 0;
#X connect 5 0 4 0;
#X connect 6 0 7 0;
#X connect 7 0 9 0;
#X connect 10 0 12 0;
#X connect 11 0 15 0;
#X connect 12 0 11 0;
#X connect 13 0 10 0;
#X connect 13 0 14 0;
#X connect 14 0 13 1;
#X connect 15 0 16 0;
#X connect 16 0 17 0;
#X connect 17 0 3 0;
#X connect 17 0 20 0;
#X connect 18 0 19 0;
#X connect 19 0 13 0;
#X restore 97 3376 pd pan13;
#X msg 223 4117 set 10000;
#X text 329 4247 hpf shift 10000-0Hz in 04:17;
#N canvas 1093 234 618 593 pan12 0;
#X obj 214 306 expr 1 - $f1;
#X floatatom 310 330 5 0 0 0 - - -, f 5;
#X floatatom 215 331 5 0 0 0 - - -, f 5;
#X obj 213 275 hsl 128 15 0 1 0 0 empty empty empty -2 -8 0 10 -262144
-1 -1 12576 1;
#X obj 144 382 *~;
#X obj 122 258 inlet~;
#X obj 381 266 inlet~;
#X obj 374 382 *~;
#X obj 213 424 outlet~;
#X obj 310 420 outlet~;
#X floatatom 264 107 0 0 0 0 - - -;
#X obj 264 152 * 6.28319;
#X obj 264 126 / 360;
#X obj 263 86 int;
#X obj 294 86 + 1;
#X obj 264 176 sin;
#X obj 264 197 abs;
#X floatatom 264 218 5 0 0 0 - - -, f 5;
#X obj 266 31 inlet;
#X obj 263 65 metro 1000;
#X obj 264 238 s pan12;
#X connect 0 0 2 0;
#X connect 1 0 7 1;
#X connect 2 0 4 1;
#X connect 3 0 0 0;
#X connect 3 0 1 0;
#X connect 4 0 8 0;
#X connect 5 0 4 0;
#X connect 6 0 7 0;
#X connect 7 0 9 0;
#X connect 10 0 12 0;
#X connect 11 0 15 0;
#X connect 12 0 11 0;
#X connect 13 0 10 0;
#X connect 13 0 14 0;
#X connect 14 0 13 1;
#X connect 15 0 16 0;
#X connect 16 0 17 0;
#X connect 17 0 3 0;
#X connect 17 0 20 0;
#X connect 18 0 19 0;
#X connect 19 0 13 0;
#X restore 97 3100 pd pan12;
#X obj 305 4141 vsl 15 128 0 10000 0 0 empty empty empty 0 -9 0 10
-262144 -1 -1 8468 1;
#X obj 490 4104 r pan16;
#X obj 493 4129 hsl 128 15 0 1 0 0 empty empty empty -2 -8 0 10 -257985
-1 -1 12152 1;
#X obj 514 3815 hsl 128 15 0 1 0 0 empty empty empty -2 -8 0 10 -257985
-1 -1 8828 1;
#X obj 514 3794 r pan15;
#X obj 514 3525 hsl 128 15 0 1 0 0 empty empty empty -2 -8 0 10 -257985
-1 -1 8328 1;
#X obj 514 3504 r pan14;
#X obj 505 3249 hsl 128 15 0 1 0 0 empty empty empty -2 -8 0 10 -257985
-1 -1 6540 1;
#X obj 505 3228 r pan13;
#X obj 496 2976 hsl 128 15 0 1 0 0 empty empty empty -2 -8 0 10 -257985
-1 -1 12576 1;
#X obj 496 2955 r pan12;
#X obj 305 3851 vsl 15 128 0 10000 0 0 empty empty empty 0 -9 0 10
-262144 -1 -1 1693 1;
#X obj 822 4343 s play;
#X obj 822 4320 bng 15 250 50 0 empty empty empty 17 7 0 10 -262144
-1 -1;
#X obj 886 4322 bng 15 250 50 0 empty empty empty 17 7 0 10 -262144
-1 -1;
#X obj 886 4342 s stop;
#X msg 775 3822 0;
#X obj 192 2112 s~ out_8_R;
#X obj 693 408 dac~ 1 2;
#X obj 771 406 env~;
#X obj 844 407 env~;
#X obj 771 437 - 100;
#X obj 772 468 vu 15 120 empty empty -1 -8 0 10 -66577 -1 1 0;
#X obj 845 469 vu 15 120 empty empty -1 -8 0 10 -66577 -1 1 0;
#X obj 844 437 - 100;
#X obj 738 70 r~ out_1_L;
#X obj 819 71 r~ out_1_R;
#X obj 819 91 r~ out_2_R;
#X obj 738 90 r~ out_2_L;
#X obj 819 111 r~ out_3_R;
#X obj 738 110 r~ out_3_L;
#X obj 738 130 r~ out_4_L;
#X obj 738 150 r~ out_5_L;
#X obj 819 131 r~ out_4_R;
#X obj 819 151 r~ out_5_R;
#X obj 819 171 r~ out_6_R;
#X obj 738 210 r~ out_8_L;
#X obj 819 211 r~ out_8_R;
#X obj 738 230 r~ out_9_L;
#X obj 819 231 r~ out_9_R;
#X obj 738 250 r~ out_10_L;
#X obj 818 252 r~ out_10_R;
#X obj 738 269 r~ out_11_L;
#X obj 819 271 r~ out_11_R;
#X obj 738 290 r~ out_12_L;
#X obj 819 291 r~ out_12_R;
#X obj 738 310 r~ out_13_L;
#X obj 819 311 r~ out_13_R;
#X obj 740 170 r~ out_6_L;
#X obj 818 192 r~ out_7_R;
#X obj 740 190 r~ out_7_L;
#X obj 819 331 r~ out_14_R;
#X obj 819 351 r~ out_15_R;
#X obj 738 330 r~ out_14_L;
#X obj 738 350 r~ out_15_L;
#X obj 818 371 r~ out_16_R;
#X obj 738 370 r~ out_16_L;
#X obj 56 527 s~ out_2_L;
#X obj 57 299 s~ out_1_L;
#X obj 293 2313 * 5;
#X obj 142 2537 line 0;
#X obj 155 2464 delay 200;
#X msg 155 2484 10000 220000;
#X text 289 2607 bpf shift 0-10000 + varying Q;
#X msg 86 2506 set 0;
#X obj 338 2095 hsl 128 15 0 10000 0 0 empty empty empty -2 -8 0 10
-232576 -1 -1 6684 1;
#X obj 292 2587 hsl 128 15 0 10000 0 0 empty empty empty -2 -8 0 10
-232576 -1 -1 3677 1;
#X obj 504 3277 hsl 128 15 0 10000 0 0 empty empty empty -2 -8 0 10
-232576 -1 -1 6645 1;
#N canvas 947 0 958 998 amplitudes 1;
#N canvas 0 50 450 250 (subpatch) 0;
#X array ampsValues 120 float 3;
#A 0 0.0019 0.0026 0.0035 0.0047 0.0062 0.0082 0.0107 0.0139 0.0179
0.0228 0.0287 0.0359 0.0446 0.0548 0.0668 0.0808 0.0968 0.1151 0.1357
0.1587 0.1841 0.2119 0.242 0.2743 0.3085 0.3446 0.3821 0.4207 0.4602
0.5 0.5 0.5398 0.5793 0.6179 0.6554 0.6915 0.7257 0.758 0.7881 0.8159
0.8413 0.8643 0.8849 0.9032 0.9192 0.9332 0.9452 0.9554 0.9641 0.9713
0.9772 0.9821 0.9861 0.9893 0.9918 0.9938 0.9953 0.9965 0.9974 0.9981
0.9981 0.9974 0.9965 0.9953 0.9938 0.9918 0.9893 0.9861 0.9821 0.9772
0.9713 0.9641 0.9554 0.9452 0.9332 0.9192 0.9032 0.8849 0.8643 0.8413
0.8159 0.7881 0.758 0.7257 0.6915 0.6554 0.6179 0.5793 0.5398 0.5 0.5
0.4602 0.4207 0.3821 0.3446 0.3085 0.2743 0.242 0.2119 0.1841 0.1587
0.1357 0.1151 0.0968 0.0808 0.0668 0.0548 0.0446 0.0359 0.0287 0.0228
0.0179 0.0139 0.0107 0.0082 0.0062 0.0047 0.0035 0.0026 0.0019;
#X coords 0 1 120 0 200 140 1 0 0;
#X restore 30 38 graph;
#X obj 387 561 int;
#X obj 419 560 + 1;
#X floatatom 387 582 5 0 0 0 - - -, f 5;
#X obj 387 602 % 120;
#X floatatom 387 623 5 0 0 0 - - -, f 5;
#X msg 338 621 121;
#X obj 366 652 -;
#X msg 268 37 \; ampsValues 0 0.0019 0.0026 0.0035 0.0047 0.0062 0.0082
0.0107 0.0139 0.0179 0.0228 0.0287 0.0359 0.0446 0.0548 0.0668 0.0808
0.0968 0.1151 0.1357 0.1587 0.1841 0.2119 0.242 0.2743 0.3085 0.3446
0.3821 0.4207 0.4602 0.5 0.5 0.5398 0.5793 0.6179 0.6554 0.6915 0.7257
0.758 0.7881 0.8159 0.8413 0.8643 0.8849 0.9032 0.9192 0.9332 0.9452
0.9554 0.9641 0.9713 0.9772 0.9821 0.9861 0.9893 0.9918 0.9938 0.9953
0.9965 0.9974 0.9981 0.9981 0.9974 0.9965 0.9953 0.9938 0.9918 0.9893
0.9861 0.9821 0.9772 0.9713 0.9641 0.9554 0.9452 0.9332 0.9192 0.9032
0.8849 0.8643 0.8413 0.8159 0.7881 0.758 0.7257 0.6915 0.6554 0.6179
0.5793 0.5398 0.5 0.5 0.4602 0.4207 0.3821 0.3446 0.3085 0.2743 0.242
0.2119 0.1841 0.1587 0.1357 0.1151 0.0968 0.0808 0.0668 0.0548 0.0446
0.0359 0.0287 0.0228 0.0179 0.0139 0.0107 0.0082 0.0062 0.0047 0.0035
0.0026 0.0019;
#X floatatom 366 734 5 0 0 0 - - -, f 5;
#X obj 504 683 + 1;
#X obj 504 704 % 120;
#X floatatom 504 725 5 0 0 0 - - -, f 5;
#X obj 627 563 int;
#X obj 659 562 + 1;
#X floatatom 627 584 5 0 0 0 - - -, f 5;
#X obj 627 604 % 120;
#X floatatom 627 625 5 0 0 0 - - -, f 5;
#X msg 578 623 121;
#X obj 606 654 -;
#X floatatom 606 736 5 0 0 0 - - -, f 5;
#X obj 744 685 + 1;
#X obj 744 706 % 120;
#X floatatom 744 727 5 0 0 0 - - -, f 5;
#X floatatom 366 673 5 0 0 0 - - -, f 5;
#X floatatom 606 675 5 0 0 0 - - -, f 5;
#X obj 99 417 inlet;
#X obj 394 541 s m3;
#X msg 645 528 75;
#X text 693 525 Versatz zwischen R/W der Kurven;
#X obj 28 471 s m500;
#X obj 168 470 s m300;
#X text 3 875 amp \$1 \$2 \$3 drei argumente \, da \$1 innerhalb der
abstraction genutzt werden muss;
#X obj 84 506 amp 0 0 amp01;
#N canvas 0 50 450 250 (subpatch) 0;
#X array ampsOut2 120 float 5;
#A 0 0.8643 0.8643 0.8643 0.8849 0.9032 0.9192 0.9332 0.9554 0.9641
0.9713 0.9713 0.9772 0.9861 0.9893 0.9918 0.9938 0.9953 0.9953 0.9965
0.9974 0.9981 0.9981 0.9981 0.9974 0.9974 0.9965 0.9953 0.9938 0.9893
0.9861 0.9772 0.9713 0.9641 0.9554 0.9452 0.9452 0.9332 0.9192 0.9032
0.8849 0.8849 0.8849 0.8643 0.8413 0.758 0.7257 0.6915 0.6554 0.6179
0.5793 0.5398 0.5 0.5 0.4602 0.4207 0.3821 0.3446 0.3085 0.242 0.2119
0.1841 0.1587 0.1357 0.1151 0.1151 0.0968 0.0808 0.0668 0.0668 0.0668
0.0668 0.0446 0.0446 0.0228 0.0179 0.0107 0.0107 0.0082 0.0062 0.0047
0.0035 0.0019 0.0047 0.0062 0.0082 0.0107 0.0139 0.0139 0.0179 0.0228
0.0287 0.0359 0.0548 0.0668 0.0808 0.0968 0.1151 0.1357 0.1587 0.2119
0.242 0.2743 0.3085 0.3085 0.3446 0.3821 0.5 0.5 0.5398 0.5793 0.5793
0.6179 0.6915 0.6915 0.7257 0.758 0.758 0.7881 0.8159 0.8159;
#X coords 0 1 119 0 200 140 1 0 0;
#X restore 328 249 graph;
#N canvas 0 50 450 250 (subpatch) 0;
#X array ampsOut1 120 float 5;
#A 0 0.2743 0.2743 0.2743 0.2743 0.3446 0.3446 0.4207 0.4207 0.5 0.5
0.5398 0.5 0.5398 0.5398 0.6179 0.6179 0.6915 0.6915 0.758 0.758 0.8159
0.8159 0.8643 0.8643 0.9032 0.9032 0.9554 0.9554 0.9713 0.9713 0.9821
0.9821 0.9938 0.9938 0.9938 0.9938 0.9965 0.9965 0.9981 0.9981 0.9974
0.9974 0.9981 0.9981 0.9965 0.9965 0.9938 0.9938 0.9893 0.9893 0.9821
0.9821 0.9713 0.9713 0.9554 0.9554 0.9332 0.9332 0.9032 0.9032 0.8643
0.8643 0.8159 0.8159 0.758 0.758 0.6915 0.6915 0.6179 0.6179 0.5398
0.5398 0.5 0.5 0.3446 0.3446 0.3446 0.3446 0.2743 0.2743 0.2119 0.2119
0.0968 0.0968 0.0668 0.0668 0.0446 0.0446 0.0287 0.0179 0.0107 0.0107
0.0062 0.0062 0.0035 0.0035 0.0019 0.0019 0.0019 0.0019 0.0035 0.0035
0.0062 0.0062 0.0107 0.0107 0.0107 0.0107 0.0179 0.0179 0.0287 0.0287
0.0446 0.0446 0.0668 0.0668 0.0968 0.0968 0.2119 0.2119;
#X coords 0 1 119 0 200 140 1 0 0;
#X restore 328 249 graph;
#X msg 340 420 \; ampsOut2 xticks 0 7.5 1;
#X obj 340 400 loadbang;
#N canvas 0 50 450 250 (subpatch) 0;
#X array ampOut1 120 float 3;
#A 0 0.0668 0.0668 0.0668 0.0668 0.0968 0.0968 0.2119 0.2119 0.2743
0.2743 0.3446 0.3446 0.4207 0.4207 0.5 0.5 0.5398 0.5 0.5398 0.5398
0.6179 0.6179 0.6915 0.6915 0.758 0.758 0.8159 0.8159 0.8643 0.8643
0.9032 0.9032 0.9554 0.9554 0.9713 0.9713 0.9821 0.9821 0.9938 0.9938
0.9938 0.9938 0.9965 0.9981 0.9981 0.9974 0.9974 0.9981 0.9981 0.9965
0.9965 0.9938 0.9938 0.9938 0.9893 0.9893 0.9821 0.9821 0.9713 0.9713
0.9554 0.9554 0.9332 0.9332 0.9032 0.9032 0.8643 0.8643 0.8159 0.8159
0.758 0.758 0.6915 0.6915 0.6179 0.6179 0.5398 0.5398 0.5 0.5 0.3446
0.3446 0.3446 0.3446 0.2743 0.2743 0.2119 0.2119 0.0968 0.0968 0.0668
0.0668 0.0446 0.0446 0.0287 0.0179 0.0107 0.0107 0.0062 0.0062 0.0035
0.0035 0.0019 0.0019 0.0019 0.0019 0.0035 0.0035 0.0062 0.0062 0.0107
0.0107 0.0107 0.0107 0.0179 0.0179 0.0287 0.0287 0.0446 0.0446;
#X array ampOut2 120 float 3;
#A 0 0.8159 0.8159 0.8159 0.8159 0.8643 0.8849 0.9032 0.9192 0.9332
0.9554 0.9641 0.9713 0.9713 0.9772 0.9861 0.9893 0.9918 0.9938 0.9953
0.9953 0.9965 0.9974 0.9981 0.9981 0.9981 0.9974 0.9974 0.9965 0.9953
0.9938 0.9893 0.9861 0.9772 0.9713 0.9641 0.9554 0.9452 0.9452 0.9332
0.9032 0.8849 0.8849 0.8849 0.8643 0.8413 0.758 0.7257 0.6915 0.6554
0.6179 0.5793 0.5398 0.5 0.5 0.4602 0.4207 0.3821 0.3446 0.3085 0.242
0.2119 0.1841 0.1587 0.1357 0.1151 0.1151 0.0968 0.0808 0.0668 0.0668
0.0668 0.0668 0.0446 0.0446 0.0228 0.0179 0.0107 0.0107 0.0082 0.0062
0.0047 0.0035 0.0035 0.0019 0.0047 0.0062 0.0082 0.0107 0.0139 0.0139
0.0179 0.0228 0.0287 0.0359 0.0548 0.0668 0.0808 0.0968 0.1151 0.1357
0.1587 0.2119 0.242 0.2743 0.3085 0.3085 0.3446 0.3821 0.5 0.5 0.5398
0.5793 0.5793 0.6179 0.6915 0.6915 0.7257 0.758 0.758 0.7881;
#X coords 0 1 120 0 200 140 1 0 0;
#X restore 32 214 graph;
#X text 465 478 ARRAY SORTING: disabled! now walking through array
;
#N canvas 0 50 450 250 (subpatch) 0;
#X array ampsOut3 120 float 3;
#A 0 0.7881 0.7881 0.7881 0.8159 0.8159 0.8643 0.8849 0.9032 0.9192
0.9332 0.9554 0.9641 0.9713 0.9713 0.9772 0.9861 0.9893 0.9918 0.9938
0.9953 0.9953 0.9965 0.9974 0.9981 0.9981 0.9981 0.9974 0.9974 0.9965
0.9953 0.9938 0.9893 0.9861 0.9772 0.9713 0.9641 0.9554 0.9452 0.9452
0.9332 0.9032 0.8849 0.8849 0.8849 0.8643 0.8413 0.758 0.7257 0.6915
0.6554 0.6179 0.5793 0.5398 0.5 0.5 0.4602 0.4207 0.3821 0.3446 0.3085
0.242 0.2119 0.1841 0.1587 0.1357 0.1151 0.1151 0.0968 0.0808 0.0668
0.0668 0.0668 0.0668 0.0446 0.0446 0.0228 0.0179 0.0107 0.0107 0.0082
0.0062 0.0047 0.0035 0.0035 0.0019 0.0047 0.0062 0.0082 0.0107 0.0139
0.0139 0.0179 0.0228 0.0287 0.0359 0.0548 0.0668 0.0808 0.0968 0.1151
0.1357 0.1587 0.2119 0.242 0.2743 0.3085 0.3085 0.3446 0.3821 0.5 0.5
0.5398 0.5793 0.5793 0.6179 0.6915 0.6915 0.7257 0.758 0.758;
#X coords 0 1 120 0 200 140 1 0 0;
#X restore 583 242 graph;
#X obj 387 481 tgl 15 0 empty empty empty 17 7 0 10 -262144 -1 -1 0
1;
#X obj 366 754 tabwrite ampOut1;
#X obj 387 500 metro 100;
#X obj 366 713 tabread ampOut1;
#X obj 606 715 tabread ampOut2;
#X obj 608 755 tabwrite ampsOut3;
#X obj 28 449 metro 333;
#X obj 168 449 metro 200;
#X obj 86 528 amp 0 8 amp02;
#X obj 86 549 amp 0 15 amp03;
#X obj 85 574 amp 0 23 amp04;
#X obj 87 600 amp 0 30 amp05;
#X obj 86 625 amp 0 38 amp06;
#X obj 88 653 amp 0 45 amp07;
#X obj 85 683 amp 0 53 amp08;
#X obj 85 702 amp 0 60 amp09;
#X obj 85 725 amp 0 68 amp10;
#X obj 85 747 amp 0 75 amp11;
#X obj 85 767 amp 0 83 amp12;
#X obj 85 788 amp 0 90 amp13;
#X obj 85 809 amp 0 98 amp14;
#X obj 84 831 amp 0 105 amp15;
#X obj 85 851 amp 0 113 amp16;
#X connect 1 0 2 0;
#X connect 1 0 3 0;
#X connect 2 0 1 1;
#X connect 3 0 4 0;
#X connect 4 0 5 0;
#X connect 5 0 7 1;
#X connect 6 0 7 0;
#X connect 7 0 24 0;
#X connect 9 0 42 0;
#X connect 10 0 11 0;
#X connect 11 0 12 0;
#X connect 12 0 42 1;
#X connect 13 0 14 0;
#X connect 13 0 15 0;
#X connect 14 0 13 1;
#X connect 15 0 16 0;
#X connect 16 0 17 0;
#X connect 17 0 19 1;
#X connect 18 0 19 0;
#X connect 19 0 25 0;
#X connect 20 0 46 0;
#X connect 21 0 22 0;
#X connect 22 0 23 0;
#X connect 23 0 46 1;
#X connect 24 0 10 0;
#X connect 24 0 44 0;
#X connect 25 0 21 0;
#X connect 25 0 45 0;
#X connect 26 0 47 0;
#X connect 26 0 48 0;
#X connect 28 0 13 1;
#X connect 37 0 36 0;
#X connect 41 0 43 0;
#X connect 43 0 1 0;
#X connect 43 0 13 0;
#X connect 43 0 6 0;
#X connect 43 0 18 0;
#X connect 43 0 27 0;
#X connect 44 0 9 0;
#X connect 45 0 20 0;
#X connect 47 0 30 0;
#X connect 48 0 31 0;
#X restore 676 660 pd amplitudes;
#X obj 686 2561 s m200count;
#X obj 609 2441 loadbang;
#X obj 600 2676 s m200abs;
#X obj 269 3587 hsl 128 15 0 10000 0 0 empty empty empty -2 -8 0 10
-232576 -1 -1 1570 1;
#X obj 539 1746 s m40sinOut;
#X obj 368 3518 r m40sinOut;
#X obj 179 3512 delay 200;
#X obj 266 3533 line 0;
#X obj 266 3554 +;
#X text 482 1783 vcf wobble til 0 Hz in 03:20;
#X msg 266 3512 3000 207000;
#X obj 368 3539 * 200;
#X msg 179 3547 set 200;
#X text 264 3607 vcf wobble 0-3000 Hz in 03:27;
#X text 263 745 vcf shift 500-10000Hz in 04:06;
#X text 252 1002 vcf shift 700-10000Hz in 02:57;
#X text 383 321 vcf oscillation 0-1000Hz;
#X obj 492 1656 s m40count;
#X obj 414 1567 loadbang;
#X floatatom 406 107 5 0 0 0 - - -, f 5;
#X msg 306 164 5000 233000;
#X obj 406 192 sin;
#X obj 406 213 abs;
#X floatatom 406 234 5 0 0 0 - - -, f 5;
#X obj 406 254 * 1000;
#X floatatom 406 275 5 0 0 0 - - -, f 5;
#X obj 406 171 * 6.28139;
#X obj 406 150 / 360;
#X obj 406 127 / 20;
#X obj 509 456 sin;
#X obj 509 477 abs;
#X floatatom 509 498 5 0 0 0 - - -, f 5;
#X obj 509 518 * 1000;
#X floatatom 509 539 5 0 0 0 - - -, f 5;
#X obj 509 435 * 6.28139;
#X obj 509 414 / 360;
#X obj 509 391 / 20;
#X msg 237 426 set 100;
#X obj 453 582 + 500;
#X text 269 500 vcf oscillation 500-1500 Hz;
#X text 466 3899 hpf shift 0-4000Hz in 03:06;
#X msg 302 3800 4000 186000;
#X text 468 3063 vcf shift 4000-0Hz in 03:48;
#X msg 225 2989 set 4000;
#X msg 303 1177 3000 280000;
#X obj 57 279 *~;
#X obj 92 257 r~ amp01;
#X obj 678 628 tgl 15 0 empty empty empty 17 7 0 10 -262144 -1 -1 1
1;
#X obj 73 504 *~;
#X obj 134 503 r~ amp02;
#X obj 83 744 *~;
#X obj 144 743 r~ amp03;
#X obj 73 1024 *~;
#X obj 62 1274 *~;
#X obj 123 1273 r~ amp05;
#X obj 134 1023 r~ amp04;
#X obj 67 1525 *~;
#X obj 128 1524 r~ amp06;
#X obj 65 1803 *~;
#X obj 126 1802 r~ amp07;
#X obj 63 2084 *~;
#X obj 124 2083 r~ amp08;
#X obj 63 2342 *~;
#X obj 124 2341 r~ amp09;
#X obj 65 2585 *~;
#X obj 126 2584 r~ amp10;
#X obj 70 2825 *~;
#X obj 66 3355 *~;
#X obj 131 2824 r~ amp11;
#X obj 67 3335 r~ amp13;
#X obj 146 3357 *~;
#X obj 147 3337 r~ amp13;
#X obj 151 3082 *~;
#X obj 152 3062 r~ amp12;
#X obj 63 3080 *~;
#X obj 64 3060 r~ amp12;
#X obj 194 3647 *~;
#X obj 195 3627 r~ amp14;
#X obj 59 3643 *~;
#X obj 60 3623 r~ amp14;
#X obj 174 3929 *~;
#X obj 39 3925 *~;
#X obj 40 3905 r~ amp15;
#X obj 175 3909 r~ amp15;
#X obj 180 4213 *~;
#X obj 45 4209 *~;
#X obj 46 4189 r~ amp15;
#X obj 181 4193 r~ amp15;
#X msg 193 1208 10;
#X msg 181 1175 set 0;
#X text 261 1239 vcf shift 0-3000Hz in 04:40;
#X obj 180 277 *~;
#N canvas 0 50 450 250 (subpatch) 0;
#X array ampVisualizer1 120 float 1;
#A 0 0.49201 0 0 0 0 0 0 0 0.426424 0 0 0 0 0 0 0.936397 0 0 0 0 0
0 0 0.895543 0 0 0 0 0 0 0.813798 0 0 0 0 0 0 0 0.438566 0 0 0 0 0
0 0.569094 0 0 0 0 0 0 0 0.550098 0 0 0 0 0 0 0.510559 0 0 0 0 0 0
0 0.756122 0 0 0 0 0 0 0.617066 0 0 0 0 0 0 0 0.459805 0 0 0 0 0 0
0.554062 0 0 0 0 0 0 0 0.467165 0 0 0 0 0 0 0.560189 0 0 0 0 0 0 0
0.437692 0 0 0 0 0 0;
#X coords 0 1 120 0 200 140 1 0 0;
#X restore 676 707 graph;
#X obj 534 140 writesf~ 2;
#X obj 513 21 r play;
#X msg 542 112 start;
#X obj 611 90 r stop;
#X msg 611 111 stop;
#X obj 539 91 delay 500;
#X obj 595 38 delay 180000;
#X msg 492 68 open vertikal05withoutEffects01loud.wav;
#X connect 0 0 1 0;
#X connect 2 0 5 0;
#X connect 2 0 7 0;
#X connect 2 0 4 0;
#X connect 2 0 6 0;
#X connect 3 0 346 0;
#X connect 4 0 3 0;
#X connect 5 0 372 0;
#X connect 5 1 418 0;
#X connect 6 0 347 0;
#X connect 7 0 5 3;
#X connect 8 0 3 0;
#X connect 8 0 5 1;
#X connect 9 0 13 0;
#X connect 9 0 11 0;
#X connect 9 0 364 0;
#X connect 9 0 10 0;
#X connect 10 0 140 0;
#X connect 11 0 13 3;
#X connect 12 0 13 1;
#X connect 12 0 38 0;
#X connect 13 0 375 0;
#X connect 13 1 375 0;
#X connect 14 0 19 0;
#X connect 14 0 17 0;
#X connect 14 0 51 0;
#X connect 14 0 16 0;
#X connect 15 0 20 0;
#X connect 15 0 104 0;
#X connect 16 0 141 0;
#X connect 17 0 19 2;
#X connect 18 0 19 1;
#X connect 18 0 15 0;
#X connect 19 0 377 0;
#X connect 19 1 377 0;
#X connect 25 0 32 0;
#X connect 25 0 28 0;
#X connect 25 0 52 0;
#X connect 25 0 27 0;
#X connect 26 0 37 0;
#X connect 26 0 103 0;
#X connect 27 0 142 0;
#X connect 28 0 32 2;
#X connect 29 0 32 1;
#X connect 29 0 26 0;
#X connect 32 0 379 0;
#X connect 32 1 379 0;
#X connect 38 0 363 0;
#X connect 40 0 39 0;
#X connect 41 0 2 0;
#X connect 42 0 9 0;
#X connect 43 0 14 0;
#X connect 44 0 25 0;
#X connect 45 0 46 0;
#X connect 47 0 8 0;
#X connect 48 0 12 0;
#X connect 49 0 18 0;
#X connect 50 0 29 0;
#X connect 51 0 15 0;
#X connect 52 0 26 0;
#X connect 53 0 60 0;
#X connect 53 0 415 0;
#X connect 53 0 416 0;
#X connect 53 0 56 0;
#X connect 54 0 60 2;
#X connect 54 0 55 0;
#X connect 56 0 371 0;
#X connect 57 0 60 1;
#X connect 57 0 54 0;
#X connect 58 0 53 0;
#X connect 59 0 57 0;
#X connect 60 0 380 0;
#X connect 60 1 380 0;
#X connect 64 0 72 0;
#X connect 64 0 82 0;
#X connect 64 0 85 0;
#X connect 64 0 67 0;
#X connect 65 0 76 0;
#X connect 67 0 69 0;
#X connect 68 0 72 1;
#X connect 68 0 65 0;
#X connect 69 0 65 0;
#X connect 70 0 64 0;
#X connect 71 0 68 0;
#X connect 72 0 383 0;
#X connect 72 1 383 0;
#X connect 75 0 77 0;
#X connect 76 0 79 0;
#X connect 77 0 80 0;
#X connect 78 0 75 0;
#X connect 79 0 78 0;
#X connect 80 0 81 0;
#X connect 81 0 84 0;
#X connect 82 0 72 3;
#X connect 84 0 97 0;
#X connect 85 0 65 0;
#X connect 86 0 93 0;
#X connect 86 0 114 0;
#X connect 86 0 113 0;
#X connect 86 0 89 0;
#X connect 86 0 108 0;
#X connect 87 0 107 0;
#X connect 89 0 112 0;
#X connect 90 0 93 1;
#X connect 90 0 87 0;
#X connect 90 0 108 0;
#X connect 91 0 86 0;
#X connect 92 0 90 0;
#X connect 93 0 385 0;
#X connect 93 1 385 0;
#X connect 97 0 72 2;
#X connect 97 0 66 0;
#X connect 98 0 100 0;
#X connect 99 0 102 0;
#X connect 99 0 344 0;
#X connect 100 0 111 0;
#X connect 100 0 331 0;
#X connect 101 0 98 0;
#X connect 102 0 101 0;
#X connect 107 0 88 0;
#X connect 107 0 93 2;
#X connect 108 0 109 0;
#X connect 109 0 99 0;
#X connect 109 0 110 0;
#X connect 110 0 109 1;
#X connect 111 0 107 1;
#X connect 112 0 87 0;
#X connect 113 0 87 0;
#X connect 114 0 93 3;
#X connect 115 0 126 0;
#X connect 115 0 128 0;
#X connect 115 0 137 0;
#X connect 117 0 126 1;
#X connect 117 0 137 0;
#X connect 118 0 115 0;
#X connect 119 0 117 0;
#X connect 120 0 121 0;
#X connect 121 0 124 0;
#X connect 122 0 120 0;
#X connect 123 0 122 0;
#X connect 124 0 125 0;
#X connect 125 0 132 0;
#X connect 126 0 387 0;
#X connect 126 1 387 0;
#X connect 128 0 126 3;
#X connect 129 0 130 0;
#X connect 130 0 126 2;
#X connect 130 0 323 0;
#X connect 132 0 130 1;
#X connect 132 0 131 0;
#X connect 133 0 134 0;
#X connect 133 0 135 0;
#X connect 134 0 133 1;
#X connect 135 0 123 0;
#X connect 137 0 129 0;
#X connect 137 0 133 0;
#X connect 140 0 38 0;
#X connect 141 0 15 0;
#X connect 142 0 26 0;
#X connect 143 0 147 0;
#X connect 143 0 157 0;
#X connect 143 0 160 0;
#X connect 144 0 147 1;
#X connect 144 0 160 0;
#X connect 145 0 143 0;
#X connect 146 0 144 0;
#X connect 147 0 389 0;
#X connect 147 1 389 0;
#X connect 151 0 154 0;
#X connect 152 0 317 0;
#X connect 153 0 158 0;
#X connect 154 0 153 0;
#X connect 155 0 151 0;
#X connect 155 0 156 0;
#X connect 156 0 155 1;
#X connect 157 0 147 2;
#X connect 158 0 159 0;
#X connect 159 0 152 0;
#X connect 160 0 155 0;
#X connect 162 0 173 0;
#X connect 162 0 319 0;
#X connect 162 0 322 0;
#X connect 163 0 173 1;
#X connect 164 0 162 0;
#X connect 165 0 163 0;
#X connect 166 0 168 0;
#X connect 166 0 327 0;
#X connect 167 0 171 0;
#X connect 168 0 167 0;
#X connect 169 0 166 0;
#X connect 169 0 170 0;
#X connect 170 0 169 1;
#X connect 171 0 172 0;
#X connect 172 0 180 0;
#X connect 172 0 181 0;
#X connect 172 0 193 0;
#X connect 173 0 391 0;
#X connect 173 1 391 0;
#X connect 176 0 169 0;
#X connect 176 0 178 0;
#X connect 176 0 186 0;
#X connect 178 0 179 0;
#X connect 179 0 173 3;
#X connect 180 0 329 0;
#X connect 181 0 179 1;
#X connect 182 0 190 0;
#X connect 182 0 191 0;
#X connect 183 0 190 1;
#X connect 184 0 182 0;
#X connect 185 0 183 0;
#X connect 186 0 187 0;
#X connect 187 0 190 3;
#X connect 190 0 393 0;
#X connect 190 1 393 0;
#X connect 191 0 190 2;
#X connect 193 0 187 1;
#X connect 195 0 202 0;
#X connect 195 0 198 0;
#X connect 195 0 370 0;
#X connect 195 0 197 0;
#X connect 195 0 257 1;
#X connect 196 0 202 2;
#X connect 196 0 116 0;
#X connect 197 0 204 0;
#X connect 198 0 202 3;
#X connect 199 0 202 1;
#X connect 199 0 196 0;
#X connect 200 0 195 0;
#X connect 201 0 199 0;
#X connect 202 1 399 0;
#X connect 204 0 196 0;
#X connect 207 0 216 0;
#X connect 207 0 210 0;
#X connect 207 0 228 0;
#X connect 207 0 209 0;
#X connect 207 0 254 1;
#X connect 208 0 216 2;
#X connect 208 0 325 0;
#X connect 209 0 226 0;
#X connect 210 0 216 3;
#X connect 211 0 216 1;
#X connect 211 0 208 0;
#X connect 212 0 207 0;
#X connect 213 0 211 0;
#X connect 216 0 394 0;
#X connect 216 1 394 0;
#X connect 216 1 397 0;
#X connect 217 0 221 0;
#X connect 217 0 253 1;
#X connect 217 0 333 0;
#X connect 217 0 339 0;
#X connect 218 0 221 0;
#X connect 219 0 217 0;
#X connect 220 0 218 0;
#X connect 221 0 405 0;
#X connect 221 1 403 0;
#X connect 226 0 208 0;
#X connect 228 0 208 0;
#X connect 229 0 237 0;
#X connect 229 0 236 0;
#X connect 229 0 231 0;
#X connect 229 0 252 1;
#X connect 230 0 237 1;
#X connect 230 0 269 0;
#X connect 231 0 368 0;
#X connect 232 0 230 0;
#X connect 232 0 237 0;
#X connect 233 0 229 0;
#X connect 234 0 232 0;
#X connect 236 0 230 0;
#X connect 237 0 408 0;
#X connect 237 1 407 0;
#X connect 240 0 246 0;
#X connect 240 0 255 0;
#X connect 240 0 242 0;
#X connect 240 0 251 1;
#X connect 241 0 246 1;
#X connect 241 0 258 0;
#X connect 242 0 250 0;
#X connect 243 0 241 0;
#X connect 243 0 246 0;
#X connect 244 0 240 0;
#X connect 245 0 243 0;
#X connect 246 0 412 0;
#X connect 246 1 411 0;
#X connect 250 0 241 0;
#X connect 251 0 248 0;
#X connect 251 1 249 0;
#X connect 252 0 238 0;
#X connect 252 1 239 0;
#X connect 253 0 222 0;
#X connect 253 1 223 0;
#X connect 254 0 214 0;
#X connect 254 1 215 0;
#X connect 255 0 241 0;
#X connect 257 0 205 0;
#X connect 257 1 206 0;
#X connect 259 0 260 0;
#X connect 262 0 261 0;
#X connect 264 0 263 0;
#X connect 266 0 265 0;
#X connect 268 0 267 0;
#X connect 271 0 270 0;
#X connect 272 0 273 0;
#X connect 274 0 252 3;
#X connect 274 0 251 3;
#X connect 274 0 253 3;
#X connect 277 0 279 0;
#X connect 278 0 282 0;
#X connect 279 0 280 0;
#X connect 282 0 281 0;
#X connect 283 0 276 0;
#X connect 283 0 277 0;
#X connect 283 0 420 0;
#X connect 284 0 278 0;
#X connect 284 0 276 1;
#X connect 284 0 420 1;
#X connect 285 0 278 0;
#X connect 285 0 276 1;
#X connect 285 0 420 1;
#X connect 286 0 276 0;
#X connect 286 0 277 0;
#X connect 286 0 420 0;
#X connect 287 0 278 0;
#X connect 287 0 276 1;
#X connect 287 0 420 1;
#X connect 288 0 276 0;
#X connect 288 0 277 0;
#X connect 288 0 420 0;
#X connect 289 0 276 0;
#X connect 289 0 277 0;
#X connect 289 0 420 0;
#X connect 290 0 276 0;
#X connect 290 0 277 0;
#X connect 290 0 420 0;
#X connect 291 0 278 0;
#X connect 291 0 276 1;
#X connect 291 0 420 1;
#X connect 292 0 278 0;
#X connect 292 0 276 1;
#X connect 292 0 420 1;
#X connect 293 0 278 0;
#X connect 293 0 276 1;
#X connect 293 0 420 1;
#X connect 294 0 276 0;
#X connect 294 0 277 0;
#X connect 294 0 420 0;
#X connect 295 0 276 1;
#X connect 295 0 278 0;
#X connect 295 0 420 1;
#X connect 296 0 276 0;
#X connect 296 0 277 0;
#X connect 296 0 420 0;
#X connect 297 0 276 1;
#X connect 297 0 278 0;
#X connect 297 0 420 1;
#X connect 298 0 276 0;
#X connect 298 0 277 0;
#X connect 298 0 420 0;
#X connect 299 0 276 1;
#X connect 299 0 278 0;
#X connect 299 0 420 1;
#X connect 300 0 276 0;
#X connect 300 0 277 0;
#X connect 300 0 420 0;
#X connect 301 0 276 1;
#X connect 301 0 278 0;
#X connect 301 0 420 1;
#X connect 302 0 276 0;
#X connect 302 0 277 0;
#X connect 302 0 420 0;
#X connect 303 0 276 1;
#X connect 303 0 278 0;
#X connect 303 0 420 1;
#X connect 304 0 276 0;
#X connect 304 0 277 0;
#X connect 304 0 420 0;
#X connect 305 0 276 1;
#X connect 305 0 278 0;
#X connect 305 0 420 1;
#X connect 306 0 276 0;
#X connect 306 0 277 0;
#X connect 306 0 420 0;
#X connect 307 0 276 1;
#X connect 307 0 278 0;
#X connect 307 0 420 1;
#X connect 308 0 276 0;
#X connect 308 0 277 0;
#X connect 308 0 420 0;
#X connect 309 0 278 0;
#X connect 309 0 276 1;
#X connect 309 0 420 1;
#X connect 310 0 278 0;
#X connect 310 0 276 1;
#X connect 310 0 420 1;
#X connect 311 0 276 0;
#X connect 311 0 277 0;
#X connect 311 0 420 0;
#X connect 312 0 276 0;
#X connect 312 0 277 0;
#X connect 312 0 420 0;
#X connect 313 0 278 0;
#X connect 313 0 276 1;
#X connect 313 0 420 1;
#X connect 314 0 276 0;
#X connect 314 0 277 0;
#X connect 314 0 420 0;
#X connect 317 0 147 3;
#X connect 318 0 173 2;
#X connect 318 0 324 0;
#X connect 319 0 320 0;
#X connect 320 0 318 0;
#X connect 322 0 318 0;
#X connect 328 0 176 0;
#X connect 332 0 338 0;
#X connect 333 0 337 0;
#X connect 334 0 335 0;
#X connect 335 0 221 1;
#X connect 335 0 330 0;
#X connect 337 0 334 0;
#X connect 338 0 335 1;
#X connect 339 0 334 0;
#X connect 345 0 108 0;
#X connect 346 0 355 0;
#X connect 347 0 3 0;
#X connect 348 0 349 0;
#X connect 349 0 350 0;
#X connect 350 0 351 0;
#X connect 351 0 352 0;
#X connect 352 0 5 2;
#X connect 352 0 106 0;
#X connect 353 0 348 0;
#X connect 354 0 353 0;
#X connect 355 0 354 0;
#X connect 356 0 357 0;
#X connect 357 0 358 0;
#X connect 358 0 359 0;
#X connect 359 0 360 0;
#X connect 360 0 365 0;
#X connect 360 0 105 0;
#X connect 361 0 356 0;
#X connect 362 0 361 0;
#X connect 363 0 362 0;
#X connect 364 0 38 0;
#X connect 365 0 13 2;
#X connect 368 0 230 0;
#X connect 370 0 196 0;
#X connect 371 0 54 0;
#X connect 372 0 316 0;
#X connect 373 0 372 1;
#X connect 373 0 418 1;
#X connect 374 0 326 0;
#X connect 375 0 315 0;
#X connect 375 0 22 0;
#X connect 376 0 375 1;
#X connect 377 0 24 0;
#X connect 377 0 23 0;
#X connect 378 0 377 1;
#X connect 379 0 30 0;
#X connect 379 0 31 0;
#X connect 380 0 61 0;
#X connect 380 0 62 0;
#X connect 381 0 380 1;
#X connect 382 0 379 1;
#X connect 383 0 73 0;
#X connect 383 0 74 0;
#X connect 384 0 383 1;
#X connect 385 0 95 0;
#X connect 385 0 96 0;
#X connect 386 0 385 1;
#X connect 387 0 127 0;
#X connect 387 0 275 0;
#X connect 388 0 387 1;
#X connect 389 0 148 0;
#X connect 389 0 149 0;
#X connect 390 0 389 1;
#X connect 391 0 174 0;
#X connect 391 0 175 0;
#X connect 392 0 391 1;
#X connect 393 0 188 0;
#X connect 393 0 189 0;
#X connect 394 0 254 0;
#X connect 395 0 393 1;
#X connect 396 0 394 1;
#X connect 397 0 254 2;
#X connect 398 0 397 1;
#X connect 399 0 257 2;
#X connect 400 0 399 1;
#X connect 402 0 401 1;
#X connect 403 0 253 2;
#X connect 404 0 403 1;
#X connect 405 0 253 0;
#X connect 406 0 405 1;
#X connect 407 0 252 2;
#X connect 408 0 252 0;
#X connect 409 0 408 1;
#X connect 410 0 407 1;
#X connect 411 0 251 2;
#X connect 412 0 251 0;
#X connect 413 0 412 1;
#X connect 414 0 411 1;
#X connect 415 0 60 3;
#X connect 416 0 54 0;
#X connect 418 0 21 0;
#X connect 421 0 427 0;
#X connect 421 0 425 0;
#X connect 421 0 426 0;
#X connect 422 0 420 0;
#X connect 423 0 424 0;
#X connect 424 0 420 0;
#X connect 425 0 422 0;
#X connect 426 0 424 0;
#X connect 427 0 420 0;
