#N canvas -2 0 958 998 12;
#X obj 19 17 tgl 15 0 empty empty empty 17 7 0 10 -262144 -1 -1 1 1
;
#X msg 17 45 \; pd dsp \$1;
#X obj 56 114 bng 15 250 50 0 empty empty empty 17 7 0 10 -262144 -1
-1;
#X obj 56 354 bng 15 250 50 0 empty empty empty 17 7 0 10 -262144 -1
-1;
#X obj 56 594 bng 15 250 50 0 empty empty empty 17 7 0 10 -262144 -1
-1;
#X obj 175 261 s~ out_1_R;
#X obj 173 495 s~ out_2_R;
#X text 161 352 02:55 - 175000ms;
#X text 158 593 04:06 - 246000ms;
#X text 163 112 03:53 - 233000ms;
#X text 166 807 02:57 - 177000ms;
#X obj 121 51 s play;
#X obj 121 28 bng 15 250 50 0 empty empty empty 17 7 0 10 -262144 -1
-1;
#X obj 56 88 r play;
#X obj 56 328 r play;
#X obj 56 564 r play;
#X obj 185 30 bng 15 250 50 0 empty empty empty 17 7 0 10 -262144 -1
-1;
#X obj 185 70 s stop;
#X obj 116 89 r stop;
#X obj 116 328 r stop;
#X obj 116 565 r stop;
#X obj 357 925 hsl 128 15 0 10000 0 0 empty empty empty -2 -8 0 10
-232576 -1 -1 0 1;
#X obj 360 672 hsl 128 15 0 10000 0 0 empty empty empty -2 -8 0 10
-232576 -1 -1 0 1;
#X obj 334 501 hsl 128 15 0 10000 0 0 empty empty empty -2 -8 0 10
-232576 -1 -1 0 1;
#X obj 409 302 hsl 128 15 0 10000 0 0 empty empty empty -2 -8 0 10
-232576 -1 -1 0 1;
#X text 159 1702 03:53 - 233000ms;
#X text 175 1943 03:29 - 209000ms;
#X text 178 2179 03:40 - 220000ms;
#X text 165 2417 03:15 - 195000ms;
#X text 168 2660 03:48 - 288000ms;
#X text 168 3174 03:27 - 207000ms;
#X text 176 2904 03:25 - 205000ms;
#X text 169 3412 03:06 - 186000ms;
#X text 166 3648 04:17 - 257000;
#X obj 790 3827 s play;
#X obj 790 3804 bng 15 250 50 0 empty empty empty 17 7 0 10 -262144
-1 -1;
#X obj 853 3789 bng 15 250 50 0 empty empty empty 17 7 0 10 -262144
-1 -1;
#X obj 852 3828 s stop;
#X obj 693 408 dac~ 1 2;
#X obj 771 406 env~;
#X obj 844 407 env~;
#X obj 771 437 - 100;
#X obj 772 468 vu 15 120 empty empty -1 -8 0 10 -66577 -1 1 0;
#X obj 845 469 vu 15 120 empty empty -1 -8 0 10 -66577 -1 1 0;
#X obj 844 437 - 100;
#X obj 738 70 r~ out_1_L;
#X obj 819 71 r~ out_1_R;
#X obj 819 91 r~ out_2_R;
#X obj 738 90 r~ out_2_L;
#X obj 819 111 r~ out_3_R;
#X obj 738 110 r~ out_3_L;
#X obj 738 130 r~ out_4_L;
#X obj 738 150 r~ out_5_L;
#X obj 819 131 r~ out_4_R;
#X obj 819 151 r~ out_5_R;
#X obj 819 171 r~ out_6_R;
#X obj 738 210 r~ out_8_L;
#X obj 819 211 r~ out_8_R;
#X obj 738 230 r~ out_9_L;
#X obj 819 231 r~ out_9_R;
#X obj 738 250 r~ out_10_L;
#X obj 818 252 r~ out_10_R;
#X obj 738 269 r~ out_11_L;
#X obj 819 271 r~ out_11_R;
#X obj 738 290 r~ out_12_L;
#X obj 819 291 r~ out_12_R;
#X obj 738 310 r~ out_13_L;
#X obj 819 311 r~ out_13_R;
#X obj 740 170 r~ out_6_L;
#X obj 818 192 r~ out_7_R;
#X obj 740 190 r~ out_7_L;
#X obj 819 331 r~ out_14_R;
#X obj 819 351 r~ out_15_R;
#X obj 738 330 r~ out_14_L;
#X obj 738 350 r~ out_15_L;
#X obj 818 371 r~ out_16_R;
#X obj 738 370 r~ out_16_L;
#X obj 65 495 s~ out_2_L;
#X obj 54 262 s~ out_1_L;
#N canvas 947 0 958 998 amplitudes 1;
#N canvas 0 50 450 250 (subpatch) 0;
#X array ampsValues 120 float 3;
#A 0 0.0019 0.0026 0.0035 0.0047 0.0062 0.0082 0.0107 0.0139 0.0179
0.0228 0.0287 0.0359 0.0446 0.0548 0.0668 0.0808 0.0968 0.1151 0.1357
0.1587 0.1841 0.2119 0.242 0.2743 0.3085 0.3446 0.3821 0.4207 0.4602
0.5 0.5 0.5398 0.5793 0.6179 0.6554 0.6915 0.7257 0.758 0.7881 0.8159
0.8413 0.8643 0.8849 0.9032 0.9192 0.9332 0.9452 0.9554 0.9641 0.9713
0.9772 0.9821 0.9861 0.9893 0.9918 0.9938 0.9953 0.9965 0.9974 0.9981
0.9981 0.9974 0.9965 0.9953 0.9938 0.9918 0.9893 0.9861 0.9821 0.9772
0.9713 0.9641 0.9554 0.9452 0.9332 0.9192 0.9032 0.8849 0.8643 0.8413
0.8159 0.7881 0.758 0.7257 0.6915 0.6554 0.6179 0.5793 0.5398 0.5 0.5
0.4602 0.4207 0.3821 0.3446 0.3085 0.2743 0.242 0.2119 0.1841 0.1587
0.1357 0.1151 0.0968 0.0808 0.0668 0.0548 0.0446 0.0359 0.0287 0.0228
0.0179 0.0139 0.0107 0.0082 0.0062 0.0047 0.0035 0.0026 0.0019;
#X coords 0 1 120 0 200 140 1 0 0;
#X restore 30 38 graph;
#X obj 387 561 int;
#X obj 419 560 + 1;
#X floatatom 387 582 5 0 0 0 - - -, f 5;
#X obj 387 602 % 120;
#X floatatom 387 623 5 0 0 0 - - -, f 5;
#X msg 338 621 121;
#X obj 366 652 -;
#X msg 268 37 \; ampsValues 0 0.0019 0.0026 0.0035 0.0047 0.0062 0.0082
0.0107 0.0139 0.0179 0.0228 0.0287 0.0359 0.0446 0.0548 0.0668 0.0808
0.0968 0.1151 0.1357 0.1587 0.1841 0.2119 0.242 0.2743 0.3085 0.3446
0.3821 0.4207 0.4602 0.5 0.5 0.5398 0.5793 0.6179 0.6554 0.6915 0.7257
0.758 0.7881 0.8159 0.8413 0.8643 0.8849 0.9032 0.9192 0.9332 0.9452
0.9554 0.9641 0.9713 0.9772 0.9821 0.9861 0.9893 0.9918 0.9938 0.9953
0.9965 0.9974 0.9981 0.9981 0.9974 0.9965 0.9953 0.9938 0.9918 0.9893
0.9861 0.9821 0.9772 0.9713 0.9641 0.9554 0.9452 0.9332 0.9192 0.9032
0.8849 0.8643 0.8413 0.8159 0.7881 0.758 0.7257 0.6915 0.6554 0.6179
0.5793 0.5398 0.5 0.5 0.4602 0.4207 0.3821 0.3446 0.3085 0.2743 0.242
0.2119 0.1841 0.1587 0.1357 0.1151 0.0968 0.0808 0.0668 0.0548 0.0446
0.0359 0.0287 0.0228 0.0179 0.0139 0.0107 0.0082 0.0062 0.0047 0.0035
0.0026 0.0019;
#X floatatom 366 734 5 0 0 0 - - -, f 5;
#X obj 504 683 + 1;
#X obj 504 704 % 120;
#X floatatom 504 725 5 0 0 0 - - -, f 5;
#X obj 627 563 int;
#X obj 659 562 + 1;
#X floatatom 627 584 5 0 0 0 - - -, f 5;
#X obj 627 604 % 120;
#X floatatom 627 625 5 0 0 0 - - -, f 5;
#X msg 578 623 121;
#X obj 606 654 -;
#X floatatom 606 736 5 0 0 0 - - -, f 5;
#X obj 744 685 + 1;
#X obj 744 706 % 120;
#X floatatom 744 727 5 0 0 0 - - -, f 5;
#X floatatom 366 673 5 0 0 0 - - -, f 5;
#X floatatom 606 675 5 0 0 0 - - -, f 5;
#X obj 99 417 inlet;
#X obj 394 541 s m3;
#X msg 645 528 75;
#X text 693 525 Versatz zwischen R/W der Kurven;
#X obj 28 471 s m500;
#X obj 168 470 s m300;
#X text 3 875 amp \$1 \$2 \$3 drei argumente \, da \$1 innerhalb der
abstraction genutzt werden muss;
#N canvas 0 50 450 250 (subpatch) 0;
#X array ampsOut2 120 float 5;
#A 0 0.8643 0.8643 0.8643 0.8849 0.9032 0.9192 0.9332 0.9554 0.9641
0.9713 0.9713 0.9772 0.9861 0.9893 0.9918 0.9938 0.9953 0.9953 0.9965
0.9974 0.9981 0.9981 0.9981 0.9974 0.9974 0.9965 0.9953 0.9938 0.9893
0.9861 0.9772 0.9713 0.9641 0.9554 0.9452 0.9452 0.9332 0.9192 0.9032
0.8849 0.8849 0.8849 0.8643 0.8413 0.758 0.7257 0.6915 0.6554 0.6179
0.5793 0.5398 0.5 0.5 0.4602 0.4207 0.3821 0.3446 0.3085 0.242 0.2119
0.1841 0.1587 0.1357 0.1151 0.1151 0.0968 0.0808 0.0668 0.0668 0.0668
0.0668 0.0446 0.0446 0.0228 0.0179 0.0107 0.0107 0.0082 0.0062 0.0047
0.0035 0.0019 0.0047 0.0062 0.0082 0.0107 0.0139 0.0139 0.0179 0.0228
0.0287 0.0359 0.0548 0.0668 0.0808 0.0968 0.1151 0.1357 0.1587 0.2119
0.242 0.2743 0.3085 0.3085 0.3446 0.3821 0.5 0.5 0.5398 0.5793 0.5793
0.6179 0.6915 0.6915 0.7257 0.758 0.758 0.7881 0.8159 0.8159;
#X coords 0 1 119 0 200 140 1 0 0;
#X restore 328 249 graph;
#N canvas 0 50 450 250 (subpatch) 0;
#X array ampsOut1 120 float 5;
#A 0 0.2743 0.2743 0.2743 0.2743 0.3446 0.3446 0.4207 0.4207 0.5 0.5
0.5398 0.5 0.5398 0.5398 0.6179 0.6179 0.6915 0.6915 0.758 0.758 0.8159
0.8159 0.8643 0.8643 0.9032 0.9032 0.9554 0.9554 0.9713 0.9713 0.9821
0.9821 0.9938 0.9938 0.9938 0.9938 0.9965 0.9965 0.9981 0.9981 0.9974
0.9974 0.9981 0.9981 0.9965 0.9965 0.9938 0.9938 0.9893 0.9893 0.9821
0.9821 0.9713 0.9713 0.9554 0.9554 0.9332 0.9332 0.9032 0.9032 0.8643
0.8643 0.8159 0.8159 0.758 0.758 0.6915 0.6915 0.6179 0.6179 0.5398
0.5398 0.5 0.5 0.3446 0.3446 0.3446 0.3446 0.2743 0.2743 0.2119 0.2119
0.0968 0.0968 0.0668 0.0668 0.0446 0.0446 0.0287 0.0179 0.0107 0.0107
0.0062 0.0062 0.0035 0.0035 0.0019 0.0019 0.0019 0.0019 0.0035 0.0035
0.0062 0.0062 0.0107 0.0107 0.0107 0.0107 0.0179 0.0179 0.0287 0.0287
0.0446 0.0446 0.0668 0.0668 0.0968 0.0968 0.2119 0.2119;
#X coords 0 1 119 0 200 140 1 0 0;
#X restore 328 249 graph;
#X msg 340 420 \; ampsOut2 xticks 0 7.5 1;
#X obj 340 400 loadbang;
#N canvas 0 50 450 250 (subpatch) 0;
#X array ampOut1 120 float 3;
#A 0 0.0668 0.0668 0.0668 0.0668 0.0968 0.0968 0.2119 0.2119 0.2743
0.2743 0.3446 0.3446 0.4207 0.4207 0.5 0.5 0.5398 0.5 0.5398 0.5398
0.6179 0.6179 0.6915 0.6915 0.758 0.758 0.8159 0.8159 0.8643 0.8643
0.9032 0.9032 0.9554 0.9554 0.9713 0.9713 0.9821 0.9821 0.9938 0.9938
0.9938 0.9938 0.9965 0.9981 0.9981 0.9974 0.9974 0.9981 0.9981 0.9965
0.9965 0.9938 0.9938 0.9938 0.9893 0.9893 0.9821 0.9821 0.9713 0.9713
0.9554 0.9554 0.9332 0.9332 0.9032 0.9032 0.8643 0.8643 0.8159 0.8159
0.758 0.758 0.6915 0.6915 0.6179 0.6179 0.5398 0.5398 0.5 0.5 0.3446
0.3446 0.3446 0.3446 0.2743 0.2743 0.2119 0.2119 0.0968 0.0968 0.0668
0.0668 0.0446 0.0446 0.0287 0.0179 0.0107 0.0107 0.0062 0.0062 0.0035
0.0035 0.0019 0.0019 0.0019 0.0019 0.0035 0.0035 0.0062 0.0062 0.0107
0.0107 0.0107 0.0107 0.0179 0.0179 0.0287 0.0287 0.0446 0.0446;
#X array ampOut2 120 float 3;
#A 0 0.8159 0.8159 0.8159 0.8159 0.8643 0.8849 0.9032 0.9192 0.9332
0.9554 0.9641 0.9713 0.9713 0.9772 0.9861 0.9893 0.9918 0.9938 0.9953
0.9953 0.9965 0.9974 0.9981 0.9981 0.9981 0.9974 0.9974 0.9965 0.9953
0.9938 0.9893 0.9861 0.9772 0.9713 0.9641 0.9554 0.9452 0.9452 0.9332
0.9032 0.8849 0.8849 0.8849 0.8643 0.8413 0.758 0.7257 0.6915 0.6554
0.6179 0.5793 0.5398 0.5 0.5 0.4602 0.4207 0.3821 0.3446 0.3085 0.242
0.2119 0.1841 0.1587 0.1357 0.1151 0.1151 0.0968 0.0808 0.0668 0.0668
0.0668 0.0668 0.0446 0.0446 0.0228 0.0179 0.0107 0.0107 0.0082 0.0062
0.0047 0.0035 0.0035 0.0019 0.0047 0.0062 0.0082 0.0107 0.0139 0.0139
0.0179 0.0228 0.0287 0.0359 0.0548 0.0668 0.0808 0.0968 0.1151 0.1357
0.1587 0.2119 0.242 0.2743 0.3085 0.3085 0.3446 0.3821 0.5 0.5 0.5398
0.5793 0.5793 0.6179 0.6915 0.6915 0.7257 0.758 0.758 0.7881;
#X coords 0 1 120 0 200 140 1 0 0;
#X restore 32 214 graph;
#X text 465 478 ARRAY SORTING: disabled! now walking through array
;
#N canvas 0 50 450 250 (subpatch) 0;
#X array ampsOut3 120 float 3;
#A 0 0.7881 0.7881 0.7881 0.8159 0.8159 0.8643 0.8849 0.9032 0.9192
0.9332 0.9554 0.9641 0.9713 0.9713 0.9772 0.9861 0.9893 0.9918 0.9938
0.9953 0.9953 0.9965 0.9974 0.9981 0.9981 0.9981 0.9974 0.9974 0.9965
0.9953 0.9938 0.9893 0.9861 0.9772 0.9713 0.9641 0.9554 0.9452 0.9452
0.9332 0.9032 0.8849 0.8849 0.8849 0.8643 0.8413 0.758 0.7257 0.6915
0.6554 0.6179 0.5793 0.5398 0.5 0.5 0.4602 0.4207 0.3821 0.3446 0.3085
0.242 0.2119 0.1841 0.1587 0.1357 0.1151 0.1151 0.0968 0.0808 0.0668
0.0668 0.0668 0.0668 0.0446 0.0446 0.0228 0.0179 0.0107 0.0107 0.0082
0.0062 0.0047 0.0035 0.0035 0.0019 0.0047 0.0062 0.0082 0.0107 0.0139
0.0139 0.0179 0.0228 0.0287 0.0359 0.0548 0.0668 0.0808 0.0968 0.1151
0.1357 0.1587 0.2119 0.242 0.2743 0.3085 0.3085 0.3446 0.3821 0.5 0.5
0.5398 0.5793 0.5793 0.6179 0.6915 0.6915 0.7257 0.758 0.758;
#X coords 0 1 120 0 200 140 1 0 0;
#X restore 583 242 graph;
#X obj 387 481 tgl 15 0 empty empty empty 17 7 0 10 -262144 -1 -1 0
1;
#X obj 366 754 tabwrite ampOut1;
#X obj 387 500 metro 100;
#X obj 366 713 tabread ampOut1;
#X obj 606 715 tabread ampOut2;
#X obj 608 755 tabwrite ampsOut3;
#X obj 28 449 metro 333;
#X obj 168 449 metro 200;
#X obj 85 851 amp 113 amp16;
#N canvas 0 50 450 250 (subpatch) 0;
#X array amp01 120 float 2;
#X array amp02 120 float 2;
#X array amp03 120 float 2;
#X array amp04 120 float 2;
#X array amp05 120 float 2;
#X array amp06 120 float 2;
#X array amp07 120 float 2;
#X array amp08 120 float 2;
#X array amp09 120 float 2;
#X array amp10 120 float 2;
#X array amp11 120 float 2;
#X array amp12 120 float 2;
#X array amp13 120 float 2;
#X array amp14 120 float 2;
#X array amp15 120 float 2;
#X array amp16 120 float 2;
#X coords 0 1 120 0 200 140 2 0 0;
#X restore 479 958 graph;
#X obj 85 788 amp 90 amp13;
#X obj 84 506 amp 0 amp01;
#X obj 87 526 amp 8 amp02;
#X obj 86 549 amp 15 amp03;
#X obj 85 574 amp 23 amp04;
#X obj 86 600 amp 30 amp05;
#X obj 86 625 amp 38 amp06;
#X obj 85 683 amp 53 amp08;
#X obj 88 653 amp 45 amp07;
#X obj 85 701 amp 60 amp09;
#X obj 85 725 amp 68 amp10;
#X obj 85 747 amp 75 amp11;
#X obj 85 767 amp 83 amp12;
#X obj 85 809 amp 98 amp14;
#X obj 84 831 amp 105 amp15;
#X connect 1 0 2 0;
#X connect 1 0 3 0;
#X connect 2 0 1 1;
#X connect 3 0 4 0;
#X connect 4 0 5 0;
#X connect 5 0 7 1;
#X connect 6 0 7 0;
#X connect 7 0 24 0;
#X connect 9 0 41 0;
#X connect 10 0 11 0;
#X connect 11 0 12 0;
#X connect 12 0 41 1;
#X connect 13 0 14 0;
#X connect 13 0 15 0;
#X connect 14 0 13 1;
#X connect 15 0 16 0;
#X connect 16 0 17 0;
#X connect 17 0 19 1;
#X connect 18 0 19 0;
#X connect 19 0 25 0;
#X connect 20 0 45 0;
#X connect 21 0 22 0;
#X connect 22 0 23 0;
#X connect 23 0 45 1;
#X connect 24 0 10 0;
#X connect 24 0 43 0;
#X connect 25 0 21 0;
#X connect 25 0 44 0;
#X connect 26 0 46 0;
#X connect 26 0 47 0;
#X connect 28 0 13 1;
#X connect 36 0 35 0;
#X connect 40 0 42 0;
#X connect 42 0 1 0;
#X connect 42 0 13 0;
#X connect 42 0 6 0;
#X connect 42 0 18 0;
#X connect 42 0 27 0;
#X connect 43 0 9 0;
#X connect 44 0 20 0;
#X connect 46 0 30 0;
#X connect 47 0 31 0;
#X restore 676 660 pd amplitudes;
#X obj 54 242 *~;
#X obj 114 209 r~ amp01;
#X obj 678 628 tgl 15 0 empty empty empty 17 7 0 10 -262144 -1 -1 1
1;
#X obj 82 472 *~;
#X obj 122 450 r~ amp02;
#X obj 177 240 *~;
#N canvas 0 50 450 250 (subpatch) 0;
#X array ampVisualizer1 120 float 1;
#A 0 0.97487 0 0 0 0 0 0 0 0.91943 0 0 0 0 0 0 0.80799 0 0 0 0 0 0
0 0.94344 0 0 0 0 0 0 0.98747 0 0 0 0 0 0 0 0.99867 0 0 0 0 0 0 0.99251
0 0 0 0 0 0 0 0.95324 0 0 0 0 0 0 0.85167 0 0 0 0 0 0 0 0.65 0 0 0
0 0 0 0.65 0 0 0 0 0 0 0 0.8306 0 0 0 0 0 0 0.90501 0 0 0 0 0 0 0 0.97991
0 0 0 0 0 0 0.99671 0 0 0 0 0 0 0 0.93224 0 0 0 0 0 0;
#X coords 0 1 120 0 200 140 1 0 0;
#X restore 676 707 graph;
#X obj 534 140 writesf~ 2;
#X obj 513 21 r play;
#X msg 542 112 start;
#X obj 611 90 r stop;
#X msg 611 111 stop;
#X obj 539 91 delay 500;
#X obj 595 38 delay 180000;
#X msg 492 68 open vertikal05withoutEffects01loud.wav;
#X msg 185 50 stop;
#X msg 853 3809 stop;
#X obj 54 146 playsf 01EdSheeranShape.wav;
#X obj 56 386 playsf 02WizkidDance.wav;
#X obj 203 472 *~;
#X obj 51 628 playsf 03ChainsmokersCloser.wav;
#X obj 80 717 *~;
#X obj 201 717 *~;
#X obj 120 695 r~ amp03;
#X obj 63 740 s~ out_3_L;
#X obj 171 740 s~ out_3_R;
#X obj 56 834 bng 15 250 50 0 empty empty empty 17 7 0 10 -262144 -1
-1;
#X obj 56 804 r play;
#X obj 116 805 r stop;
#X obj 80 957 *~;
#X obj 201 957 *~;
#X obj 51 868 playsf 04LazerLeanOn.wav;
#X obj 105 932 r~ amp04;
#X obj 63 980 s~ out_4_L;
#X obj 171 980 s~ out_4_R;
#X obj 359 1154 hsl 128 15 0 10000 0 0 empty empty empty -2 -8 0 10
-232576 -1 -1 0 1;
#X obj 58 1063 bng 15 250 50 0 empty empty empty 17 7 0 10 -262144
-1 -1;
#X obj 58 1033 r play;
#X obj 118 1034 r stop;
#X obj 82 1186 *~;
#X obj 203 1186 *~;
#X text 168 1036 04:40 - 280000ms;
#X obj 53 1097 playsf 05SheeranThinking.wav;
#X obj 107 1161 r~ amp05;
#X obj 65 1209 s~ out_5_L;
#X obj 173 1209 s~ out_5_R;
#X obj 309 1393 hsl 128 15 0 10000 0 0 empty empty empty -2 -8 0 10
-232576 -1 -1 0 1;
#X obj 52 1291 bng 15 250 50 0 empty empty empty 17 7 0 10 -262144
-1 -1;
#X obj 52 1261 r play;
#X obj 112 1262 r stop;
#X obj 76 1414 *~;
#X obj 197 1414 *~;
#X text 162 1264 03:52 - 232000ms;
#X obj 47 1325 playsf 06FonsiDespacito.wav;
#X obj 101 1389 r~ amp06;
#X obj 59 1437 s~ out_6_L;
#X obj 167 1437 s~ out_6_R;
#X obj 306 1609 hsl 128 15 0 10000 0 0 empty empty empty -2 -8 0 10
-232576 -1 -1 0 1;
#X obj 49 1507 bng 15 250 50 0 empty empty empty 17 7 0 10 -262144
-1 -1;
#X obj 49 1477 r play;
#X obj 109 1478 r stop;
#X obj 73 1630 *~;
#X obj 194 1630 *~;
#X text 159 1480 03:20 - 200000ms;
#X obj 98 1605 r~ amp07;
#X obj 56 1652 s~ out_7_L;
#X obj 164 1653 s~ out_7_R;
#X obj 305 1834 hsl 128 15 0 10000 0 0 empty empty empty -2 -8 0 10
-232576 -1 -1 0 1;
#X obj 48 1732 bng 15 250 50 0 empty empty empty 17 7 0 10 -262144
-1 -1;
#X obj 48 1702 r play;
#X obj 108 1703 r stop;
#X obj 72 1855 *~;
#X obj 193 1855 *~;
#X obj 43 1766 playsf 08BieberLove.wav;
#X obj 44 1541 playsf 07BieberSorry.wav;
#X obj 97 1830 r~ amp08;
#X obj 55 1877 s~ out_8_L;
#X obj 163 1878 s~ out_8_R;
#X obj 317 2077 hsl 128 15 0 10000 0 0 empty empty empty -2 -8 0 10
-232576 -1 -1 0 1;
#X obj 54 1971 bng 15 250 50 0 empty empty empty 17 7 0 10 -262144
-1 -1;
#X obj 54 1941 r play;
#X obj 114 1942 r stop;
#X obj 78 2094 *~;
#X obj 199 2094 *~;
#X obj 49 2005 playsf 09ChainSmokersLetDown.wav;
#X obj 103 2069 r~ amp09;
#X obj 61 2116 s~ out_9_L;
#X obj 169 2117 s~ out_9_R;
#X obj 313 2309 hsl 128 15 0 10000 0 0 empty empty empty -2 -8 0 10
-232576 -1 -1 0 1;
#X obj 56 2207 bng 15 250 50 0 empty empty empty 17 7 0 10 -262144
-1 -1;
#X obj 56 2177 r play;
#X obj 116 2178 r stop;
#X obj 80 2330 *~;
#X obj 201 2330 *~;
#X obj 51 2240 playsf 10MaloneRockstar.wav;
#X obj 105 2305 r~ amp10;
#X obj 63 2352 s~ out_10_L;
#X obj 171 2353 s~ out_10_L;
#X obj 310 2545 hsl 128 15 0 10000 0 0 empty empty empty -2 -8 0 10
-232576 -1 -1 0 1;
#X obj 53 2443 bng 15 250 50 0 empty empty empty 17 7 0 10 -262144
-1 -1;
#X obj 53 2413 r play;
#X obj 113 2414 r stop;
#X obj 77 2566 *~;
#X obj 198 2566 *~;
#X obj 49 2476 playsf 11PosnerIbizaPill.wav;
#X obj 102 2541 r~ amp11;
#X obj 60 2588 s~ out_11_L;
#X obj 168 2589 s~ out_11_L;
#X obj 309 2786 hsl 128 15 0 10000 0 0 empty empty empty -2 -8 0 10
-232576 -1 -1 0 1;
#X obj 52 2684 bng 15 250 50 0 empty empty empty 17 7 0 10 -262144
-1 -1;
#X obj 52 2654 r play;
#X obj 112 2655 r stop;
#X obj 76 2807 *~;
#X obj 197 2807 *~;
#X obj 48 2717 playsf 12WeekendStarboy.wav;
#X obj 101 2782 r~ amp12;
#X obj 59 2829 s~ out_12_L;
#X obj 167 2830 s~ out_12_L;
#X obj 311 3032 hsl 128 15 0 10000 0 0 empty empty empty -2 -8 0 10
-232576 -1 -1 0 1;
#X obj 54 2930 bng 15 250 50 0 empty empty empty 17 7 0 10 -262144
-1 -1;
#X obj 54 2900 r play;
#X obj 114 2901 r stop;
#X obj 78 3053 *~;
#X obj 199 3053 *~;
#X obj 50 2963 playsf 13LetMeLoveYou.wav;
#X obj 103 3028 r~ amp13;
#X obj 61 3075 s~ out_13_L;
#X obj 169 3076 s~ out_13_L;
#X obj 309 3304 hsl 128 15 0 10000 0 0 empty empty empty -2 -8 0 10
-232576 -1 -1 0 1;
#X obj 52 3202 bng 15 250 50 0 empty empty empty 17 7 0 10 -262144
-1 -1;
#X obj 52 3172 r play;
#X obj 112 3173 r stop;
#X obj 76 3325 *~;
#X obj 197 3325 *~;
#X obj 48 3235 playsf 14BieberWhatMean.wav;
#X obj 101 3300 r~ amp14;
#X obj 59 3347 s~ out_14_L;
#X obj 167 3348 s~ out_14_L;
#X obj 311 3541 hsl 128 15 0 10000 0 0 empty empty empty -2 -8 0 10
-232576 -1 -1 0 1;
#X obj 54 3439 bng 15 250 50 0 empty empty empty 17 7 0 10 -262144
-1 -1;
#X obj 54 3409 r play;
#X obj 114 3410 r stop;
#X obj 78 3562 *~;
#X obj 199 3562 *~;
#X obj 50 3472 playsf 15LazerColdWater.wav;
#X obj 103 3537 r~ amp15;
#X obj 62 3584 s~ out_15_L;
#X obj 169 3585 s~ out_15_L;
#X obj 307 3779 hsl 128 15 0 10000 0 0 empty empty empty -2 -8 0 10
-232576 -1 -1 0 1;
#X obj 50 3677 bng 15 250 50 0 empty empty empty 17 7 0 10 -262144
-1 -1;
#X obj 50 3647 r play;
#X obj 110 3648 r stop;
#X obj 74 3800 *~;
#X obj 195 3800 *~;
#X obj 46 3709 playsf 16SheeranPhotograph.wav;
#X obj 99 3775 r~ amp16;
#X obj 58 3822 s~ out_16_L;
#X obj 165 3823 s~ out_16_L;
#X obj 51 662 lopErosion 10000 60 amp03;
#X obj 56 419 lopErosion 10000 60 amp02;
#X obj 49 188 lopErosion 10000 60 amp01;
#X obj 51 902 lopErosion 10000 60 amp04;
#X obj 53 1131 lopErosion 10000 60 amp05;
#X obj 47 1359 lopErosion 10000 60 amp06;
#X obj 44 1575 lopErosion 10000 60 amp07;
#X obj 43 1800 lopErosion 10000 60 amp08;
#X obj 49 2039 lopErosion 10000 60 amp09;
#X obj 51 2275 lopErosion 10000 60 amp10;
#X obj 49 2511 lopErosion 10000 60 amp11;
#X obj 48 2752 lopErosion 10000 60 amp12;
#X obj 53 2998 lopErosion 10000 60 amp13;
#X obj 48 3269 lopErosion 10000 60 amp14;
#X obj 50 3507 lopErosion 10000 60 amp15;
#X obj 46 3745 lopErosion 10000 60 amp16;
#X connect 0 0 1 0;
#X connect 2 0 97 0;
#X connect 2 0 240 1;
#X connect 3 0 98 0;
#X connect 3 0 239 1;
#X connect 4 0 100 0;
#X connect 4 0 238 1;
#X connect 12 0 11 0;
#X connect 13 0 2 0;
#X connect 14 0 3 0;
#X connect 15 0 4 0;
#X connect 16 0 95 0;
#X connect 18 0 97 1;
#X connect 18 0 240 1;
#X connect 19 0 98 1;
#X connect 19 0 239 1;
#X connect 20 0 100 1;
#X connect 20 0 238 1;
#X connect 35 0 34 0;
#X connect 36 0 96 0;
#X connect 39 0 41 0;
#X connect 40 0 44 0;
#X connect 41 0 42 0;
#X connect 44 0 43 0;
#X connect 45 0 38 0;
#X connect 45 0 39 0;
#X connect 45 0 87 0;
#X connect 46 0 40 0;
#X connect 46 0 38 1;
#X connect 46 0 87 1;
#X connect 47 0 40 0;
#X connect 47 0 38 1;
#X connect 47 0 87 1;
#X connect 48 0 38 0;
#X connect 48 0 39 0;
#X connect 48 0 87 0;
#X connect 49 0 40 0;
#X connect 49 0 38 1;
#X connect 49 0 87 1;
#X connect 50 0 38 0;
#X connect 50 0 39 0;
#X connect 50 0 87 0;
#X connect 51 0 38 0;
#X connect 51 0 39 0;
#X connect 51 0 87 0;
#X connect 52 0 38 0;
#X connect 52 0 39 0;
#X connect 52 0 87 0;
#X connect 53 0 40 0;
#X connect 53 0 38 1;
#X connect 53 0 87 1;
#X connect 54 0 40 0;
#X connect 54 0 38 1;
#X connect 54 0 87 1;
#X connect 55 0 40 0;
#X connect 55 0 38 1;
#X connect 55 0 87 1;
#X connect 56 0 38 0;
#X connect 56 0 39 0;
#X connect 56 0 87 0;
#X connect 57 0 38 1;
#X connect 57 0 40 0;
#X connect 57 0 87 1;
#X connect 58 0 38 0;
#X connect 58 0 39 0;
#X connect 58 0 87 0;
#X connect 59 0 38 1;
#X connect 59 0 40 0;
#X connect 59 0 87 1;
#X connect 60 0 38 0;
#X connect 60 0 39 0;
#X connect 60 0 87 0;
#X connect 61 0 38 1;
#X connect 61 0 40 0;
#X connect 61 0 87 1;
#X connect 62 0 38 0;
#X connect 62 0 39 0;
#X connect 62 0 87 0;
#X connect 63 0 38 1;
#X connect 63 0 40 0;
#X connect 63 0 87 1;
#X connect 64 0 38 0;
#X connect 64 0 39 0;
#X connect 64 0 87 0;
#X connect 65 0 38 1;
#X connect 65 0 40 0;
#X connect 65 0 87 1;
#X connect 66 0 38 0;
#X connect 66 0 39 0;
#X connect 66 0 87 0;
#X connect 67 0 38 1;
#X connect 67 0 40 0;
#X connect 67 0 87 1;
#X connect 68 0 38 0;
#X connect 68 0 39 0;
#X connect 68 0 87 0;
#X connect 69 0 38 1;
#X connect 69 0 40 0;
#X connect 69 0 87 1;
#X connect 70 0 38 0;
#X connect 70 0 39 0;
#X connect 70 0 87 0;
#X connect 71 0 40 0;
#X connect 71 0 38 1;
#X connect 71 0 87 1;
#X connect 72 0 40 0;
#X connect 72 0 38 1;
#X connect 72 0 87 1;
#X connect 73 0 38 0;
#X connect 73 0 39 0;
#X connect 73 0 87 0;
#X connect 74 0 38 0;
#X connect 74 0 39 0;
#X connect 74 0 87 0;
#X connect 75 0 40 0;
#X connect 75 0 38 1;
#X connect 75 0 87 1;
#X connect 76 0 38 0;
#X connect 76 0 39 0;
#X connect 76 0 87 0;
#X connect 80 0 78 0;
#X connect 81 0 80 1;
#X connect 81 0 85 1;
#X connect 82 0 79 0;
#X connect 83 0 77 0;
#X connect 84 0 83 1;
#X connect 84 0 99 1;
#X connect 85 0 5 0;
#X connect 88 0 94 0;
#X connect 88 0 92 0;
#X connect 88 0 93 0;
#X connect 89 0 87 0;
#X connect 90 0 91 0;
#X connect 91 0 87 0;
#X connect 92 0 89 0;
#X connect 93 0 91 0;
#X connect 94 0 87 0;
#X connect 95 0 17 0;
#X connect 96 0 37 0;
#X connect 97 0 240 0;
#X connect 97 1 240 2;
#X connect 98 0 239 0;
#X connect 98 1 239 2;
#X connect 99 0 6 0;
#X connect 100 0 238 0;
#X connect 100 1 238 2;
#X connect 101 0 104 0;
#X connect 102 0 105 0;
#X connect 103 0 101 1;
#X connect 103 0 102 1;
#X connect 106 0 111 0;
#X connect 106 0 241 1;
#X connect 107 0 106 0;
#X connect 108 0 111 1;
#X connect 108 0 241 1;
#X connect 109 0 113 0;
#X connect 110 0 114 0;
#X connect 111 0 241 0;
#X connect 111 1 241 2;
#X connect 112 0 109 1;
#X connect 112 0 110 1;
#X connect 116 0 122 0;
#X connect 116 0 242 1;
#X connect 117 0 116 0;
#X connect 118 0 122 1;
#X connect 118 0 242 1;
#X connect 119 0 124 0;
#X connect 120 0 125 0;
#X connect 122 0 242 0;
#X connect 122 1 242 2;
#X connect 123 0 119 1;
#X connect 123 0 120 1;
#X connect 127 0 133 0;
#X connect 127 0 243 1;
#X connect 128 0 127 0;
#X connect 129 0 133 1;
#X connect 129 0 243 1;
#X connect 130 0 135 0;
#X connect 131 0 136 0;
#X connect 133 0 243 0;
#X connect 133 1 243 2;
#X connect 134 0 130 1;
#X connect 134 0 131 1;
#X connect 138 0 154 0;
#X connect 138 0 244 1;
#X connect 139 0 138 0;
#X connect 140 0 154 1;
#X connect 140 0 244 1;
#X connect 141 0 145 0;
#X connect 142 0 146 0;
#X connect 144 0 141 1;
#X connect 144 0 142 1;
#X connect 148 0 153 0;
#X connect 148 0 245 1;
#X connect 149 0 148 0;
#X connect 150 0 153 1;
#X connect 150 0 245 1;
#X connect 151 0 156 0;
#X connect 152 0 157 0;
#X connect 153 0 245 0;
#X connect 153 1 245 2;
#X connect 154 0 244 0;
#X connect 154 1 244 2;
#X connect 155 0 151 1;
#X connect 155 0 152 1;
#X connect 159 0 164 0;
#X connect 159 0 246 1;
#X connect 160 0 159 0;
#X connect 161 0 164 1;
#X connect 161 0 246 1;
#X connect 162 0 166 0;
#X connect 163 0 167 0;
#X connect 164 0 246 0;
#X connect 164 1 246 2;
#X connect 165 0 162 1;
#X connect 165 0 163 1;
#X connect 169 0 174 0;
#X connect 169 0 247 1;
#X connect 170 0 169 0;
#X connect 171 0 174 1;
#X connect 171 0 247 1;
#X connect 172 0 176 0;
#X connect 173 0 177 0;
#X connect 174 0 247 0;
#X connect 174 1 247 2;
#X connect 175 0 172 1;
#X connect 175 0 173 1;
#X connect 179 0 184 0;
#X connect 179 0 248 1;
#X connect 180 0 179 0;
#X connect 181 0 184 1;
#X connect 181 0 248 1;
#X connect 182 0 186 0;
#X connect 183 0 187 0;
#X connect 184 0 248 0;
#X connect 184 1 248 2;
#X connect 185 0 182 1;
#X connect 185 0 183 1;
#X connect 189 0 194 0;
#X connect 189 0 249 1;
#X connect 190 0 189 0;
#X connect 191 0 194 1;
#X connect 191 0 249 1;
#X connect 192 0 196 0;
#X connect 193 0 197 0;
#X connect 194 0 249 0;
#X connect 194 1 249 2;
#X connect 195 0 192 1;
#X connect 195 0 193 1;
#X connect 199 0 204 0;
#X connect 199 0 250 1;
#X connect 200 0 199 0;
#X connect 201 0 204 1;
#X connect 201 0 250 1;
#X connect 202 0 206 0;
#X connect 203 0 207 0;
#X connect 204 0 250 0;
#X connect 204 1 250 2;
#X connect 205 0 202 1;
#X connect 205 0 203 1;
#X connect 209 0 214 0;
#X connect 209 0 251 1;
#X connect 210 0 209 0;
#X connect 211 0 214 1;
#X connect 211 0 251 1;
#X connect 212 0 216 0;
#X connect 213 0 217 0;
#X connect 214 0 251 0;
#X connect 214 1 251 2;
#X connect 215 0 212 1;
#X connect 215 0 213 1;
#X connect 219 0 224 0;
#X connect 219 0 252 1;
#X connect 220 0 219 0;
#X connect 221 0 224 1;
#X connect 221 0 252 1;
#X connect 222 0 226 0;
#X connect 223 0 227 0;
#X connect 224 0 252 0;
#X connect 224 1 252 2;
#X connect 225 0 222 1;
#X connect 225 0 223 1;
#X connect 229 0 234 0;
#X connect 229 0 253 1;
#X connect 230 0 229 0;
#X connect 231 0 234 1;
#X connect 231 0 253 1;
#X connect 232 0 236 0;
#X connect 233 0 237 0;
#X connect 234 0 253 0;
#X connect 234 1 253 2;
#X connect 235 0 232 1;
#X connect 235 0 233 1;
#X connect 238 0 101 0;
#X connect 238 1 102 0;
#X connect 238 2 22 0;
#X connect 239 0 83 0;
#X connect 239 1 99 0;
#X connect 239 2 23 0;
#X connect 240 0 80 0;
#X connect 240 1 85 0;
#X connect 240 2 24 0;
#X connect 241 0 109 0;
#X connect 241 1 110 0;
#X connect 241 2 21 0;
#X connect 242 0 119 0;
#X connect 242 1 120 0;
#X connect 242 2 115 0;
#X connect 243 0 130 0;
#X connect 243 1 131 0;
#X connect 243 2 126 0;
#X connect 244 0 141 0;
#X connect 244 1 142 0;
#X connect 244 2 137 0;
#X connect 245 0 151 0;
#X connect 245 1 152 0;
#X connect 245 2 147 0;
#X connect 246 0 162 0;
#X connect 246 1 163 0;
#X connect 246 2 158 0;
#X connect 247 0 172 0;
#X connect 247 1 173 0;
#X connect 247 2 168 0;
#X connect 248 0 182 0;
#X connect 248 1 183 0;
#X connect 248 2 178 0;
#X connect 249 0 192 0;
#X connect 249 1 193 0;
#X connect 249 2 188 0;
#X connect 250 0 202 0;
#X connect 250 1 203 0;
#X connect 250 2 198 0;
#X connect 251 0 212 0;
#X connect 251 1 213 0;
#X connect 251 2 208 0;
#X connect 252 0 222 0;
#X connect 252 1 223 0;
#X connect 252 2 218 0;
#X connect 253 0 232 0;
#X connect 253 1 233 0;
#X connect 253 2 228 0;
