#N canvas 0 50 490 434 10;
#X obj 266 67 r~ out_1_L;
#X obj 347 68 r~ out_1_R;
#X obj 347 88 r~ out_2_R;
#X obj 266 87 r~ out_2_L;
#X obj 347 108 r~ out_3_R;
#X obj 266 107 r~ out_3_L;
#X obj 266 127 r~ out_4_L;
#X obj 266 147 r~ out_5_L;
#X obj 347 128 r~ out_4_R;
#X obj 347 148 r~ out_5_R;
#X obj 347 168 r~ out_6_R;
#X obj 266 207 r~ out_8_L;
#X obj 347 208 r~ out_8_R;
#X obj 266 227 r~ out_9_L;
#X obj 347 228 r~ out_9_R;
#X obj 266 247 r~ out_10_L;
#X obj 346 249 r~ out_10_R;
#X obj 266 266 r~ out_11_L;
#X obj 347 268 r~ out_11_R;
#X obj 266 287 r~ out_12_L;
#X obj 347 288 r~ out_12_R;
#X obj 266 307 r~ out_13_L;
#X obj 347 308 r~ out_13_R;
#X obj 268 167 r~ out_6_L;
#X obj 346 189 r~ out_7_R;
#X obj 268 187 r~ out_7_L;
#X obj 347 328 r~ out_14_R;
#X obj 347 348 r~ out_15_R;
#X obj 266 327 r~ out_14_L;
#X obj 266 347 r~ out_15_L;
#X obj 346 368 r~ out_16_R;
#X obj 266 367 r~ out_16_L;
#X obj 62 137 writesf~ 2;
#X obj 41 18 r play;
#X msg 70 109 start;
#X obj 139 87 r stop;
#X msg 139 108 stop;
#X obj 67 88 delay 500;
#X obj 123 35 delay 180000;
#X msg 20 65 open newSoundFile.wav;
#X connect 0 0 32 0;
#X connect 1 0 32 1;
#X connect 2 0 32 1;
#X connect 3 0 32 0;
#X connect 4 0 32 1;
#X connect 5 0 32 0;
#X connect 6 0 32 0;
#X connect 7 0 32 0;
#X connect 8 0 32 1;
#X connect 9 0 32 1;
#X connect 10 0 32 1;
#X connect 11 0 32 0;
#X connect 12 0 32 1;
#X connect 13 0 32 0;
#X connect 14 0 32 1;
#X connect 15 0 32 0;
#X connect 16 0 32 1;
#X connect 17 0 32 0;
#X connect 18 0 32 1;
#X connect 19 0 32 0;
#X connect 20 0 32 1;
#X connect 21 0 32 0;
#X connect 22 0 32 1;
#X connect 23 0 32 0;
#X connect 24 0 32 1;
#X connect 25 0 32 0;
#X connect 26 0 32 1;
#X connect 27 0 32 1;
#X connect 28 0 32 0;
#X connect 29 0 32 0;
#X connect 30 0 32 1;
#X connect 31 0 32 0;
#X connect 33 0 39 0;
#X connect 33 0 37 0;
#X connect 33 0 38 0;
#X connect 34 0 32 0;
#X connect 35 0 36 0;
#X connect 36 0 32 0;
#X connect 37 0 34 0;
#X connect 38 0 36 0;
#X connect 39 0 32 0;
