#N canvas 643 327 777 342 10;
#X obj 131 66 bng 15 250 50 0 empty empty empty 17 7 0 10 -262144 -1
-1;
#X obj 100 221 bng 15 250 50 0 empty empty empty 17 7 0 10 -262144
-1 -1;
#X floatatom 100 138 5 0 0 0 - - -;
#X obj 100 162 * 1000;
#X obj 100 196 delay;
#X obj 99 110 random 5;
#X obj 157 170 noise~;
#X obj 190 133 * 100;
#X floatatom 206 171 5 0 0 0 - - -;
#X obj 274 192 *~;
#X msg 312 144 \$1 5000;
#X msg 337 118 1;
#X floatatom 339 200 5 0 0 0 - - -;
#X obj 172 202 bp~ 0 2;
#X msg 293 115 0;
#X text 179 84 NOISE ADDITION;
#X obj 99 35 inlet;
#X obj 100 265 outlet;
#X msg 239 131 1;
#X floatatom 239 156 5 0 0 0 - - -;
#X obj 29 246 spigot;
#X msg 56 191 1;
#X floatatom 56 216 5 0 0 0 - - -;
#X obj 1 93 r killAllNoise;
#X obj 43 52 t b b;
#X text 297 89 NOISE FADE IN;
#X text 449 77 SONG FADE IN;
#X obj 449 128 * 10000;
#X obj 449 153 delay;
#X obj 452 192 outlet;
#X text 495 179 sends bang to specific song to start;
#X text 136 36 gets bang from intro button;
#X obj 270 229 outlet~;
#X obj 165 107 random 11;
#X obj 27 292 print starting noise;
#X obj 492 154 print start fading in;
#X msg 19 191 0;
#X msg 3 158 0 10000;
#X obj 309 169 line 0 0;
#X obj 419 180 bng 15 250 50 0 empty empty empty 17 7 0 10 -262144
-1 -1;
#X connect 0 0 5 0;
#X connect 0 0 18 0;
#X connect 0 0 33 0;
#X connect 0 0 11 0;
#X connect 1 0 11 0;
#X connect 1 0 20 0;
#X connect 2 0 3 0;
#X connect 2 0 27 0;
#X connect 3 0 4 0;
#X connect 4 0 1 0;
#X connect 5 0 2 0;
#X connect 6 0 13 0;
#X connect 7 0 8 0;
#X connect 8 0 13 1;
#X connect 9 0 32 0;
#X connect 10 0 38 0;
#X connect 11 0 10 0;
#X connect 13 0 9 0;
#X connect 14 0 10 0;
#X connect 16 0 24 0;
#X connect 18 0 19 0;
#X connect 19 0 13 2;
#X connect 20 0 17 0;
#X connect 20 0 34 0;
#X connect 21 0 22 0;
#X connect 22 0 20 1;
#X connect 23 0 36 0;
#X connect 24 0 0 0;
#X connect 24 1 21 0;
#X connect 27 0 28 0;
#X connect 28 0 14 0;
#X connect 28 0 29 0;
#X connect 28 0 35 0;
#X connect 28 0 39 0;
#X connect 33 0 7 0;
#X connect 36 0 22 0;
#X connect 37 0 38 0;
#X connect 38 0 9 1;
#X connect 38 0 12 0;
#X connect 39 0 37 0;
